<?xml version="1.0" encoding="UTF-8"?>
<svg id="Camada_2" data-name="Camada 2" xmlns="http://www.w3.org/2000/svg" viewBox="0 0 572.9 595.58">
  <defs>
    <style>
      .cls-1 {
        fill: #fff;
      }
    </style>
  </defs>
  <g id="logos">
    <g>
      <g id="tipografia">
        <g id="Camada_23_cópia" data-name="Camada 23 cópia">
          <path class="cls-1" d="M.51,101.37l-.06-72.5V13.11C.45,8.57,.37,4.21,.22,.04l56.99-.04c11.32,0,20.93,1.03,28.83,3.11s14.19,5.5,18.89,10.27,8.16,11.17,10.4,19.21c2.24,8.04,3.36,17.95,3.37,29.72l.02,7.24c0,9.69-.7,18.03-2.11,25.03-1.41,7.01-3.57,12.89-6.47,17.66-2.9,4.77-6.78,8.65-11.61,11.63-4.84,2.99-10.65,5.11-17.43,6.38-6.78,1.27-14.86,1.91-24.25,1.92l-56.54,.04c.14-4.47,.22-9.16,.21-14.08,0-4.92,0-10.5-.01-16.76h0Zm27.5,13.17l-6.49-6.7,35.31-.02c6.55,0,11.96-.6,16.2-1.8,4.25-1.19,7.63-3.21,10.16-6.04,2.53-2.83,4.35-6.74,5.47-11.74,1.11-4.99,1.67-11.43,1.66-19.33l-.02-5.9c0-7.6-.53-13.93-1.58-19-1.05-5.06-2.84-9.01-5.37-11.84-2.54-2.83-5.93-4.84-10.17-6.03-4.25-1.19-9.58-1.78-15.98-1.78l-35.76,.02,6.48-6.71,.08,96.86h.01Z"/>
          <path class="cls-1" d="M184.82,23.95l-38.66,.02L143.24,.06l94.98-.06V24.14h-11.38c-4.47,0-9.13-.03-13.97-.1s-9.69-.11-14.53-.1h-13.52Zm-41.28,93.91l-.06-73.06V13.25c0-4.62-.08-9.01-.23-13.19l27.72,19.68,.09,112.47-27.71-.09c.14-2.98,.22-6,.22-9.05v-9.72c0-3.42,0-7.07,0,4.5h-.03Zm40.9-9.67h11.4c4.02,0,8.12-.04,12.29-.12s8.27-.12,12.29-.12h21.24v24.14l-98.32,.06,2.67-23.92,38.44-.02v-.02Zm-34.25-53.36l81.12-.05,.02,23.69c-2.23,0-4.84-.03-7.82-.11-2.98-.07-6.18-.11-9.61-.1h-28.83l-34.86,.02v-23.46h-.02Z"/>
          <path class="cls-1" d="M316.98,134.92c-41.83,.4-63.1-4.68-60.15-50.53l27.71,.28c.39,8.33-1.88,17.77,6.16,22.66,11.72,5.25,37.43,6.04,49.17-.14,5.53-3.75,5.69-7.34,5.69-13.86,0-14.87-5.36-13.46-17.35-14.87-46.85-5.52-76.05,6.97-67.08-55.12C265.44-6.5,308.72,.59,335.98,1.17c29.18,.62,33.48,15.6,32.33,41.1l-27.04,.69c-.33-7.77,1.55-14.26-6-18.8-6.52-3.73-14.35-2.71-23.15-3.1-13.77-.61-25.13,.28-25.83,12.78-1.17,20.88,4.93,19.69,36.72,20.94,42.42,1.67,50.28,2.78,50.04,36.98-.27,38.57-21.82,43.54-56.06,43.17h0Z"/>
        </g>
        <g>
          <path class="cls-1" d="M359.6,531.82l-61.46,.04c.59-3.13,1.19-6.26,1.78-9.39,.59-3.13,1.19-6.44,1.78-9.95,.59-3.5,1.26-7.41,2-11.73l17.59-98.79c.89-5.66,1.74-10.8,2.56-15.42,.81-4.62,1.52-9.09,2.11-13.41l24.14-.02c-1.04,4.32-1.93,8.79-2.67,13.41-.75,4.62-1.56,9.91-2.45,15.87l-20.26,114.89-5.82-7.15h20.56c1.93-.01,3.8-.02,5.59-.02h5.36c1.78,0,3.8-.04,6.03-.12,2.24-.07,4.54-.11,6.93-.12l-3.79,21.9h.02Z"/>
          <path class="cls-1" d="M418.05,373.11l43.58-.03c0,5.51-.18,12.33-.55,20.45s-.77,17.17-1.21,27.16c-.44,9.98-.77,20.19-.99,30.62s-.47,20.67-.76,30.73-.51,19.41-.65,28.05-.36,15.87-.66,21.68l-25.03,.02,4.42-81.13c.59-9.39,1.14-18.7,1.66-27.94,.51-9.24,1.03-17.88,1.55-25.93,.51-8.05,.92-14.97,1.22-20.78l2.47,18.77h-13.63l9.6-18.99c-1.64,5.96-3.68,13-6.13,21.12s-5.06,16.88-7.81,26.26c-2.75,9.39-5.54,18.7-8.36,27.94l-23.86,80.69-26.15,.02c1.93-5.81,4.27-13.04,7.03-21.68,2.75-8.64,5.8-17.99,9.15-28.05s6.69-20.3,10.04-30.74c3.35-10.43,6.62-20.64,9.81-30.62,3.2-9.98,6.13-19.04,8.81-27.16s4.83-14.94,6.47-20.45h-.02Zm-28.53,127.84l3.12-20.56,55.2-.04-3.34,20.56-54.98,.03h0Z"/>
          <path class="cls-1" d="M532.3,455.06l1.11-7.82c6.71,.89,11.99,2.23,15.87,4.01,3.87,1.79,6.85,4.17,8.94,7.15,2.09,2.98,3.28,6.63,3.58,10.95,.3,4.32-.07,9.31-1.11,14.97l-1.56,8.27c-1.19,7.45-2.79,13.71-4.79,18.78-2.01,5.07-4.54,9.05-7.59,11.96-3.05,2.91-6.92,5.03-11.62,6.38-4.69,1.34-10.24,2.02-16.65,2.02l-46.93,.03,9.15-20.12,35.09-.02c3.72,0,6.78-.6,9.16-1.79s4.5-3.28,6.37-6.26c1.86-2.98,3.16-6.85,3.9-11.62l1.78-11.17c1.04-4.92,1.19-8.79,.44-11.62s-2.16-4.84-4.25-6.03-5.22-1.78-9.39-1.78l-30.62,.02,3.34-20.12,29.72-.02c3.58,0,6.63-.56,9.16-1.68s4.58-3.09,6.14-5.93c1.56-2.83,2.79-6.71,3.68-11.62l1.78-9.17c.89-4.92,1.07-8.83,.55-11.73-.53-2.91-1.9-4.95-4.14-6.14s-5.22-1.78-8.94-1.78l-32.85,.02-2.25-20.11,40-.03c8.79,0,15.87,1.3,21.23,3.9,5.37,2.61,8.94,6.66,10.74,12.17,1.79,5.51,1.87,12.81,.24,21.9l-1.56,7.15c-1.04,6.11-2.45,11.29-4.24,15.54s-4.02,7.75-6.7,10.51c-2.68,2.76-6.22,5-10.61,6.71-4.4,1.72-9.8,3.1-16.2,4.15l.03-.03Zm-55.39,47.64l17.59-99.91c.89-6.26,1.78-11.7,2.67-16.32s1.63-9.09,2.23-13.41l23.25,4.23-26.5,150.2-24.58,4.26c.59-2.98,1.15-5.92,1.67-8.83,.52-2.91,1.08-6.07,1.67-9.5,.59-3.43,1.26-7,2-10.73h0Z"/>
        </g>
        <path class="cls-1" d="M.3,316.85c-.15-21.9,.23-140.17-.3-160.27l30.17-.02c-.43,38.44-.25,151.7,.1,190.22l-30.17,.02c.43-10.17,.13-19.35,.2-29.95Z"/>
        <path class="cls-1" d="M116.08,349.63c-46.33,1.14-62.88-18.17-61.94-63.88,1.24-26.72-5.39-95.24,13.58-115.36,17.59-17.54,54.3-14.7,77.1-11.22,27.67,4.26,33.07,28.05,31.77,53.17l-29.05,.69c.27-8.63,.66-19.43-6.05-24.92-11.62-7.09-40.66-8.15-50.51,2.94-6.44,8.78-6.37,47.05-6.68,59.82,.39,12.27-1.02,42.3,1.6,53.19,2.87,24.79,35.6,21.36,53.09,16.62,13.57-6.71,8.41-44.62,9.47-57.28l12.97,7.81-52.52,.03-.02-23.69,68.39-.04c-.5,52.79,5.74,104.53-61.18,102.12h-.02Z"/>
        <path class="cls-1" d="M317.79,156.53c-.69,34.11,.28,100.57,.07,135.32,1.6,43.06-17.69,58.74-59.63,57.92-55.31,1.21-61.07-27.18-59.27-75.17,.11-28.62,.52-89.96-.06-118l29.95-.02c-.86,19.03,.19,114.32-.16,134.65-.76,22.27,6.48,32.88,29.52,31.72,23.1,1.26,30.72-9.4,30.15-31.75-.27-20.56,.34-115.28-.29-134.65l29.72-.02h0Z"/>
        <path class="cls-1" d="M370.76,156.59l49.17-.03c12.86,50.45,27.96,139.74,41.67,189.95l-32.63,.02c-10.51-44.25-25.17-141.5-35.41-184.59l8.28,21.45h-14.3l7.58-21.45c-9.62,43.11-25.49,140.41-35.66,184.63l-31.29,.02c13.95-50.24,29.04-139.64,42.59-190h0Zm-18.02,159.37l-.02-24.58,84.7-.05,.02,24.58-84.7,.05Z"/>
        <path class="cls-1" d="M572.89,346.44l-93.86,.06c.4-39.11,.31-150.78-.1-189.93l29.72-.02c-.5,19.05-.01,153.78-.13,174.95l-10.96-11.39c22.61-.03,52.94,.08,75.32-.27l.02,26.59h-.01Z"/>
      </g>
      <g id="icone">
        <circle class="cls-1" cx="223.26" cy="578.92" r="16.66"/>
        <g>
          <polygon class="cls-1" points="55.93 372.32 0 372.32 0 426.72 0 428.26 55.93 428.26 55.93 372.32"/>
          <polygon class="cls-1" points="0 513.52 0 524.52 0 578.92 54.4 578.92 55.93 578.92 55.93 438.26 0 438.26 0 513.52"/>
          <path class="cls-1" d="M206.59,524.52v-1.53H66.21v55.93h85.98c30.04,0,54.4-24.36,54.4-54.4h0Z"/>
          <path class="cls-1" d="M65.93,372.32v55.93h0v10h0v74.73H206.59v-86.26c0-30.04-24.36-54.4-54.4-54.4H65.93Z"/>
        </g>
      </g>
    </g>
  </g>
</svg>