<svg xmlns="http://www.w3.org/2000/svg" viewBox="0 0 286.14 234.35"><defs><style>.cls-1{fill:#fff;}</style></defs><title>Logo_PMF_Hor_Mono_Branco (2)</title><g id="Layer_2" data-name="Layer 2"><g id="PACK_DE_LOGOS" data-name="PACK DE LOGOS"><g id="Logo_PMF_Hor_Mono_Branco"><path class="cls-1" d="M46.51,217.85h-2.3v6.58h2.36a4.44,4.44,0,0,0,2.71-.77,3.47,3.47,0,0,0,.12-5.06,4.89,4.89,0,0,0-2.89-.75m-6,16.5V214.74h6.14a10,10,0,0,1,5.48,1.45A5.31,5.31,0,0,1,54.39,221a5.41,5.41,0,0,1-2.46,4.92,10,10,0,0,1-5.56,1.57H44.21v6.84Z"/><path class="cls-1" d="M68.64,217.85H66.33v6H68.7a5.18,5.18,0,0,0,2.76-.68,2.41,2.41,0,0,0,1.1-2.23,2.68,2.68,0,0,0-1-2.37,5,5,0,0,0-2.88-.72M74,234.35l-4.15-7.5-.66,0-.69,0H66.33v7.44H62.61V214.74h6.14a9.88,9.88,0,0,1,5.48,1.47,5,5,0,0,1,2.28,4.55,5.18,5.18,0,0,1-.94,3.13,6.25,6.25,0,0,1-2.4,2L78,234.35Z"/><polygon class="cls-1" points="99.03 234.35 85.31 234.35 85.31 214.74 97.02 214.74 97.59 217.68 89.03 217.68 89.03 222.96 94.28 222.96 94.88 225.93 89.03 225.93 89.03 231.44 98.43 231.44 99.03 234.35"/><polygon class="cls-1" points="115.91 226.04 110.37 226.04 110.37 234.35 106.65 234.35 106.65 214.74 117.75 214.74 118.33 217.68 110.37 217.68 110.37 223.13 115.36 223.13 115.91 226.04"/><polygon class="cls-1" points="139.4 234.35 125.68 234.35 125.68 214.74 137.39 214.74 137.97 217.68 129.4 217.68 129.4 222.96 134.65 222.96 135.25 225.93 129.4 225.93 129.4 231.44 138.8 231.44 139.4 234.35"/><rect class="cls-1" x="147.02" y="214.74" width="3.72" height="19.61"/><polygon class="cls-1" points="157.95 214.74 173.81 214.74 174.42 217.68 167.69 217.68 167.69 234.35 163.92 234.35 163.92 217.68 157.95 217.68 157.95 214.74"/><path class="cls-1" d="M185.2,214.42v12.2a4.69,4.69,0,0,0,1.19,3.56,4.29,4.29,0,0,0,3.05,1.11,4.2,4.2,0,0,0,3.08-1.15,4.78,4.78,0,0,0,1.16-3.52v-12.2h3.78v12.49a7.09,7.09,0,0,1-2.18,5.3,8,8,0,0,1-5.89,2.14,7.84,7.84,0,0,1-5.81-2.14,7.14,7.14,0,0,1-2.15-5.3V214.42Z"/><path class="cls-1" d="M212.8,217.85h-2.3v6h2.36a5.19,5.19,0,0,0,2.77-.68,2.41,2.41,0,0,0,1.1-2.23,2.68,2.68,0,0,0-1-2.37,5,5,0,0,0-2.89-.72m5.37,16.5-4.15-7.5-.67,0-.69,0H210.5v7.44h-3.72V214.74h6.14a9.9,9.9,0,0,1,5.48,1.47,5,5,0,0,1,2.28,4.55,5.25,5.25,0,0,1-.94,3.13,6.35,6.35,0,0,1-2.41,2l4.82,8.42Z"/><path class="cls-1" d="M236.37,219.87l-2.56,6.84H239Zm1.68-5.13,7.61,19.09-3.75.52-1.76-4.62h-7.44L231,234.35h-3.75l7.64-19.61Z"/><path class="cls-1" d="M28.14,175.35h-16v19.83H0V144.69H31.33c.25,1.58.49,3.19.71,4.82s.43,3.25.63,4.83H12.18v11.43H26.8Z"/><path class="cls-1" d="M49.67,185.15A7.16,7.16,0,0,0,55.16,183c1.34-1.4,2-3.57,2-6.49a11.41,11.41,0,0,0-1.81-6.68,6,6,0,0,0-5.24-2.6,6.74,6.74,0,0,0-5.49,2.3c-1.29,1.53-1.93,3.74-1.93,6.61a10.82,10.82,0,0,0,1.78,6.61,6.1,6.1,0,0,0,5.2,2.37m.22-28q9,0,14.44,5.05t5.46,14.33q0,8.91-5.79,13.77t-14.48,4.87q-8.61,0-14-4.83t-5.41-14.18q0-8.91,5.64-14a20.45,20.45,0,0,1,14.18-5.05"/><path class="cls-1" d="M93.18,159.17l2.45,9.8a18.05,18.05,0,0,0-11.07,4.08v22.13H72.31V159.24h6.16l3.27,4.23a27.08,27.08,0,0,1,5.35-3,15.41,15.41,0,0,1,6.09-1.33"/><path class="cls-1" d="M120.13,195.18a19.45,19.45,0,0,1-11.62-3.49q-4.86-3.49-4.86-10.4V168.67H98.38v-9.51h5.27v-9.35L115.83,148v11.13h7.94l1.86,9.51h-9.8v11.06a5.79,5.79,0,0,0,1.29,3.94,4.82,4.82,0,0,0,3.83,1.48,9.33,9.33,0,0,0,2.26-.33,12.61,12.61,0,0,0,2.49-.93l3.49,8.39a10.41,10.41,0,0,1-4,2,17.09,17.09,0,0,1-5.05.86"/><path class="cls-1" d="M144.56,185.44a7.4,7.4,0,0,0,2.93-.66,12.42,12.42,0,0,0,2.93-1.86v-3.64h-5.27a3.78,3.78,0,0,0-2.75,1,3.26,3.26,0,0,0-1,2.41,2.51,2.51,0,0,0,.93,1.94,3.32,3.32,0,0,0,2.27.81m2.89-28.29q7,0,11.06,4a14.06,14.06,0,0,1,4.09,10.47v22.72H157l-2.45-2.82a14.84,14.84,0,0,1-4.45,2.6,15.3,15.3,0,0,1-5.57,1q-6.75,0-10.06-3.34a11.94,11.94,0,0,1-3.3-8.76q0-5.79,3.86-8.58t10.09-2.78h5.28a4.49,4.49,0,0,0-1.6-3.12,5.33,5.33,0,0,0-3.45-1.12,20.54,20.54,0,0,0-4.79.67,29.32,29.32,0,0,0-4.72,1.56l-3.26-9.13a32.11,32.11,0,0,1,6.86-2.38,34.36,34.36,0,0,1,8.06-1"/><polygon class="cls-1" points="180.41 142.76 180.41 195.18 168.24 195.18 168.24 143.57 180.41 142.76"/><path class="cls-1" d="M203.44,167.11a5.06,5.06,0,0,0-3.68,1.41,7.4,7.4,0,0,0-2,3.94h11.28a7.45,7.45,0,0,0-1.63-3.72,4.87,4.87,0,0,0-4-1.63m.3-10q8.61,0,12.8,5.61a21.34,21.34,0,0,1,4.2,13.17V180H198a6.47,6.47,0,0,0,2.86,3.9,9.87,9.87,0,0,0,5.23,1.3,22.88,22.88,0,0,0,4.68-.49,20,20,0,0,0,4.6-1.59l3.42,8.39a16.58,16.58,0,0,1-7.17,2.89,40.75,40.75,0,0,1-6.49.75q-9,0-14.67-4.68t-5.68-14.11q0-8.91,5.38-14.07a18.82,18.82,0,0,1,13.56-5.16"/><path class="cls-1" d="M252.06,166q-3.7,4.89-7.46,9.8c-2.5,3.26-5,6.51-7.54,9.72h15.08l1.11,9.66H222.81c-.2-1-.43-2.1-.71-3.16s-.53-2.11-.78-3.16l15.08-20H224.15l-1.42-9.73h28.74a1,1,0,0,0,0,.3,1.53,1.53,0,0,1,0,.3l.3,3.12c.1,1,.17,2.08.22,3.12"/><path class="cls-1" d="M268.1,185.45a7.18,7.18,0,0,0,2.93-.67,11.93,11.93,0,0,0,2.94-1.85v-3.64h-5.28a3.77,3.77,0,0,0-2.74,1,3.2,3.2,0,0,0-1,2.41,2.49,2.49,0,0,0,.93,1.93,3.26,3.26,0,0,0,2.26.82m2.9-28.29q7,0,11.06,4a14,14,0,0,1,4.08,10.47v22.72H280.5l-2.45-2.82a15.05,15.05,0,0,1-4.45,2.6,15.33,15.33,0,0,1-5.57,1q-6.76,0-10.06-3.35a11.87,11.87,0,0,1-3.31-8.76q0-5.79,3.86-8.57t10.1-2.79h5.27a4.47,4.47,0,0,0-1.59-3.11,5.29,5.29,0,0,0-3.46-1.12,20.15,20.15,0,0,0-4.79.67,28.54,28.54,0,0,0-4.71,1.56l-3.27-9.13a31,31,0,0,1,6.87-2.38,34.29,34.29,0,0,1,8.06-1"/><path class="cls-1" d="M198.11,68.08a.57.57,0,0,0-.63.16l-.13.11a1.33,1.33,0,0,0-.65,1.26h0c-.51,0-1,0-1.52,0a.74.74,0,0,1-.38-.12,2,2,0,0,1-.87-2.52,1.3,1.3,0,0,0,0-.15l-.39-.06a1.82,1.82,0,0,1,0-.33,3.48,3.48,0,0,0-.25-2.18,1.79,1.79,0,0,1,.1-1.68c.1-.19.22-.37.31-.56a1.07,1.07,0,0,0,.13-.38.35.35,0,0,0-.45-.38,2,2,0,0,0-.22.09,2.08,2.08,0,0,1-2.28-.4,6,6,0,0,0-1.09-.78c-.57-.33-1.18-.61-1.77-.9l-.13-.09c0-.14.09-.18.16-.23,1-.57,1.91-1.15,2.88-1.69a4.1,4.1,0,0,1,1.71-.55c.57,0,1-.42.49-1.1l-.36-.54a1.52,1.52,0,0,1-.23-1.06c0-.33.14-.65.19-1s.07-.61.11-.93a5.63,5.63,0,0,1,1.5.3,11.26,11.26,0,0,1,1.38.48c.47.19.91.43,1.36.64l0-.07c-.13-.53-.23-1.07-.4-1.58a2.61,2.61,0,0,0-.46-.81,1.5,1.5,0,0,0-1.32-.61,2.69,2.69,0,0,1-1.41-.35,1.54,1.54,0,0,1-.76-.77c-.15-.34-.31-.68-.48-1.05l-.52-.15a2.26,2.26,0,0,1-1.27-.89,1.72,1.72,0,0,1-.31-.93.72.72,0,0,1,.48-.78.72.72,0,0,0,.47-.84c0-.08-.05-.15-.06-.23a.65.65,0,0,1,.6-.78,2.48,2.48,0,0,1,1.45.39.46.46,0,0,1,.16.23,8.51,8.51,0,0,0,2,3.38.62.62,0,0,1,0,.14,14.09,14.09,0,0,1-1.47.47l1.31.86a2,2,0,0,0,.25.14.35.35,0,0,0,.42-.12.26.26,0,0,0,0-.32c0-.11-.12-.2-.17-.31a1.76,1.76,0,0,1-.21-1,2.52,2.52,0,0,0,0-.82,1.08,1.08,0,0,0-.2-.4c-.22-.35-.47-.68-.68-1a4.6,4.6,0,0,1-.58-1.52,2.09,2.09,0,0,1,.68-2.07,1,1,0,0,1,1.28-.18l.21.11a.8.8,0,0,0,1,0,.85.85,0,0,1,.6-.17.59.59,0,0,1,.57.34,2.65,2.65,0,0,1,.24.72,4.28,4.28,0,0,1,0,1.24,7,7,0,0,0-2.36,2.8,2.07,2.07,0,0,0,.69.36l.28-.46a6.21,6.21,0,0,1,2.31-2.27,2.2,2.2,0,0,1,.88-.3.8.8,0,0,1,.89.42.58.58,0,0,1,.08.39c-.07.56.05.8.54,1a.71.71,0,0,1,.46.74,1,1,0,0,1-.12.45,3.1,3.1,0,0,1-.49.64,2.61,2.61,0,0,0-.46.59,3.35,3.35,0,0,1-.64.76,7.76,7.76,0,0,1-1.2.83,2.18,2.18,0,0,0-1,1.22,5.79,5.79,0,0,0-.32,1.54v0c.09,0,.14,0,.17-.11.15-.32.29-.65.45-1a6.5,6.5,0,0,1,1.06-1.54c.08-.08.17-.14.28-.24l.28.55a3.68,3.68,0,0,0,1.39,1.63,1.84,1.84,0,0,1,.9,1.55c0,.27,0,.54.07.81a1,1,0,0,0,.09.34.38.38,0,0,0,.64.06,1.37,1.37,0,0,0,.13-.2,2.11,2.11,0,0,1,.8-.74,1.9,1.9,0,0,1,1.41-.25,6.73,6.73,0,0,0,2.1,0c.5,0,1-.13,1.51-.19h.26a1.67,1.67,0,0,1-.07.3c-.54,1.08-1.06,2.17-1.62,3.24a4.46,4.46,0,0,1-1.18,1.45l-.18.15a.6.6,0,0,0,.17,1.05,6.21,6.21,0,0,0,.59.26,2,2,0,0,1,1.22,1.25c.19.53.44,1,.67,1.55a5.33,5.33,0,0,1-1.87.73c-.63.17-1.28.29-1.92.44-.06.11,0,.19.08.26a3.71,3.71,0,0,0,1.77,1.38,2,2,0,0,1,1.31,1.45c.06.23.12.46.2.68a1.27,1.27,0,0,0,.2.34.39.39,0,0,0,.64-.1c0-.07.05-.14.08-.22a2.36,2.36,0,0,1,1-1.19,1.41,1.41,0,0,1,.77-.25,8.3,8.3,0,0,0,2.56-.54l1.48-.51a4.21,4.21,0,0,1-.06.55q-.37,1.56-.78,3.12a5.33,5.33,0,0,1-1,2,1.27,1.27,0,0,0-.13.19.59.59,0,0,0,.34.93,3.9,3.9,0,0,0,.57.13l.46.1a1.74,1.74,0,0,1,1.08.75,7.62,7.62,0,0,0,1.19,1.55c-.13.11-.23.2-.33.27a14.09,14.09,0,0,1-3.44,1.74,5.7,5.7,0,0,1-2.13.3,2.54,2.54,0,0,1-2.27-1.59.72.72,0,0,1,0-.15c.13,0,.26,0,.39,0a10,10,0,0,0,3.14.18,2,2,0,0,0,.34,0,.29.29,0,0,0,.18-.33.26.26,0,0,0-.23-.24,2.36,2.36,0,0,0-.46,0,9.87,9.87,0,0,1-3.42-.34l-.22-.07a1.33,1.33,0,0,1-.1-.11l.41-.48a54.87,54.87,0,0,0,3.49-4.26c.09-.13.19-.25.27-.38a.31.31,0,0,0-.08-.42.34.34,0,0,0-.43,0,2.85,2.85,0,0,0-.25.33,52.68,52.68,0,0,1-3.36,4.13,4.31,4.31,0,0,1-.37.37s0,0-.09,0-.12-.22-.18-.33A19.87,19.87,0,0,1,207,69.82a1.57,1.57,0,0,0-.14-.38.25.25,0,0,0-.3-.12.29.29,0,0,0-.24.29,3,3,0,0,0,.11.52,26.23,26.23,0,0,0,1,2.85c.71,1.77,1.6,3.47,2.21,5.29a.86.86,0,0,0,.47.55,1.91,1.91,0,0,1,.34.24,1.08,1.08,0,0,1,.52,1,7.78,7.78,0,0,0,.15,1.46c-.16.15-.38.33-.58.54a.87.87,0,0,0-.12,1.17.54.54,0,0,0-.47-.2,5.17,5.17,0,0,0-.88,0c-.32,0-.64,0-1,0a1.86,1.86,0,0,1-.61-.19l-.95-.3a45.39,45.39,0,0,0-4.74-1.28,1.32,1.32,0,0,0-.34,0,.29.29,0,0,0-.24.23.24.24,0,0,0,.14.29,1.79,1.79,0,0,0,.39.13c.68.17,1.37.3,2,.5,1.36.4,2.72.83,4.08,1.24a.38.38,0,0,1,.3.38l1.09-.21a5.75,5.75,0,0,0,1.16-.1c0-.18,0-.33,0-.49l.58.51a4.08,4.08,0,0,0-.51.23,2.69,2.69,0,0,0-.5.39.35.35,0,0,0-.07.43,7.12,7.12,0,0,0,.36.67.85.85,0,0,0,1.06.39l.22-.07c.18.09.17.26.19.41.08.75.28,1.49.3,2.25a.33.33,0,0,0,.07.16l0,0c0,.39,0,.78,0,1.17.08,1.07.1,2.15.08,3.22,0,.15,0,.3,0,.54l.62-.64c.18-.18.36-.36.55-.53l.63-.53.66-.48c.22-.14.43-.27.66-.39s.48-.26.73-.37a4.65,4.65,0,0,1,.7-.28c.26-.08.53-.13.84-.21,0,.16,0,.27,0,.38a6.35,6.35,0,0,0-.06,1.51,4.2,4.2,0,0,0,.39,1.35,1.8,1.8,0,0,1,.08,1.52c-.13.35-.31.68-.47,1-.07.16-.16.31-.24.47a.35.35,0,0,0,.07.43.32.32,0,0,0,.46.1,2.68,2.68,0,0,1,1.71-.27,1.88,1.88,0,0,1,1.2.54,5.27,5.27,0,0,0,1.41,1c.67.36,1.36.68,2,1l.39.19c-.09.09-.13.15-.19.2-.25.18-.5.36-.77.52-.9.52-1.79,1-2.7,1.54a6.11,6.11,0,0,1-2.2.75,2.37,2.37,0,0,0-.46.11.5.5,0,0,0-.34.6,1.09,1.09,0,0,0,.22.53,3.27,3.27,0,0,1,.62,2.54c-.08.62-.13,1.25-.19,1.9a17.56,17.56,0,0,1-3.11-.8,1.71,1.71,0,0,0-.22.25,4.47,4.47,0,0,0-.83,2.64,1.68,1.68,0,0,1-.49,1.28,11.84,11.84,0,0,1-.92.81l-.41.32a.4.4,0,0,0-.12.48.36.36,0,0,0,.42.24,2.66,2.66,0,0,1,2.53,1.62,4.44,4.44,0,0,0,.72,1.27c.47.62,1,1.22,1.46,1.83l.28.37c-.13.16-.3.12-.45.16a2.57,2.57,0,0,1-.4.07c-1.16.11-2.33.23-3.5.3a5.87,5.87,0,0,1-2.2-.23,1.71,1.71,0,0,0-.46-.09.53.53,0,0,0-.6.43,1.39,1.39,0,0,0,0,.41c0,.15.06.31.08.46a2.87,2.87,0,0,1-.37,1.92l-.24.4-.92,1.54a2,2,0,0,1-.25-.16,17.41,17.41,0,0,1-2.4-2.06,9.6,9.6,0,0,1-1.52-2,4.25,4.25,0,0,1-.55-1.71,2.78,2.78,0,0,1,.86-2.28s.07,0,.15,0c0,.15.06.29.08.44a9.17,9.17,0,0,0,.92,3.07l.17.31a.33.33,0,0,0,.42.1.3.3,0,0,0,.13-.36,3,3,0,0,0-.16-.37A7.26,7.26,0,0,1,206,116c0-.37-.09-.74-.13-1.11a2.61,2.61,0,0,1,0-.28,1.09,1.09,0,0,1,.64.17c1.62.64,3.24,1.26,4.9,1.77l1.23.37a1,1,0,0,0,.35,0c.13,0,.19-.11.23-.23a.25.25,0,0,0-.12-.3,1.77,1.77,0,0,0-.38-.15,59,59,0,0,1-6.23-2.2l-.47-.21a2.69,2.69,0,0,1,.21-.35,19.91,19.91,0,0,1,3.42-2.93c.06,0,.13-.09.18-.14a.29.29,0,0,0,.07-.37.3.3,0,0,0-.4-.14,2.12,2.12,0,0,0-.36.21c-.47.35-1,.68-1.39,1.06s-.92.85-1.38,1.28c-.17.15-.28.36-.53.43-.09,0-.16.17-.23.26a48.38,48.38,0,0,1-5.26,6.43l-.28.34,1.71,1.14c.55.38,1.08.76,1.58,1.18-.05.16-.16.12-.25.12-.66,0-1.33-.09-2-.09a20.46,20.46,0,0,0-5.11.54,6.57,6.57,0,0,0-1.51.55,4.29,4.29,0,0,0,.6.66c.2.22.41.43.6.65s.41.47.61.71.36.46.53.7.35.47.52.71l.48.73.49.8.44.76c.14.26.28.52.41.78s.26.52.38.79.26.57.38.85.23.54.33.82a3.75,3.75,0,0,1,.27.89l-.53-.28a38.17,38.17,0,0,0-11.52-4.12,23.19,23.19,0,0,0-4.78-.38,17.21,17.21,0,0,0-4.39.66l-.66.18a.69.69,0,0,1,0-.54c.21-1.43.43-2.85.64-4.28,0-.14,0-.27,0-.42-.24,0-.37.14-.52.24a29.92,29.92,0,0,1-12.59,4.77,41.25,41.25,0,0,1-4.84.31,27.82,27.82,0,0,0-16.07,5.53c-.41.3-.8.62-1.19.94a.94.94,0,0,0-.16.23h-.12a27.58,27.58,0,0,0-6-3.87,28.65,28.65,0,0,0-8.19-2.54,27.81,27.81,0,0,0-4.08-.31,30.16,30.16,0,0,1-13.29-3,29.18,29.18,0,0,1-3.6-2.07c-.16-.11-.32-.2-.55-.34.09,1,.25,1.84.37,2.72s.25,1.73.38,2.65a1.65,1.65,0,0,1-.37,0,17.24,17.24,0,0,0-2.56-.58,19,19,0,0,0-4.39-.13,36,36,0,0,0-13.41,4.05c-.38.19-.76.4-1.13.61h-.1a2.94,2.94,0,0,1,.24-.83q.15-.41.33-.81c.12-.29.25-.57.38-.86s.26-.52.39-.79.26-.51.41-.77l.43-.77c.16-.26.32-.53.49-.79s.32-.5.49-.74.33-.48.51-.71.35-.47.54-.7.39-.48.6-.71l.6-.65a4.91,4.91,0,0,0,.61-.66c-.17-.08-.3-.16-.44-.21a12,12,0,0,0-3-.7,25.18,25.18,0,0,0-4.91-.12,1.08,1.08,0,0,1-.61,0,3.36,3.36,0,0,1,.61-.5l.61-.46a2.71,2.71,0,0,0,.57-.51l-.31,0a15.17,15.17,0,0,1-2.32.29,11.74,11.74,0,0,1-5.81-1.37,22.76,22.76,0,0,1-2.94-1.91,24.61,24.61,0,0,1-3.87-3.48,11.2,11.2,0,0,1-1.44-2c-.08-.13-.13-.27-.2-.41s.11,0,.12,0a18.78,18.78,0,0,0,5.77,2.51c1.47.41,2.94.78,4.41,1.18.53.14,1,.3,1.57.46a15.07,15.07,0,0,1,3.3,1.48c1,.64,2,1.29,3.08,1.93l.38.24c.13-.11,0-.16,0-.2l-2.39-2.25a3.38,3.38,0,0,0-.48-.33,17.61,17.61,0,0,0-4.51-1.92c-1.44-.4-2.9-.78-4.35-1.16a28.72,28.72,0,0,1-3.61-1.18,13,13,0,0,1-2.67-1.45,3.84,3.84,0,0,1-.32-.27l.52-.07.47-.06,3.07-.43a26,26,0,0,1,4.31-.39c.5,0,1,.07,1.52.1l.33,0a1.65,1.65,0,0,0-.06-.24,32.91,32.91,0,0,1-1.87-3.58,2.19,2.19,0,0,0-.15-.22c-.11.2,0,.38-.1.54a.72.72,0,0,1-.5,0,10.35,10.35,0,0,1-3.25-1.11,14,14,0,0,1-3-2.21c-.9-.87-1.77-1.77-2.64-2.67s-1.72-1.81-2.59-2.7a20.4,20.4,0,0,0-2.44-2.11,14,14,0,0,0-2.62-1.53,3.07,3.07,0,0,1-.31-.17s0,0,0-.08a4.94,4.94,0,0,1,1-.16,17.5,17.5,0,0,1,7.34,1.12,16.86,16.86,0,0,1,4.69,2.61,13,13,0,0,1,2.28,2.35l.29.36c0-.64-.21-1.15-.28-1.68s-.17-1.08-.23-1.62-.11-1.13-.14-1.69-.07-1.09-.08-1.64,0-1.09,0-1.74c-.26.31-.21.65-.42.9a3.88,3.88,0,0,1-.36-.15A10.26,10.26,0,0,1,71,90.42a15.59,15.59,0,0,1-2.09-3.24c-.52-1.07-1-2.16-1.5-3.24s-1.06-2.35-1.63-3.5a16.4,16.4,0,0,0-3-4.27l-.53-.54s0,0,0-.1c.21,0,.41.07.61.12a15.12,15.12,0,0,1,4.23,1.82,17.84,17.84,0,0,1,5.49,5,12.53,12.53,0,0,1,2.11,4.78c.09.44.15.89.23,1.42,0-.17.07-.26.09-.35s0-.23.07-.35a42.19,42.19,0,0,1,1.82-7.43c.06-.17.11-.33.16-.5l-.25,0c-.13-.59-.24-1.18-.4-1.76-.28-1.06-.57-2.11-.89-3.15A14.66,14.66,0,0,0,74,71.83c-.61-1-1.26-2.07-1.9-3.1A33.81,33.81,0,0,1,70,65.07a13.63,13.63,0,0,1-1-3c0-.15,0-.31-.06-.51l.24.12c1,.74,2.11,1.49,3.15,2.24.72.51,1.44,1,2.12,1.57A18.89,18.89,0,0,1,75.93,67,8.35,8.35,0,0,1,78,70.83a12.6,12.6,0,0,1,0,6.31l-.12.5s0,0,0,0a.05.05,0,0,0,0,0c1-1.64,1.83-3.35,2.65-5.08a41.86,41.86,0,0,0,2.14-5.25c.14-.43.26-.86.38-1.3a1.42,1.42,0,0,0,0-.19c-.14-.06-.28-.13-.42-.18a6.36,6.36,0,0,1-2.55-1.83,11.36,11.36,0,0,1-1.58-2.52c-.38-.82-.71-1.65-1.08-2.47s-.77-1.75-1.21-2.6a9.86,9.86,0,0,0-2-2.78c-.2-.19-.41-.36-.61-.54s-.13-.14-.24-.25a4.56,4.56,0,0,1,1,.13,8,8,0,0,1,2,.77A13.13,13.13,0,0,1,83,61.35c.14.44.21.91.32,1.36a2.15,2.15,0,0,0,.06.25c.07-.07.12-.1.14-.15s.07-.26.13-.38a3.54,3.54,0,0,0,.32-2c0-.8-.14-1.59-.22-2.39a2.23,2.23,0,0,0-.08-.24,1.63,1.63,0,0,0-.5.16.82.82,0,0,1-.87-.17,3.15,3.15,0,0,1-.54-.61,11.16,11.16,0,0,1-.57-1c-.22-.41-.43-.83-.64-1.25a.37.37,0,0,1,0-.14,18.36,18.36,0,0,0,1.72,1.68,1.61,1.61,0,0,0-.06-.28c-.49-.69-1-1.37-1.48-2-.34-.46-.68-.91-1-1.35a3.39,3.39,0,0,0-1.2-.92,10.25,10.25,0,0,1-1.06-.5,4.2,4.2,0,0,1-.82-.55,2.07,2.07,0,0,1-.47-2.32,1.46,1.46,0,0,1,.24-.33,3.87,3.87,0,0,1,.26-.31l-.44-.08-.37,0c0,.48-.06.94-.14,1.39a10.46,10.46,0,0,1-.31,1.37,5,5,0,0,1-.55,1.32,4.49,4.49,0,0,1-1.35-1.36A3.55,3.55,0,0,1,73,48.71c-.14-.1-.21,0-.29,0s-.11.1-.17.16a3.26,3.26,0,0,1-2.23.89,6.47,6.47,0,0,1-.88,0,1.81,1.81,0,0,1-.35-.09,5.21,5.21,0,0,1,.52-1.93,2,2,0,0,1,1.12-1,2.9,2.9,0,0,0,.76-.31,1.44,1.44,0,0,0-.57-.33,6.19,6.19,0,0,1-1.3-.79,3.22,3.22,0,0,1-1.12-1.87s0-.11,0-.17,0-.08,0-.16A4.18,4.18,0,0,1,69.86,43a4.77,4.77,0,0,1,1.45.22A4.91,4.91,0,0,1,72.6,44a3.48,3.48,0,0,0,.14-.49,3.75,3.75,0,0,1,.69-1.66,11.32,11.32,0,0,1,2.47-2.36,3.15,3.15,0,0,1,.2.31A6.25,6.25,0,0,1,76.33,44c0,.17-.09.34-.14.51a1.1,1.1,0,0,0,0,.16,7,7,0,0,1,2.83.56c.48.25.93.57,1.39.86a2.61,2.61,0,0,1,.31.28,4.6,4.6,0,0,1-2.85,1.49A.51.51,0,0,0,78,48a5.17,5.17,0,0,1,.83,1.34c.23.52.44,1,.63,1.58a5.75,5.75,0,0,0,.94,1.74c.5.62,1,1.23,1.54,1.84.31.37.64.72,1,1.12,0-.1.09-.18.07-.23a2.56,2.56,0,0,0-.23-.47c-.18-.3-.37-.59-.58-.93.3.1.3.11.65.47.19.2.39.38.58.58l.54.59s.1,0,.12-.07l1.26-2.18s.06,0,.09-.06h0a5.67,5.67,0,0,1-.1.57c-.09.38-.2.76-.31,1.13a1,1,0,0,0,0,.61s.1-.07.1-.1c.33-1.31.76-2.59,1-3.92a5,5,0,0,0,0-1.22c0-.55-.16-1.08-.24-1.64a1.45,1.45,0,0,0-1-.18,4,4,0,0,1-1.46,0,3.05,3.05,0,0,1-1.89-1,1.6,1.6,0,0,1,.22-.28c.42-.35.84-.7,1.28-1a3.55,3.55,0,0,1,1.63-.63.87.87,0,0,0,.22-.05.37.37,0,0,0,.25-.42A.9.9,0,0,0,85,45a5.27,5.27,0,0,1-.27-3.16c.07-.46.2-.91.31-1.37,0-.11.08-.21.13-.35a2.27,2.27,0,0,1,.38.17,6.25,6.25,0,0,1,2.57,2.88c.08.16.15.32.24.47a.36.36,0,0,0,.47.1,4.08,4.08,0,0,0,.44-.28A6,6,0,0,1,93,42.57l.13,0a1.62,1.62,0,0,1,0,.22,4.63,4.63,0,0,1-2,3.2l-.54.36c-.35.25-.39.42-.12.77a7.79,7.79,0,0,1,1.29,2.73c0,.13.06.27.09.4a1.2,1.2,0,0,1,0,.19,2.67,2.67,0,0,1-1.16,0,5.6,5.6,0,0,1-1.06-.31c-.35-.16-.67-.39-1-.57,0,0,0,0-.06,0a8.58,8.58,0,0,0-1.32,2.19L86.53,54c-.17.5-.33,1-.49,1.5,0,.13-.07.25-.13.44.14,0,.23,0,.26-.06a2.07,2.07,0,0,0,.27-.45c.13-.24.24-.49.36-.73,0-.08.11-.15.2-.27a12.42,12.42,0,0,1-.49,2.22,3.05,3.05,0,0,1-.34.61,1.18,1.18,0,0,1-1.55.42,5,5,0,0,1-.52-.26c-.25.09-.3.25-.25.51.12.53.21,1.07.3,1.61,0,.23.07.46.1.69s0,.38.09.66a4,4,0,0,0,.31-.33,11.41,11.41,0,0,1,2.19-2.2,8.51,8.51,0,0,1,3-1.48c.61-.16,1.21-.3,1.82-.44A10.52,10.52,0,0,0,95.08,55l.3-.13c-.11.19-.15.28-.21.37a10.65,10.65,0,0,1-1.81,2.15c-.75.68-1.52,1.34-2.31,2-1,.79-2,1.52-3,2.29a18.25,18.25,0,0,0-2.25,2,10.22,10.22,0,0,0-1.75,2.48,3.83,3.83,0,0,0-.27.71,34.44,34.44,0,0,1-2.18,6.24,1.38,1.38,0,0,0-.19.56,1.29,1.29,0,0,0,.48-.36,8.57,8.57,0,0,1,2.46-1.67A13,13,0,0,1,86.5,71,31.3,31.3,0,0,1,90,70.54c1.28-.12,2.57-.2,3.83-.44H94a1.27,1.27,0,0,1-.18.31,12.23,12.23,0,0,1-2.12,2A24,24,0,0,1,89,74.17c-1,.56-2,1.1-3,1.65q-1,.56-2,1.14a16.36,16.36,0,0,0-3.3,2.61c-.8.83-1.58,1.67-2.37,2.51l-.23.25C78,82.25,78,82.12,78,82s0-.23,0-.35c-.18,0-.18.21-.21.34a35.23,35.23,0,0,0-.92,3.81,33,33,0,0,0-.54,6.12,30,30,0,0,0,3.13,13.21c.06.12.14.22.2.32s.1-.14.1-.21a7.84,7.84,0,0,1,1-3.64,13.69,13.69,0,0,1,3-3.77c.89-.82,1.83-1.58,2.76-2.35l3.18-2.59.19-.13c.08.17,0,.29-.08.4-.37.73-.71,1.48-1.14,2.18-.84,1.34-1.73,2.65-2.59,4s-1.56,2.39-2.29,3.61a17.15,17.15,0,0,0-1.64,3.56,13.39,13.39,0,0,0-.47,2,.71.71,0,0,0,.12.55l.41.57s.06,0,.13.06c0-.14.06-.26.07-.4a12,12,0,0,1,1-3.94,23,23,0,0,1,1.77-3.23c.86-1.33,1.75-2.64,2.63-4a36,36,0,0,0,2.33-3.86c.12-.26.25-.52.37-.77.17,0,.13.16.13.25,0,.68,0,1.36,0,2,0,1.36,0,2.73,0,4.1a19.91,19.91,0,0,1-.24,3.27,9.2,9.2,0,0,1-.84,2.55A7.15,7.15,0,0,1,86,109.1a10.08,10.08,0,0,1-2.79.83,4.5,4.5,0,0,0-.73.15A25,25,0,0,0,85.67,114a13.91,13.91,0,0,0,1.44,1.43c0-.34.07-.6.11-.86a12.3,12.3,0,0,1,1.28-3.82,33.1,33.1,0,0,1,1.79-3l1.89-3,.21-.27a1.43,1.43,0,0,1,0,.68c-.16.85-.31,1.69-.52,2.53-.35,1.39-.76,2.78-1.14,4.18a24.25,24.25,0,0,0-.71,3.49,12,12,0,0,0,0,2.4,1,1,0,0,0,0,.17.26.26,0,0,0,.35.21l.42-.21a1.66,1.66,0,0,0,0-.31,13.39,13.39,0,0,1,.43-4.23c.36-1.44.75-2.87,1.15-4.3a28.53,28.53,0,0,0,.89-4.18l.06-.15a2,2,0,0,1,.16.25c.72,1.73,1.45,3.46,2.16,5.19a9.25,9.25,0,0,1,.32.88,6.41,6.41,0,0,1-.21,4.36c-.07.17-.15.35-.24.58.72-.14,1.36-.37,2-.51a3.05,3.05,0,0,0,0-.41v-4a1.89,1.89,0,0,0-.16-.74,28.72,28.72,0,0,1-1.55-5.14,31.22,31.22,0,0,1-.59-7.4c.06-1.45.15-2.89.33-4.32a48.89,48.89,0,0,1,3.62-13.41,44.75,44.75,0,0,0,3-10.32,42.74,42.74,0,0,0,.57-8,46.32,46.32,0,0,0-7.38-24.11,2.33,2.33,0,0,1-.35-.62c.1-.12.2-.24.31-.35l3.24-3.21,7.76-7.74c2.53-2.52,5.07-5,7.6-7.56a1.1,1.1,0,0,1,.87-.35h57.46c.87,0,.61-.1,1.21.51l9,9L191,35.82l1,1,.29.33c-.09.15-.17.31-.27.45a46.24,46.24,0,0,0-5.59,12.26,47.81,47.81,0,0,0-1.5,7.4,46.6,46.6,0,0,0-.29,8,44.93,44.93,0,0,0,2,11.38,7.71,7.71,0,0,0,.53,1.3,46.52,46.52,0,0,1,4.14,12.52,48.2,48.2,0,0,1,.78,9.44A29.47,29.47,0,0,1,190,110.34a2.54,2.54,0,0,0-.2,1c0,.78,0,1.56,0,2.34a.69.69,0,0,0,0,.16,1,1,0,0,0,.25,0,2.92,2.92,0,0,0,1.09-.77,2.2,2.2,0,0,1,2.06-.71c.26,0,.51.06.76.09a.94.94,0,0,0,.29,0,.37.37,0,0,0,.24-.62c-.06-.07-.15-.13-.21-.2a2.72,2.72,0,0,1-.74-1.92,1.5,1.5,0,0,1,.13-.62,7,7,0,0,0,.52-2.39c.06-.6.1-1.2.15-1.85a1.16,1.16,0,0,1,.27.11,6.9,6.9,0,0,1,.63.42c.83.66,1.66,1.31,2.47,2a5.68,5.68,0,0,1,1.42,1.7l.1.15c.34.5.73.52,1.13,0a3.67,3.67,0,0,0,.27-.38,2.64,2.64,0,0,1,1.42-1.06l.34-.1,1.9-.54a3.06,3.06,0,0,1,.16.81,7.4,7.4,0,0,1,.12.93c0,.29,0,.59.06.88a6.85,6.85,0,0,0,.06.88,14.51,14.51,0,0,0,1.93-3.08,36.61,36.61,0,0,0,3.94-11.36,3.64,3.64,0,0,1-1,1.39c-.16-.09-.13-.21-.13-.32a9.51,9.51,0,0,0-.66-3.25,2.59,2.59,0,0,0-.17-.38.31.31,0,0,0-.36-.12.29.29,0,0,0-.18.33,3.26,3.26,0,0,0,.15.44,10.36,10.36,0,0,1,.54,4.1c-.25,0-.43-.11-.61-.19-1.18-.57-2.35-1.15-3.54-1.7-.72-.34-1.47-.62-2.21-.93a3.26,3.26,0,0,0-.44-.15.31.31,0,0,0-.24.55,1.87,1.87,0,0,0,.32.15,60.28,60.28,0,0,1,6,2.72,1.15,1.15,0,0,1,.5.34,1.81,1.81,0,0,1-.25.3c-.62.51-1.23,1-1.88,1.49s-1.08.7-1.63,1a4.05,4.05,0,0,0-.35.21.31.31,0,0,0,.29.53l.42-.2a16.68,16.68,0,0,0,2.78-1.94,3.08,3.08,0,0,1,.6-.46,2.2,2.2,0,0,1,0,1.11,4,4,0,0,1-1.23,2,6.94,6.94,0,0,1-1.7,1.14,10.93,10.93,0,0,1-5.46,1,5.09,5.09,0,0,1-1.71-.37c0-.22.14-.31.24-.45a4.66,4.66,0,0,0,.93-1.81,7,7,0,0,0,.14-.8,1.71,1.71,0,0,1,.63-1.22,10.72,10.72,0,0,1,.94-.68c.13-.09.28-.16.4-.25a.41.41,0,0,0,.2-.5.38.38,0,0,0-.39-.28,2.39,2.39,0,0,1-1.22-.37,2.26,2.26,0,0,1-1.16-1.48,4.51,4.51,0,0,0-.62-1.38c-.43-.67-.89-1.33-1.33-2l-.21-.34c.28,0,.51-.09.74-.09,1.25,0,2.5,0,3.74,0a5.65,5.65,0,0,1,2.11.44,1.42,1.42,0,0,0,.33.11.6.6,0,0,0,.8-.6,2.44,2.44,0,0,0,0-.47,3,3,0,0,1,.67-2.24c.28-.35.54-.72.81-1.08.07-.11.11-.23.17-.34-.17-.09-.25,0-.33.08a10.33,10.33,0,0,1-3.81,1.44,5.5,5.5,0,0,1-2.52,0,1.19,1.19,0,0,1,.07-.27c0-.09.09-.17.14-.26a4.18,4.18,0,0,0,.59-2.41A1.9,1.9,0,0,1,201,86.3a8.17,8.17,0,0,1,.69-.63c.1-.1.21-.18.3-.28a.36.36,0,0,0,.07-.43.32.32,0,0,0-.37-.22,2.59,2.59,0,0,1-1.37-.23,2.07,2.07,0,0,1-1.13-1.12,4.18,4.18,0,0,0-.72-1.13c-.41-.48-.83-.94-1.25-1.4-.18-.21-.37-.4-.55-.59,0-.17.17-.17.27-.19.71-.14,1.42-.26,2.13-.39l1.1-.16a7.11,7.11,0,0,1,2.68,0l.29.05a.57.57,0,0,0,.67-.67,1.77,1.77,0,0,0-.08-.4A2.74,2.74,0,0,1,204,76.4c.15-.29.32-.58.47-.88s.27-.59.42-.92a17.07,17.07,0,0,1,2.16,1.53,11.91,11.91,0,0,1,1.87,1.94,22.51,22.51,0,0,0-1.88-4.61,3.24,3.24,0,0,1-1.3-.61c-.34-.31-.65-.66-1-1l-.36.13a3,3,0,0,1-2.28,0c-.35-.14-.68-.31-1-.47s-.43-.32-.73-.32H201a1.52,1.52,0,0,0,.78-.21.44.44,0,0,0,.23-.54c0-.21-.07-.43-.12-.64a.76.76,0,0,0-.74-.68l-.24,0a.2.2,0,0,1,0,0s0,0,0,0h0a.66.66,0,0,0,.76,0,7.18,7.18,0,0,1,.72-.39c.32-.14.65-.25,1-.38l.28-.12-.61-1c0-.06-.1-.12-.14-.17s-.11,0-.11.07a1.3,1.3,0,0,1-.89.91,2.37,2.37,0,0,0-.47.25l-.42.26a.69.69,0,0,0-.6-.61c-.15,0-.29-.1-.44-.15a.86.86,0,0,0-1.12.56c-.06.16-.09.33-.15.54a1.08,1.08,0,0,1-.39-.49h0c.12-.06.1-.15.08-.25a5.29,5.29,0,0,1-.18-1.68,2.27,2.27,0,0,1,.91-1.76,1.72,1.72,0,0,1,1-.36.73.73,0,0,1,.74.37.58.58,0,0,0,.17.23.72.72,0,0,0,.83.18c-.26-.61-.57-1.17-.87-1.72h0c.06,0,.14,0,.16,0a3.3,3.3,0,0,1,.26.39l.7,1.2.48.13a.62.62,0,0,1,.47.6c0,.17,0,.35,0,.53a.88.88,0,0,0,.05.33c.17.31.37.6.56.89.08.11.12.25.31.31.07-.46.12-.92.21-1.37a10.38,10.38,0,0,1,.34-1.3c.14-.43.34-.85.53-1.31l-.38,0c-.35,0-.71,0-1-.11a2.58,2.58,0,0,1-2.17-2,1.33,1.33,0,0,1,0-.32l.58.25a10.2,10.2,0,0,0,2.76.76,1.34,1.34,0,0,0,.4,0,.26.26,0,0,0,.21-.25.28.28,0,0,0-.16-.29,1.21,1.21,0,0,0-.34-.07,10.18,10.18,0,0,1-3.32-1.07c-.09-.05-.24-.07-.24-.26l.49-.37Q204,58.39,206,56.64a4.49,4.49,0,0,0,.39-.36.3.3,0,0,0,0-.42.3.3,0,0,0-.38,0c-.15.11-.3.24-.45.37-1.27,1.1-2.58,2.14-4,3.12l-.47.32-.1-.12c0-.09-.06-.19-.08-.28a20.69,20.69,0,0,1-.44-3.13c0-.13,0-.27,0-.41a.33.33,0,0,0-.3-.23.33.33,0,0,0-.28.27c0,.15,0,.31,0,.47a19.75,19.75,0,0,0,.42,3.06c0,.15,0,.3.06.5a3.76,3.76,0,0,1-1.46-.8,1,1,0,0,1-.11-.2c-.11,0-.17-.06-.22-.14-.17-.24-.33-.48-.5-.74-.58,0-1.14.06-1.7.11l-3.9.39a1.44,1.44,0,0,0-.4.09.37.37,0,0,0-.16.22.25.25,0,0,0,.26.3q.43,0,.87-.09c1.51-.22,3-.31,4.54-.41a2.94,2.94,0,0,1,.37,0c-.05.17-.08.3-.12.42a15.87,15.87,0,0,1-1.19,2.54,3.29,3.29,0,0,0-.21.42.23.23,0,0,0,.11.3.24.24,0,0,0,.32,0,.94.94,0,0,0,.21-.28c.28-.53.57-1.06.83-1.61s.35-.82.51-1.24a.4.4,0,0,1,.38-.3.87.87,0,0,0,0,.28,1.83,1.83,0,0,0,.18.3,3,3,0,0,1,.35,2.25,5,5,0,0,1-.8,1.81,8.6,8.6,0,0,1-1.57,1.73,3.79,3.79,0,0,0-.26.29l.26.22a1,1,0,0,1,.5,1,3.13,3.13,0,0,0,.17,1.25l.51.16ZM158.22,94.4a.13.13,0,0,0,0,.06.06.06,0,0,0,0,0,.34.34,0,0,1,0-.1c.11.06.22.09.29-.06a1.35,1.35,0,0,0,.28,0l.73-.22a3.71,3.71,0,0,1,2.35,0,11.74,11.74,0,0,0,1.3.32,1,1,0,0,0,.65,0c-.92-.26-1.74-.61-2.61-.81a2.15,2.15,0,0,0-.76,0,4.54,4.54,0,0,0-1.81.62s-.08.11-.12.17l-.3.05m-51.61,6,.39-.09c.45-.14.88-.3,1.33-.43a4.44,4.44,0,0,1,2.65,0,12.23,12.23,0,0,0,1.19.31,8.5,8.5,0,0,0,1.9.24l-.44-.11-2.84-.9a3.64,3.64,0,0,0-1.61-.16,6.47,6.47,0,0,0-2.44.93.81.81,0,0,0-.12.18l-.14,0,0,0,.11-.09m26.83,20.74.5-.14c.47-.16.94-.35,1.43-.5a5.5,5.5,0,0,1,3.45,0,12.61,12.61,0,0,0,1.93.46,4.22,4.22,0,0,0,1.45.13c-.6-.17-1.12-.3-1.64-.46-.71-.22-1.41-.46-2.11-.7a4,4,0,0,0-2.07-.14,7.82,7.82,0,0,0-2.79,1.17c-.06,0-.09.12-.14.17l-.09,0a.1.1,0,0,0,0,0,.3.3,0,0,1,0-.08M166.08,92a3.19,3.19,0,0,1,.32-.23,20.24,20.24,0,0,1,4.46-1.58,10,10,0,0,1,5.42.16,26.2,26.2,0,0,0,5.25,1.16,7.79,7.79,0,0,0,1.93,0,17,17,0,0,1-4-1c-1.17-.37-2.33-.75-3.49-1.16a7.62,7.62,0,0,0-4.15-.25,15.21,15.21,0,0,0-5.61,2.55l-.13.11c0,.07,0,.13.05.19s-.06,0-.1-.06,0,0-.06,0,0,0,.06,0l.09,0m-30.65,1,.07,0-.09,0a1.94,1.94,0,0,0-.24-.15c-.68-.29-1.36-.6-2-.86a23.15,23.15,0,0,0-7.75-1.59,12.9,12.9,0,0,0-2.91.23L117.2,91.7c-1.26.26-2.52.52-3.8.68l-.58.08a1.47,1.47,0,0,0-.59.1,2.23,2.23,0,0,0,.63,0c.9,0,1.8-.07,2.69-.17q3.14-.33,6.24-1a15.31,15.31,0,0,1,3.31-.34,27.34,27.34,0,0,1,4.77.47,43.6,43.6,0,0,1,5,1.24,4.76,4.76,0,0,0,.52.1m-29.32,35h0l0,0-.09,0c0-.2-.16-.2-.26-.25a20.87,20.87,0,0,0-3.79-1.2,22.68,22.68,0,0,0-3.77-.44c-.21,0-.42,0-.67,0,0-.65,0-1.27,0-1.88v-5.74c0-.62,0-1.25,0-1.87a22.35,22.35,0,0,0-5.8,2,26.65,26.65,0,0,0-5.31,3.07l.35,0a21.21,21.21,0,0,1,3.73.34,10,10,0,0,1,3.3,1.13l.36.25-.51.45-.47.44-.46.45-.44.48-.42.48-.4.5q-.21.25-.39.51l-.34.48-.37.53-.35.54-.33.55c-.11.19-.22.37-.32.56s-.21.38-.31.57-.2.38-.3.57-.2.38-.28.58a1.27,1.27,0,0,0-.21.62l.4-.17a37.12,37.12,0,0,1,11.06-3.48,24,24,0,0,1,3.79-.22c.86,0,1.71.1,2.57.19m18.76-79.56c-.56-.54-1.08-1-1.58-1.55a1.32,1.32,0,0,1-.29-.5c-.31-.87-.6-1.73-.91-2.6A2.26,2.26,0,0,1,122,43V40.36c0-.13,0-.26,0-.4l.36-.12c1.69-.4,3.38-.79,5.07-1.21a1.06,1.06,0,0,1,.88.14c.83.51,1.67,1,2.52,1.49.1.06.21.19.38.09.05-.77,0-1.55,0-2.31a40.2,40.2,0,0,1,6-.64l2,2.49a5.37,5.37,0,0,0,1.26-.11c0-.44,0-.87,0-1.3a4.61,4.61,0,0,1,.06-1.28c.09,0,.17,0,.24,0h5.33a1.88,1.88,0,0,1,.29.06c0,.2,0,.37,0,.54,0,.55,0,1.1,0,1.65a3.5,3.5,0,0,0,0,.41h1.27l2-2.49c1.89.1,3.75.34,5.61.56a1.75,1.75,0,0,1,.3.1c0,.2,0,.39,0,.58v1.59c0,.08,0,.2.13.25l.49-.27,2.35-1.42a.94.94,0,0,1,.78-.13l5.23,1.27A1.51,1.51,0,0,1,165,40c0,.13,0,.25,0,.36,0,.9,0,1.8,0,2.7a1.87,1.87,0,0,1-.14.74c-.18.48-.34,1-.51,1.43a7.66,7.66,0,0,1-.54,1.43,9.44,9.44,0,0,1-1,1.21,2.42,2.42,0,0,1-.53.53c-.35,0-.68-.17-1-.16a.72.72,0,0,0,0,.21q5.43,17.67,10.89,35.37l2.71.6c.29.34.36.75.63,1h.72a14.51,14.51,0,0,1,2.87.15A20.13,20.13,0,0,1,187.13,89a.78.78,0,0,1,.34.52,39.14,39.14,0,0,1,.68,4c.12,1.16.22,2.33.3,3.5a29.11,29.11,0,0,1-.21,5.9,26.29,26.29,0,0,1-1.45,5.66c-.06.16-.1.33-.16.5a7.4,7.4,0,0,0,1.24.59c0-.12.1-.21.14-.3a27.44,27.44,0,0,0,1.89-9.3,45.53,45.53,0,0,0-.79-9.68,43.79,43.79,0,0,0-3.6-11,20.89,20.89,0,0,1-1-2.56,46.33,46.33,0,0,1-2-11.81,49.45,49.45,0,0,1,1-11.76,47.65,47.65,0,0,1,5.92-15.08c.09-.15.17-.3.26-.47l-.45-.48L172.45,20.41c-.55-.54-.36-.45-1.12-.45H116.09c-.8,0-.59-.1-1.17.48L104.69,30.67l-6.55,6.54a1.26,1.26,0,0,0-.41.5c.15.25.3.5.44.75a48,48,0,0,1,6.76,23,42.69,42.69,0,0,1-.7,9.44,45.79,45.79,0,0,1-3,9.85,46.84,46.84,0,0,0-3.73,15.88,32.41,32.41,0,0,0,.26,6.89,28.56,28.56,0,0,0,1.55,5.82c0,.12.12.22.19.36a7.09,7.09,0,0,0,1.22-.65l-.22-.57a27.12,27.12,0,0,1-1.55-7,34.09,34.09,0,0,1,0-4.74A46.91,46.91,0,0,1,99.85,90c.1-.53.24-1.06.36-1.57a6.32,6.32,0,0,1,1.27-.38,88.38,88.38,0,0,1,9-1.65.44.44,0,0,0,.41-.27c.17-.35.37-.69.53-1a.91.91,0,0,1,.7-.54c.92-.18,1.83-.39,2.75-.59l.51-.13c.07-.2.13-.38.19-.57l9.81-31.52c.34-1.08.68-2.16,1-3.25,0-.12.13-.25,0-.38l-1.45.27m64.19,76.5c0-.16,0-.23,0-.31V111.34a.14.14,0,0,0,0-.06s0,0-.07-.11l-.5-.28a43.1,43.1,0,0,0-4.16-2,76.25,76.25,0,0,0-14.74-4.33c-1.64-.32-3.3-.61-5-.86s-3.17-.46-4.76-.65c-1.35-.16-2.71-.29-4.08-.4-1.61-.12-3.23-.23-4.84-.33-1.21-.07-2.42-.09-3.63-.15-2-.09-4-.09-6,0-1.8,0-3.59.12-5.38.21-1.33.06-2.65.15-4,.26-1.73.16-3.46.34-5.18.54-1.56.19-3.1.39-4.64.63-2.39.38-4.77.83-7.13,1.37a75.35,75.35,0,0,0-10.52,3.16,44.81,44.81,0,0,0-5.62,2.62,1.06,1.06,0,0,0-.51.37c-.08,1.48-.06,13,0,13.49l.27-.07.75-.33a98,98,0,0,1,15.81-5.43c3.12-.78,6.28-1.43,9.46-1.94,1.88-.31,3.78-.55,5.68-.76,2.09-.24,4.19-.41,6.3-.53s4.13-.18,6.2-.18c3,0,6,0,8.95.24,2,.13,3.94.3,5.89.52,2.29.27,4.57.6,6.83,1,2.69.48,5.36,1,8,1.73a97.87,97.87,0,0,1,16,5.62l.49.19M131.88,41.27l-4,.67-.54.07a3.56,3.56,0,0,1,0-.43c0-.58,0-1.17,0-1.75a1.58,1.58,0,0,0-.07-.34c-1.54.33-3,.66-4.54,1.09,0,.38,0,.73,0,1.08a7.88,7.88,0,0,0,0,1.46,10.1,10.1,0,0,0,.54,1.48c.06.14.13.27.21.42l.48-.08c1.79-.33,3.57-.69,5.36-1s3.32-.44,5-.64c1.9-.23,3.81-.36,5.72-.42a86.79,86.79,0,0,1,9.54.18c1.93.15,3.85.34,5.77.59,2.36.31,4.7.7,7,1.17l1.22.23c.19-.46.35-.9.54-1.32a2.77,2.77,0,0,0,.27-1.36c0-.45,0-.9,0-1.35l0-.46a1.78,1.78,0,0,0-.23-.09l-4.1-1a1,1,0,0,0-.3,0c0,.43,0,.82,0,1.2a5.4,5.4,0,0,1-.06,1.26l-4.51-.75c-.1-.86,0-1.7-.07-2.52a20.4,20.4,0,0,0-3.6-.49,3.71,3.71,0,0,0-1,0c0,.21,0,.38,0,.55,0,.55,0,1.1,0,1.65a2.15,2.15,0,0,1,0,.34,12.88,12.88,0,0,1-1.54-.06l-1.47,0a13.42,13.42,0,0,1-1.53-.08c0-.21,0-.38,0-.55V38.38c0-.13,0-.26-.05-.38a33,33,0,0,0-4.56,0c-.09.84,0,1.69-.07,2.53a.64.64,0,0,1-.19.07l-4.09.17a.73.73,0,0,1-.22,0,1.09,1.09,0,0,1-.07-.59c0-.54,0-1.09,0-1.64a1.81,1.81,0,0,0-.08-.34c-1.52.11-3,.27-4.52.49-.08.86,0,1.7-.06,2.59m-23.22,80.32c.24.19.38.31.54.42a27.42,27.42,0,0,0,6.41,3.47,28,28,0,0,0,6.69,1.65,32.29,32.29,0,0,0,3.68.2,29.71,29.71,0,0,1,6.09.71,30.2,30.2,0,0,1,11.25,5.16l.43.3.4-.29a29.61,29.61,0,0,1,17.45-5.9,32.92,32.92,0,0,0,4-.24,28.12,28.12,0,0,0,6.55-1.72A27.49,27.49,0,0,0,178.2,122c.15-.11.34-.19.43-.43l-1.52-.48-.16.07-.35.23a26.38,26.38,0,0,1-14.84,4.49,30.2,30.2,0,0,0-6,.6,30.83,30.83,0,0,0-11.64,5l-.4.25-.5-.33a31.32,31.32,0,0,0-17.84-5.5,27,27,0,0,1-4.49-.4,26.31,26.31,0,0,1-10-4l-.59-.38-1.63.52m17.15-35.73,1.54.15c1.2.13,2.41.26,3.6.42s2.55.35,3.83.53l3.88.53,3.31.41c1,.11,1.94.22,2.91.3s2,.13,3,.18c.47,0,.94,0,1.4,0,1.06,0,2.11.09,3.16.09,1.74,0,3.48-.08,5.21-.24,1.38-.13,2.75-.28,4.12-.53,1.91-.35,3.82-.76,5.73-1.15.05,0,.08,0,.15-.08s-.12-.1-.17-.1a151.93,151.93,0,0,0-41.71-.55m55.37,42,.75-.08c.84,0,1.67-.13,2.51-.13a27.07,27.07,0,0,1,6.7.93,39.82,39.82,0,0,1,7.4,2.73c.14.07.28.21.5.16a6.94,6.94,0,0,0-.6-1.33c-.22-.43-.45-.86-.7-1.28s-.5-.84-.77-1.25-.55-.8-.84-1.19-.6-.77-.92-1.14-.66-.71-1-1.07a14.41,14.41,0,0,1-1.05-1,6,6,0,0,1,1.47-.76,13.92,13.92,0,0,1,3.88-.82c.72-.06,1.44-.08,2.16-.12a.59.59,0,0,0,.22-.09c-.19-.13-.33-.24-.48-.33a40.73,40.73,0,0,0-5.4-2.92,30.16,30.16,0,0,0-4.62-1.63.82.82,0,0,0-.54,0,1.1,1.1,0,0,0,0,.27c0,.29,0,.58,0,.87,0,2.56,0,5.12,0,7.67a1.27,1.27,0,0,1-.07.66,25.36,25.36,0,0,0-4.35.44,15.4,15.4,0,0,0-4.21,1.47M117.35,80.23l.19.06q5.88-1,11.82-1.55a.09.09,0,0,0,0,0s0,0,0,0a24.33,24.33,0,0,0,.39-3.35s-.07,0-.1,0c-3.63.34-7.24.87-10.83,1.5l-.53.14-1,3.31m51.78-3.44c-1.83-.36-3.62-.67-5.41-.91s-3.79-.46-5.69-.68a.48.48,0,0,0-.17,0h-.06l-.07.06c.13,1.1.24,2.22.42,3.34.82.15,1.62.17,2.41.27l2.44.27,2.38.32c.81.11,1.61.24,2.42.36s1.56.3,2.43.37c-.37-1.16-.71-2.27-1.1-3.41m-44.35-4.93s-.06.06-.06.09c-.19,1-.37,2-.55,2.93a1.24,1.24,0,0,0,0,.31c3.39-.51,6.76-.84,10.13-1.14l.06,0,.08-.09c0-.47.11-1,.13-1.52a6.13,6.13,0,0,0,.08-1.54,84.61,84.61,0,0,0-9.9,1m-4-3.31c-.31,1-.6,2-.89,3,0,0,0,0,0,0s0,0,.1.09c3.5-.61,7.07-1.07,10.68-1.39a9,9,0,0,0,.24-1.58,6,6,0,0,0,.13-1.6c-3.46.33-6.85.82-10.27,1.46m32.09,2.22a6,6,0,0,0,0,.6c.06.73.13,1.47.2,2.21a2.44,2.44,0,0,0,.06.31l.21,0,4.08.34c1.9.17,3.79.41,5.68.69a2,2,0,0,0,.32,0c-.1-.58-.18-1.11-.3-1.64a8.44,8.44,0,0,0-.35-1.61c-3.28-.44-6.55-.75-9.9-.93m4-.6c3.56.32,7.08.75,10.57,1.4h.17l.06,0,.05,0a24.28,24.28,0,0,0-1.06-3,70.66,70.66,0,0,0-10.13-1.43,2.54,2.54,0,0,0,0,.39c.1.89.21,1.77.33,2.7M128.07,59.83c1.22-.13,2.33-.33,3.46-.43s2.21-.24,3.31-.34,2.25-.19,3.36-.28a12.13,12.13,0,0,0,.17-2.5,3.57,3.57,0,0,0-.8,0c-.84.06-1.67.13-2.51.18-2,.13-4.07.36-6.11.62a3.1,3.1,0,0,0-.39.09c-.16.87-.31,1.71-.49,2.66m4.18,2.72c.05-.43.1-.87.16-1.31a7.21,7.21,0,0,0,.13-1.42c-3.13.29-6.19.73-9.25,1.31-.29.91-.59,1.79-.83,2.69.07,0,.11,0,.14,0,3.14-.5,6.29-.94,9.45-1.23.06,0,.11,0,.2-.08m31.95-1.49a2.29,2.29,0,0,0-.31-.09c-.71-.13-1.42-.26-2.13-.37-1.27-.2-2.54-.38-3.81-.56-.78-.1-1.55-.18-2.33-.26-.19,0-.39-.08-.56,0a11.34,11.34,0,0,0,.39,2.72l1.91.18,1.91.22,2,.25c.64.1,1.27.22,1.91.3s1.25.26,1.89.28a13.68,13.68,0,0,0-.84-2.72m-37.29,3c-.17.93-.34,1.84-.5,2.76,0,0,0,.11.06.19,2.8-.4,5.6-.72,8.42-1a1.66,1.66,0,0,0,.21-.06,1.2,1.2,0,0,0,.1-.64,3.12,3.12,0,0,1,.38-1.4l.26-.52a1.42,1.42,0,0,0,0-.22,69.34,69.34,0,0,0-9,.84m22.45-5.36a1.05,1.05,0,0,0,.26,0c.66,0,1.33.07,2,.12,1.07.08,2.14.16,3.2.27,1.42.16,2.83.35,4.24.52a2.54,2.54,0,0,0,.39,0,12.09,12.09,0,0,0-.5-2.6c-2.85-.4-5.74-.64-8.64-.78a4.13,4.13,0,0,0-1.16,0c.13.81.08,1.61.22,2.39m62.51,41.59a.7.7,0,0,1,.09-.51c.11-.31.23-.62.35-.93a16,16,0,0,1,1.41-2.95c.05-.09.11-.17.15-.25a.3.3,0,0,0-.11-.41.27.27,0,0,0-.37.05,2.88,2.88,0,0,0-.28.38,16.56,16.56,0,0,0-1.42,3,4.21,4.21,0,0,0-.12.51,39.14,39.14,0,0,1-1.4,5,38.34,38.34,0,0,1-1.51,3.62c0,.12-.17.23-.06.4l.26-.11c.3-.14.59-.29.9-.42a10.86,10.86,0,0,1,4.09-.86c.13,0,.27,0,.39-.12-.15-.09-.29-.16-.41-.25-.36-.24-.72-.47-1.06-.73a3.42,3.42,0,0,1-.88-1,2.78,2.78,0,0,1-.14-2.6,1.25,1.25,0,0,1,.37.48,9.62,9.62,0,0,0,2.11,2.34,1.55,1.55,0,0,0,.35.21.28.28,0,0,0,.34-.14.27.27,0,0,0,0-.33,1.29,1.29,0,0,0-.17-.16l-.41-.34a9.63,9.63,0,0,1-2.25-3s0-.06,0-.13.25,0,.38-.06c1.23-.08,2.45-.15,3.68-.26,1-.09,2-.24,3-.37a1.28,1.28,0,0,0,.33-.11.25.25,0,0,0,.14-.29.27.27,0,0,0-.22-.25,1,1,0,0,0-.34,0,62.2,62.2,0,0,1-6.53.64,1.23,1.23,0,0,1-.63,0M151.62,63.09c.09.19.15.36.23.5a3.94,3.94,0,0,1,.56,2,2.1,2.1,0,0,0,.08.35q4.27.3,8.5.9a.45.45,0,0,0,.16,0,14.63,14.63,0,0,0-.56-2.86c-2.86-.41-5.75-.65-8.65-.83a2,2,0,0,0-.32,0m-8.08-10.2a66.21,66.21,0,0,0-9.33.49c-.09.78-.23,1.57-.27,2.37a.62.62,0,0,0,.14.06c3.09-.19,6.18-.38,9.28-.39l.16-.05a10.67,10.67,0,0,0,0-2.48m0-7a60.3,60.3,0,0,0-8.4.61.87.87,0,0,0-.08.25c-.1.76-.19,1.51-.29,2.27,0,0,0,.06.05.11s.1.05.15,0c2.85-.27,5.71-.37,8.57-.44a12.82,12.82,0,0,0,0-2.84m-4.74,3.7a89.43,89.43,0,0,0-9,.91c-.11.56-.22,1.1-.32,1.63-.05.28-.1.57-.14.86a.62.62,0,0,0,.06.14c1-.12,2-.26,3.05-.37s2.06-.19,3.09-.29,2.06-.11,3.07-.24a11.27,11.27,0,0,0,.15-2.64m5.36,3.26a7.39,7.39,0,0,0,0,1.24,4.11,4.11,0,0,0,.07,1.3c3.05,0,6.08.09,9.11.34a1.76,1.76,0,0,0,.23,0h.06l.08-.07c0-.37-.06-.78-.13-1.17a5.7,5.7,0,0,0-.21-1.28c-2.93-.26-5.84-.4-8.76-.38l-.43,0m-4.86-.65a2.54,2.54,0,0,0,.73,0c2.67-.13,5.34-.12,8,0a3.16,3.16,0,0,0,.32,0,9.66,9.66,0,0,0-.2-2.59l-.22,0c-2-.11-3.93-.12-5.9-.08-.84,0-1.68.07-2.51.11l-.06,0-.06.06c0,.07,0,.16,0,.25l-.12,2.16s0,.07.06.14m4.9-6.26a17,17,0,0,0-.06,2.56.63.63,0,0,0,.07.22c1.48,0,2.94.07,4.4.14s2.68.19,4,.29h.11l.05,0,.08-.07c0-.4-.07-.82-.14-1.24a6.35,6.35,0,0,0-.22-1.34,59.36,59.36,0,0,0-7.76-.6,1,1,0,0,0-.56.06m4.75,6.27.7,0c1.29.09,2.57.15,3.85.27,1.49.14,3,.34,4.47.52a1.89,1.89,0,0,0,.31,0c-.16-.86-.31-1.67-.47-2.51-.24-.05-.44-.1-.65-.13-1.07-.13-2.13-.28-3.19-.39-1.61-.15-3.22-.27-4.84-.41a2.21,2.21,0,0,0-.33,0,22.75,22.75,0,0,0,.15,2.59m4.8,29a1.6,1.6,0,0,0,.24.06c1.69.16,3.38.3,5.07.47,1.16.12,2.33.27,3.49.41l2.2.3a2.24,2.24,0,0,0,.38,0c-.11-.76-.24-1.46-.4-2.14l-.2-.08c-1.44-.16-2.87-.34-4.31-.49-1.08-.12-2.17-.22-3.26-.3s-2-.13-3-.19a1.59,1.59,0,0,0-.29,0c0,.66.11,1.27.12,1.92M139,56.23c0,.85-.17,1.62-.14,2.4,0,0,.05.06.1.12l2.25-.08a1.89,1.89,0,0,0,.4-.08,9,9,0,0,1,4.34,0,1.84,1.84,0,0,0,.41.06l2.1.08a3.11,3.11,0,0,0,.32,0,10.26,10.26,0,0,0-.14-2.43,2.63,2.63,0,0,0-.39-.06c-3.06,0-6.12-.09-9.25.07M122.51,82.52l3.78-.49c1.26-.15,2.52-.3,3.78-.42s2.48-.21,3.71-.31a7.14,7.14,0,0,0,.16-1.88,97.8,97.8,0,0,0-11,1.08,19.22,19.22,0,0,0-.38,2m2.82-27.94a10.76,10.76,0,0,0-.72,2.45l2.88-.44c1-.14,2-.27,3-.38s1.92-.22,2.92-.33c.06-.43.14-.83.16-1.24a3.49,3.49,0,0,0,.08-1.25,69.72,69.72,0,0,0-8.28,1.19m36.91-.09c-.18,0-.33-.09-.48-.11-1.68-.27-3.35-.54-5-.79-.75-.11-1.51-.18-2.26-.25a.6.6,0,0,0-.54.08c.09.76.19,1.55.29,2.31a1,1,0,0,0,.59.16c.56,0,1.13.09,1.69.16,2.05.24,4.1.5,6.13.88a2.51,2.51,0,0,0,.39,0c-.26-.83-.51-1.61-.78-2.44m-27.72-7.81A49.8,49.8,0,0,0,127.36,48c-.2.61-.4,1.24-.59,1.87,0,.11-.06.23-.09.34a.07.07,0,0,0,0,.06s0,0,.08.07c2.35-.41,4.73-.79,7.14-1a.59.59,0,0,0,.17,0l0,0s0,0,.09-.08c.09-.79.19-1.61.3-2.49m18.89,2.56.68.09,4.06.54c.77.11,1.53.26,2.3.39.12,0,.27.09.39-.08l-.62-1.93a3,3,0,0,0-.12-.32l-.23-.09c-2.06-.45-4.13-.85-6.21-1.17a.87.87,0,0,0-.55,0c0,.84.2,1.66.3,2.56M71.58,47.8a2.41,2.41,0,0,0,1.7-.29,2.88,2.88,0,0,0,1.1,1.36,1.54,1.54,0,0,0,.14-.22,3.75,3.75,0,0,0,.37-1.22c0-.17,0-.36.18-.49a2.27,2.27,0,0,0,2.14-.8,3.08,3.08,0,0,0-2-.94,1.74,1.74,0,0,1,0-.61A2.49,2.49,0,0,0,75,43.12a1,1,0,0,0-.2-.25,4.56,4.56,0,0,0-1.67,1.86,2.45,2.45,0,0,0-1.87-.08,1.61,1.61,0,0,0,1,1.47,1.87,1.87,0,0,0-.76,1.68M210.73,95.4c0-.21.11-.41.13-.62a32.78,32.78,0,0,0,.28-3.44,33.91,33.91,0,0,0-.12-4c0-.08,0-.2-.1-.23-1.27,1.44-2.18,1.43-3.28.84-.17.17-.36.34-.53.53s-.45.29-.56.58l.78.72a14.34,14.34,0,0,1,2.41,2.86,5.76,5.76,0,0,1,1,2.79M119.54,72.73l-1,3.28a.13.13,0,0,0,0,.06l.07.07,2.32-.43c.8-.14,1.61-.25,2.38-.42A27.45,27.45,0,0,0,124,72a1.9,1.9,0,0,0-.34,0,32.76,32.76,0,0,0-4.11.76m44.61,2.36,2.6.49c.56.11,1.11.23,1.67.33.16,0,.33.11.52,0L168,72.59a35.56,35.56,0,0,0-4.13-.74,2,2,0,0,0-.31,0c.2,1.08.4,2.13.6,3.21M148.06,59.36c.57.45,1.13.85,1.62,1.31s.94,1,1.41,1.55a16.7,16.7,0,0,0,3.67.17c0-.44-.08-.89-.15-1.32a6.77,6.77,0,0,0-.22-1.36,48.86,48.86,0,0,0-6.33-.35m-8.46,0c-.25,0-.4,0-.54,0L138,59.4l-4.14.28a1.8,1.8,0,0,0-.7.15c0,.3-.07.61-.11.92s-.08.58-.11.86a2.41,2.41,0,0,0-.06.93h.37c.93-.06,1.86-.15,2.8-.19a.84.84,0,0,0,.72-.38,9.43,9.43,0,0,1,2.53-2.39c.08,0,.14-.12.29-.24M199.77,116c-.3.16-.3.16-.51.17a20.34,20.34,0,0,1-4.2-.23,1,1,0,0,0-.29,0,.3.3,0,0,0-.25.22.27.27,0,0,0,.13.3,1,1,0,0,0,.32.12c.6.08,1.2.18,1.8.21s1.41,0,2.11,0c.09,0,.2,0,.27.12a2,2,0,0,1-.54.63,4.27,4.27,0,0,1-.67.47c-.25.13-.51.23-.82.37a7.39,7.39,0,0,0,1,.53,3,3,0,0,0,.26-.24c1.11-1.13,2.16-2.31,3.17-3.53a8.22,8.22,0,0,0,1.5-2.89,1.35,1.35,0,0,0,.06-.34.27.27,0,0,0-.2-.26.26.26,0,0,0-.31.1,2.54,2.54,0,0,0-.16.38,15.51,15.51,0,0,1-.61,1.46,12,12,0,0,1-1.42,2s-.07,0-.15,0l-.3-.61a57.76,57.76,0,0,0-2.68-5.26,4.17,4.17,0,0,0-.29-.44.25.25,0,0,0-.36-.06.28.28,0,0,0-.13.35,1.82,1.82,0,0,0,.16.31,55.33,55.33,0,0,1,2.84,5.59c.08.17.15.35.22.52M153.54,78.32l3.57.24a1.55,1.55,0,0,0,.21,0,20.14,20.14,0,0,0-.39-3.4,6.57,6.57,0,0,0-.66-.09l-2.8-.2a.64.64,0,0,0-.2,0,22,22,0,0,0,.27,3.46m-19.19-3.43c-1.27.09-2.48.16-3.7.31-.08.59-.18,1.15-.23,1.71a8.25,8.25,0,0,0-.15,1.73c.17,0,.31,0,.44,0l3.27-.26.05,0,.07-.09c.09-1,.18-2,.27-3,0-.09,0-.18,0-.34M122.14,64.77c-.3,1-.59,1.94-.88,2.91,0,0,0,.09.07.14l4.4-.74c.21-1,.39-1.94.54-2.92a22.44,22.44,0,0,0-4.13.61m39.19-.72a6.88,6.88,0,0,0,.23,1.43,9.16,9.16,0,0,0,.3,1.4c.5.14,4.1.75,4.44.76a20.12,20.12,0,0,0-.92-2.93,25.94,25.94,0,0,0-4-.66m4.21,16.42a3.79,3.79,0,0,0,.15,1.16,3.43,3.43,0,0,0,.25,1.05c1.71.36,4.87.89,5.33.9a5.62,5.62,0,0,0-.33-1.17,4.59,4.59,0,0,0-.43-1.15c-1.64-.29-3.26-.59-5-.79m-13.16,20.15a.8.8,0,0,0-.13-.13A15.45,15.45,0,0,0,146.92,98a7.89,7.89,0,0,0-4.61.24c-1,.38-2.06.71-3.1,1a23,23,0,0,1-3.67,1l-.29,0-.27.06a11.9,11.9,0,0,0,3.15-.23A39,39,0,0,0,142.78,99a6.91,6.91,0,0,1,2-.3,13.58,13.58,0,0,1,3.58.51,23.46,23.46,0,0,1,3.51,1.29c.14.07.28.23.49.13m-36-17.1a.38.38,0,0,0,.17,0l5.15-.92a.91.91,0,0,0,.08-.18c.1-.55.21-1.1.31-1.66a.71.71,0,0,0,0-.2,42.65,42.65,0,0,0-5,.82,12.76,12.76,0,0,0-.64,2.1m36.19-16.84c0,.29,0,.5,0,.7.05.72.12,1.44.19,2.15a3.47,3.47,0,0,0,.08.36l1.65.1a7.17,7.17,0,0,0,1.67.06,21.16,21.16,0,0,0-.42-3.11c-1-.12-2.06-.18-3.18-.26m-17.74,3.24c.09-1,.17-1.92.25-2.85a1.09,1.09,0,0,0,0-.26,11.83,11.83,0,0,0-3.22.32c-.11.89-.23,1.8-.34,2.71a2.73,2.73,0,0,0,0,.36c1.12-.11,2.2-.14,3.32-.28M128,57.24a24.36,24.36,0,0,0-3.7.62,17.66,17.66,0,0,0-.81,2.66s.07.06.1,0l3.69-.61a1,1,0,0,0,.23-.09c.18-.85.35-1.71.49-2.63m32.05,2.5c.19,0,.32.09.45.11l3.39.59a.93.93,0,0,0,.26,0c-.31-.91-.55-1.81-.89-2.68-1.16-.21-2.29-.42-3.43-.55a.85.85,0,0,0-.25,0l.47,2.52m-30.81-9.13c-1,.16-1.93.3-2.86.51-.1.31-.2.6-.29.89s-.18.56-.26.84a2.7,2.7,0,0,0-.21.93c1.06-.18,2.09-.34,3.15-.53.16-.86.34-1.69.47-2.64m29.6,2.57,2.89.49a.79.79,0,0,0,.22,0c-.26-.85-.52-1.68-.81-2.5a6.79,6.79,0,0,0-1.38-.29,4.91,4.91,0,0,0-1.41-.17c.16.86.28,1.68.49,2.51m7.09,47s.1,0,.15,0c.35,0,.7,0,1-.09a26.73,26.73,0,0,0,3.75-.84c.34-.1.68-.21,1-.28a7.32,7.32,0,0,1,3,.06,17,17,0,0,1,3.54,1.15c.16.07.29.2.5.15a.5.5,0,0,0-.12-.13,12.19,12.19,0,0,0-3.72-1.79,6.36,6.36,0,0,0-4.13.13l-.38.14a41.85,41.85,0,0,1-4.64,1.38s0,0,0,.07M197.71,57l.08-.05c0-.23,0-.46-.07-.69a.72.72,0,0,0-.2-.48l-1.28-1.28a.71.71,0,0,0-.14-.1.27.27,0,0,0-.32.08.23.23,0,0,0,0,.31,2.65,2.65,0,0,0,.29.29,9.11,9.11,0,0,1,1.52,1.7c0,.08.11.15.16.22m8.73,28.92-1.5,1.22-.09.08a.29.29,0,0,0,0,.37.28.28,0,0,0,.32.09,1.83,1.83,0,0,0,.3-.18l1.07-.89c.1-.09.17-.2.27-.31l-.36-.38m1.29-5.8c.2,0,.4,0,.56-.19l-.56-1.09a1.27,1.27,0,0,0-.13-.19.28.28,0,0,0-.4-.1.29.29,0,0,0-.1.4c.19.38.4.75.63,1.17M198,48.43a1.64,1.64,0,0,0,.06.77.35.35,0,0,0,.6.17,2.44,2.44,0,0,0,.54-.89c-.43,0-.8-.08-1.2,0m-45.39,52.41,0,0v0Z"/><path class="cls-1" d="M148.43,0c0,1.23,0,2.46,0,3.69a1.48,1.48,0,0,0,.05.24c.65.09,1.29,0,2,.08L153.61.27c3,.22,6,.53,9.09.92a3.64,3.64,0,0,1,.05.45V4.79c.18.12.28,0,.4-.06L166.21,3c.42-.24.86-.46,1.27-.72a1.12,1.12,0,0,1,.94-.15c1.12.25,2.25.47,3.37.73,1.6.37,3.19.76,4.78,1.14l.52.15c0,.17,0,.32,0,.48,0,1.36,0,2.73,0,4.1a1.92,1.92,0,0,1-.09.63c-.43,1.17-.88,2.34-1.31,3.51,0,.07-.07.13-.11.22a1.49,1.49,0,0,1-.63.05H162l-28.52,0H112.06a2.16,2.16,0,0,1-.19-.37c-.41-1.09-.81-2.19-1.21-3.29a1.87,1.87,0,0,1-.12-.57c0-1.52,0-3.05,0-4.57a1.81,1.81,0,0,1,0-.19,1.92,1.92,0,0,1,.25-.12q4.19-1,8.4-1.87a1.25,1.25,0,0,1,.94.15c1.39.8,2.79,1.57,4.19,2.35.14.08.28.22.52.16,0-.59,0-1.19,0-1.79s0-1.16,0-1.73c.86-.23,7.6-.93,9.12-.95a1.87,1.87,0,0,1,.48.49l2.27,2.68a3.34,3.34,0,0,0,.35.4.52.52,0,0,0,.3.14L139.16,4a4.19,4.19,0,0,0,.05-.47c0-1,0-1.91,0-2.87A1.24,1.24,0,0,1,139.3,0Zm8.41,9c0-.14,0-.24,0-.33l.18-2c0-.12,0-.24.06-.35a1.46,1.46,0,0,1,1.49-.92,1.4,1.4,0,0,1,1.19,1.26c.05.43.07.86.12,1.28a10,10,0,0,0,.17,1.41c3.68.43,7.32,1,11,1.6,0,0,.07,0,.15,0s0-.28.06-.43c0-.55.09-1.09.14-1.63a1.39,1.39,0,0,1,2.75-.12,4.55,4.55,0,0,1,0,.53c.06.68.11,1.36.17,2a1.8,1.8,0,0,0,.09.28l.39.06.12-.18L176,9a1.54,1.54,0,0,0,.1-.63c0-.94,0-1.88,0-2.81,0-.16,0-.31,0-.47a5.79,5.79,0,0,0-1.2-.33q-2.79-.64-5.59-1.26c-.1,0-.21-.1-.36,0V4.72c0,.39,0,.78,0,1.17a4.85,4.85,0,0,1-.06,1.25l-2.37-.39-2.31-.37c-.78-.13-1.58-.2-2.39-.37,0-.22,0-.41,0-.61V2.71c0-.16,0-.31,0-.47-.81-.17-1.61-.21-2.4-.31s-1.56-.15-2.33-.24a8.6,8.6,0,0,0-2.41-.11c-.06.61,0,1.24,0,1.86s0,1.24,0,1.89h-.31l-4.8-.19-1.7-.07L147.42,5c0-.22,0-.42,0-.61V1.65c0-.15,0-.32-.1-.43-.55-.06-5.76-.08-6.79,0l-.25.05a9.32,9.32,0,0,0,0,1.29c0,.41,0,.82,0,1.23a8.8,8.8,0,0,1,0,1.26c-.06,0-.09.06-.12.06l-6.44.3h-.41l-.05,0s0,0-.08-.08c0-.58,0-1.2,0-1.82A18,18,0,0,0,133,1.52c-.82.07-1.61.12-2.4.21s-1.55.16-2.33.24a21.8,21.8,0,0,0-2.38.3,7.51,7.51,0,0,0,0,1.25c0,.43,0,.86,0,1.29a5.78,5.78,0,0,1,0,1.24c-.23,0-.46.1-.69.13l-6.07.94c-.11,0-.22,0-.36,0V5.85c0-.39,0-.79,0-1.18a5.45,5.45,0,0,0,0-1.21c-.89.08-6.48,1.33-7.09,1.59a1.3,1.3,0,0,0,0,.21c0,1.08,0,2.15,0,3.22a1.87,1.87,0,0,0,.12.57c.29.72.59,1.44.89,2.16,0,.11.11.2.17.31a3,3,0,0,0,.93-.18,1.9,1.9,0,0,0,.11-.7c.06-.68.09-1.37.18-2a1.38,1.38,0,0,1,1.42-1.15,1.39,1.39,0,0,1,1.32,1.25c0,.53.08,1.06.13,1.58,0,.15,0,.3.07.53,3.54-.62,7.06-1.15,10.6-1.56a1.64,1.64,0,0,0,.1-.6c0-.57.09-1.13.14-1.69a1.44,1.44,0,0,1,1-1.19,1.34,1.34,0,0,1,1.43.44,1.38,1.38,0,0,1,.35.85c0,.52.08,1,.13,1.57a2.85,2.85,0,0,0,.08.35c3.76-.32,7.5-.54,11.24-.59,0,0,.07,0,.13-.06a3.06,3.06,0,0,0,0-.32c.06-.57.11-1.13.16-1.7a1.28,1.28,0,0,1,.58-1,1.25,1.25,0,0,1,1.32-.16A1.35,1.35,0,0,1,145,6.29c.05.51.08,1,.13,1.52a.93.93,0,0,0,.15.6q5.61.08,11.24.6a1.52,1.52,0,0,0,.28,0"/><path class="cls-1" d="M61.41,76.16a3.46,3.46,0,0,1,1.08.89,15.45,15.45,0,0,1,2,2.86c.63,1.1,1.16,2.26,1.68,3.41.61,1.37,1.22,2.75,1.87,4.1a16.46,16.46,0,0,0,1.79,3A11.46,11.46,0,0,0,73,93.25a2.85,2.85,0,0,1,.31.21c-.08,0-.13.09-.17.09a14.35,14.35,0,0,1-4.21-.66,7.88,7.88,0,0,1-3.69-2.47,12.49,12.49,0,0,1-2.6-5,11.4,11.4,0,0,1-.28-2.61c0-.84,0-1.68,0-2.52a10.25,10.25,0,0,0-.77-3.7l-.16-.43"/><path class="cls-1" d="M96.27,55.11a.76.76,0,0,1,.1.58,13.62,13.62,0,0,1-.64,3.79,15.7,15.7,0,0,1-2.83,5.34,10.68,10.68,0,0,1-4.44,3.33,8.89,8.89,0,0,1-4,.57l-.32,0a.4.4,0,0,1,0-.41,8.91,8.91,0,0,1,1.58-3.17,13.81,13.81,0,0,1,2.34-2.37c.84-.69,1.72-1.35,2.58-2s1.6-1.24,2.37-1.9a13.69,13.69,0,0,0,3.07-3.5l.16-.2"/><path class="cls-1" d="M78.48,83.12c.12-.17.18-.25.24-.32a40.2,40.2,0,0,1,3-3.14,14.79,14.79,0,0,1,2.8-2.11c1.06-.62,2.14-1.2,3.21-1.8s1.88-1,2.8-1.59a15.35,15.35,0,0,0,3.9-3.23.24.24,0,0,1,.1-.05c.12.09,0,.22,0,.31-.17.52-.32,1-.52,1.55a14.93,14.93,0,0,1-1.36,2.52,27,27,0,0,1-3.78,4.61A11.26,11.26,0,0,1,83,83a11.75,11.75,0,0,1-2.21.22c-.61,0-1.21,0-1.82,0a4.6,4.6,0,0,1-.48-.07"/><path class="cls-1" d="M68.12,62a1.47,1.47,0,0,1,.06.14,14.79,14.79,0,0,0,1.61,4.19c.7,1.24,1.46,2.45,2.19,3.67.4.67.82,1.33,1.23,2a17.09,17.09,0,0,1,2,4.61c.28,1.06.53,2.12.79,3.18,0,.2.06.42.1.66a.52.52,0,0,1-.19,0,12.94,12.94,0,0,1-4.26-2.73,11.47,11.47,0,0,1-2.86-4.9A26.61,26.61,0,0,1,67.64,67a13.56,13.56,0,0,1,.2-4.31c0-.21.11-.41.18-.62,0,0,0,0,.1-.08"/><path class="cls-1" d="M59.75,95.14l.69.31a13.94,13.94,0,0,1,3.1,2.17c.78.71,1.53,1.45,2.27,2.21.92,1,1.81,1.93,2.73,2.89a22.42,22.42,0,0,0,2.54,2.33,11.77,11.77,0,0,0,4.68,2.32,1.31,1.31,0,0,1,.21.1s0,.09-.07.09a13.76,13.76,0,0,1-4.08.65,8,8,0,0,1-3.34-.74,11.46,11.46,0,0,1-4.68-4,11,11,0,0,1-1.24-2.64c-.2-.59-.39-1.18-.6-1.77a11.66,11.66,0,0,0-2-3.58c-.07-.08-.12-.18-.26-.38"/><path class="cls-1" d="M76.87,95.56c0-.13,0-.26,0-.39a11.18,11.18,0,0,1,3.67-8.5,7.17,7.17,0,0,1,2.57-1.48,19.26,19.26,0,0,1,3.29-.8c1.36-.23,2.74-.38,4.09-.69l.12,0a1.46,1.46,0,0,1-.34.53,13.15,13.15,0,0,1-1.88,1.85A30.7,30.7,0,0,1,85.69,88c-.7.44-1.38.88-2.08,1.31a21.41,21.41,0,0,0-5.91,5.35l-.72.92Z"/><path class="cls-1" d="M77.45,96.31a2.3,2.3,0,0,1,.12-.23,27.24,27.24,0,0,1,3.57-4,20.83,20.83,0,0,1,2.68-2l2.71-1.73A23,23,0,0,0,89,86.57a13.61,13.61,0,0,0,1.83-1.81c.08-.1.13-.24.33-.27,0,.15,0,.3-.05.45a10.85,10.85,0,0,1-.86,2.35,23.52,23.52,0,0,1-4,5.81,10,10,0,0,1-5.41,3.05,13.24,13.24,0,0,1-3.2.23s-.07,0-.17-.07"/><path class="cls-1" d="M73.12,53.49c.23.2.4.33.55.47a9.5,9.5,0,0,1,1.68,2.17,22.77,22.77,0,0,1,1.26,2.58c.5,1.14,1,2.29,1.53,3.42A10,10,0,0,0,79.27,64a7.44,7.44,0,0,0,2.41,2.09l.31.17s0,.1-.06.1a6.87,6.87,0,0,1-2.06.37,3.63,3.63,0,0,1-2.1-.63,5.36,5.36,0,0,1-1.87-2.21,11.37,11.37,0,0,1-.81-2.62c-.2-1-.38-2.07-.57-3.11a15.37,15.37,0,0,0-1.38-4.39s0-.07,0-.25"/><path class="cls-1" d="M214.66,81.78a.59.59,0,0,0-.48-.58c-.19,0-.37-.14-.55-.19a.87.87,0,0,0-1.12.58c-.06.17-.09.34-.14.52a.71.71,0,0,1-.34-.6,6.23,6.23,0,0,0-.16-1,3.25,3.25,0,0,1,.07-1.28,2.06,2.06,0,0,1,1.39-1.53,1.34,1.34,0,0,1,.4-.07.78.78,0,0,1,.75.36c.33.48.54.57,1.08.4a1.09,1.09,0,0,1,.78.1.44.44,0,0,1,.27.37,1.84,1.84,0,0,1,0,.52,6.73,6.73,0,0,1-.21,1,1.2,1.2,0,0,1-.8.92,5.8,5.8,0,0,0-1,.55"/><path class="cls-1" d="M197.91,72.45a4.45,4.45,0,0,1-1.46,2,1.93,1.93,0,0,1-2.2.12.69.69,0,0,1-.39-.77.74.74,0,0,0-.51-.92.85.85,0,0,1-.22-.09c-.41-.32-.52-.65-.21-1a2.18,2.18,0,0,1,.36-.38,5.08,5.08,0,0,1,.68-.46,5.51,5.51,0,0,1,3.14-.53c-.18.12-.34.22-.49.34-.3.24-.33.4-.16.76a4.4,4.4,0,0,0,.31.56.83.83,0,0,0,.79.4l.36,0"/><path class="cls-1" d="M214.35,84.65c.26-.05.45-.07.63-.12a1.44,1.44,0,0,0,.48-.2.41.41,0,0,0,.19-.5,1.89,1.89,0,0,1-.08-.4.9.9,0,0,0-.52-.87,5.51,5.51,0,0,1,2.45-1,2.65,2.65,0,0,1,.69,0,1,1,0,0,1,.43.28.48.48,0,0,1,.06.6.85.85,0,0,0,.14,1.2.81.81,0,0,1,0,1.28,2.53,2.53,0,0,1-1.43.61,3.17,3.17,0,0,1-1.72-.22c-.34-.15-.67-.32-1-.49a1.72,1.72,0,0,1-.28-.19"/><path class="cls-1" d="M198.73,72.55c.11.15.18.26.27.36a.69.69,0,0,0,.89.21c.16-.07.32-.16.47-.24.37-.18.37-.19.48-.65l.8.38a.84.84,0,0,1,.44.37,4,4,0,0,1,.56,1.4,1.94,1.94,0,0,1,0,.59.73.73,0,0,1-.67.63.48.48,0,0,1-.17,0,.88.88,0,0,0-1,.57.69.69,0,0,1-.68.37,1.33,1.33,0,0,1-.85-.33,1.88,1.88,0,0,1-.65-1.09,5.24,5.24,0,0,1,.13-2.57"/><path class="cls-1" d="M212.18,88.59a7.53,7.53,0,0,1,.16-2.67c.11.16.2.31.31.44a.68.68,0,0,0,.85.17l.47-.23c.4-.21.4-.21.47-.68l.76.37a.87.87,0,0,1,.43.3,3.48,3.48,0,0,1,.65,1.79c0,.67-.28,1-.95.93a.86.86,0,0,0-.87.46.83.83,0,0,1-1.13.42,1.66,1.66,0,0,1-.89-.8c-.1-.17-.18-.35-.27-.52Z"/><path class="cls-1" d="M200.68,43l-1.08.23c-.08-.52-.16-1-.24-1.55a.83.83,0,0,1,.95,0,.78.78,0,0,1,.39.73,5.53,5.53,0,0,1,0,.56"/><path class="cls-1" d="M193.48,42c-.11.38-.21.75-.33,1.14l-1.4-.29A.75.75,0,0,1,192,42a.73.73,0,0,1,.8-.18,4.56,4.56,0,0,0,.72.15"/><path class="cls-1" d="M198,40.62h-.51c.33-.17.33-.17.51,0"/><path class="cls-1" d="M212.37,85a.42.42,0,0,1,0,.19s-.08.07-.12.1,0,0,0,0,0-.09,0-.11a.81.81,0,0,1,.13-.15"/><path class="cls-1" d="M213.88,84.53c.08,0,.14,0,.18,0s.05.09.07.13-.1,0-.14,0-.06-.07-.11-.13"/><path class="cls-1" d="M214.6,82.31l0,.16s0,0,0,0,0-.11.08-.16"/><path class="cls-1" d="M198.79,71.57a1.07,1.07,0,0,1-.07.19s-.06,0-.09,0a.23.23,0,0,1,0,0l.12-.17,0,0"/><path class="cls-1" d="M196.86,40.84l-.08.06,0,0,.08,0,0,0"/><path class="cls-1" d="M198.37,68.2l-.26-.12h0l.24.13Z"/><path class="cls-1" d="M201,69s0-.06,0-.09,0,0,0,0a.08.08,0,0,0,0,0h0"/><path class="cls-1" d="M196.7,69.61l.06.06,0,0a.07.07,0,0,1,0-.05Z"/><path class="cls-1" d="M85.42,53.35s0-.07,0-.1l0,.09h0"/><path class="cls-1" d="M170.29,110.38l-1.36,5-.09.06-1-.27a2.07,2.07,0,0,1-.3-.12c.59-2.33,1.21-4.62,1.81-6.92a3.71,3.71,0,0,1,.14-.39l.48.11,1.09.29c0,.15.1.3.14.45.42,1.58.85,3.16,1.27,4.74,0,.15.1.29.19.54.5-1.69.86-3.3,1.33-4.92a8.29,8.29,0,0,1,1.39.34,2.84,2.84,0,0,1,0,.35c-.57,2.19-1.15,4.38-1.72,6.57,0,.13-.08.25-.13.4a11,11,0,0,1-1.48-.35,1.67,1.67,0,0,1-.23-.62c-.43-1.58-.85-3.16-1.28-4.74,0-.13-.09-.25-.18-.5"/><path class="cls-1" d="M125.49,110.39a1.66,1.66,0,0,1,1.08,1.47c.05.27.12.54.16.8a1.36,1.36,0,0,0,.44.87s0,.07,0,.11a4.84,4.84,0,0,1-1.64.37,1.18,1.18,0,0,1-.32-.66c-.1-.36-.17-.72-.25-1.08-.2-.89-.47-1.06-1.37-.91l-1.4.28a1.77,1.77,0,0,0,0,.4c.11.67.25,1.34.37,2,0,.15,0,.31.06.48a8.2,8.2,0,0,1-1.44.3,1.52,1.52,0,0,1-.2-.67q-.57-3.06-1.13-6.1c0-.21-.07-.42-.1-.64a5.1,5.1,0,0,1,1.22-.28c.79-.16,1.58-.3,2.36-.43a4.64,4.64,0,0,1,.64-.07,2.13,2.13,0,0,1,2,3,5.09,5.09,0,0,1-.53.77m-3.52,0,1.72-.33a2,2,0,0,0,.49-.16.79.79,0,0,0,.45-.82,2.39,2.39,0,0,0-.13-.51.77.77,0,0,0-.77-.51,3.79,3.79,0,0,0-.58,0l-1.09.2-.48.13a17.7,17.7,0,0,0,.39,1.95"/><path class="cls-1" d="M118.46,113.05a3.21,3.21,0,0,1-.25,1.37,3.08,3.08,0,0,1-1.65,1.73,5,5,0,0,1-1.64.43A3.16,3.16,0,0,1,112,115.2a5.29,5.29,0,0,1-.93-2.38,4.05,4.05,0,0,1,0-1.39,3.14,3.14,0,0,1,1.82-2.49,4.92,4.92,0,0,1,1.92-.46,3.11,3.11,0,0,1,2.52,1.15,3.79,3.79,0,0,1,.46.67,5.88,5.88,0,0,1,.7,2.75m-5.87-1a4.42,4.42,0,0,0,.6,2.07,2.75,2.75,0,0,0,.48.59,1.83,1.83,0,0,0,1.92.35,1.78,1.78,0,0,0,1.22-1.44,3,3,0,0,0,0-1.11,4.06,4.06,0,0,0-.62-1.69,1.93,1.93,0,0,0-3.58.84c0,.11,0,.23,0,.39"/><path class="cls-1" d="M155.71,113.06a1.14,1.14,0,0,1,0-.25c.32-2.39.64-4.78,1-7.14a.6.6,0,0,1,.54-.07l2,.28,1,.16a2.73,2.73,0,0,1,2.38,2.59,5.73,5.73,0,0,1-.45,3,3.67,3.67,0,0,1-.7,1.07,2.6,2.6,0,0,1-2,.89,4.52,4.52,0,0,1-.52,0l-2.72-.38a5.27,5.27,0,0,1-.52-.1m1.66-1.09a15.57,15.57,0,0,0,1.85.2,1.42,1.42,0,0,0,1-.51,2.48,2.48,0,0,0,.51-.91,4.85,4.85,0,0,0,.23-2.07,1.32,1.32,0,0,0-1.16-1.34c-.53-.11-1.08-.15-1.62-.23a.56.56,0,0,0-.15.07c-.23,1.54-.45,3.11-.67,4.79"/><path class="cls-1" d="M182.07,114.77a7.32,7.32,0,0,1-.42,1.19,3.44,3.44,0,0,1-.41-.11l-2.53-.92-.51-.18a13.7,13.7,0,0,0-.64,1.76c.15.07.28.15.42.2,1,.36,1.94.71,2.9,1.08a1,1,0,0,1,.55.28,8.71,8.71,0,0,1-.47,1.2c-.92-.29-1.8-.65-2.69-1l-2.66-1c0-.12,0-.22.06-.31.8-2.19,1.61-4.39,2.42-6.58a2,2,0,0,1,.13-.24c.88.26,1.72.61,2.57.92l2.59,1a5.47,5.47,0,0,1-.41,1.26c-.67-.17-1.27-.44-1.89-.66l-1.83-.67a11,11,0,0,0-.59,1.43,3.48,3.48,0,0,0,.45.21l2.52.94c.14,0,.28.12.44.19"/><path class="cls-1" d="M152.34,105.19c.53,0,1,.06,1.55.06,0,.14,0,.23,0,.32-.1,1.6-.2,3.19-.32,4.79a3.72,3.72,0,0,1-.2.91,2.24,2.24,0,0,1-1.94,1.55,4.83,4.83,0,0,1-2.2-.16,2.25,2.25,0,0,1-1.67-2,5.48,5.48,0,0,1-.05-1c.07-1.33.15-2.65.23-4,0-.26,0-.51.07-.75a3.33,3.33,0,0,1,1.58.09.76.76,0,0,1,0,.16l-.27,4.32a3,3,0,0,0,0,1,1,1,0,0,0,.86.85,3.16,3.16,0,0,0,.87,0,1,1,0,0,0,.85-.62,2.29,2.29,0,0,0,.15-.51q.06-.44.09-.87c.08-1.32.16-2.65.25-4a2,2,0,0,1,0-.31"/><path class="cls-1" d="M108.83,113.55c.16.44.3.82.44,1.23-1,.46-2.08.75-3.09,1.19a13.91,13.91,0,0,0,.51,1.5l.52,1.44a6.94,6.94,0,0,1-1.4.54l-.08,0s0,0,0,0-.08-.18-.11-.27l-2.45-6.67a2.29,2.29,0,0,1,.24-.15l4.66-1.72h.15a4.51,4.51,0,0,1,.45,1.18,5.52,5.52,0,0,1-1.13.47l-1.21.44-1.17.44a12.6,12.6,0,0,0,.53,1.57,3,3,0,0,0,.42-.09l2.19-.8.57-.2"/><path class="cls-1" d="M143.41,112.45a8.89,8.89,0,0,1-1.55,0c-.1-2.06-.07-4.1-.12-6.18l-.36,0-1.46,0-.37,0a4.26,4.26,0,0,1-.08-1.29,2.45,2.45,0,0,1,.35,0l3.51,0,1.87,0h.38a5.3,5.3,0,0,1,0,1.32c-.73.08-1.45,0-2.19.07,0,.72,0,1.4,0,2.08s0,1.36,0,2,.05,1.36,0,2.1"/><path class="cls-1" d="M127.81,106c2.07-.27,4.06-.48,6.08-.71a3.65,3.65,0,0,1,.15,1.31c-.7.19-1.44.14-2.17.33.06,1,.23,2.07.33,3.09s.26,2,.34,3a5.38,5.38,0,0,1-1.54.19,7.86,7.86,0,0,1-.22-1.51c-.09-.52-.12-1-.18-1.57s-.13-1-.19-1.51-.1-1-.2-1.51c-.75-.08-1.45.19-2.17.13-.15-.2-.1-.42-.14-.63s-.05-.38-.09-.65"/><path class="cls-1" d="M165.3,106.9c.49,0,.95.19,1.46.26,0,.14,0,.25,0,.36l-.9,4.59-.42,2.13a3.21,3.21,0,0,1-.1.35,6.19,6.19,0,0,1-1.46-.26c0-.07-.06-.11-.05-.14.46-2.37.93-4.75,1.4-7.12a1.47,1.47,0,0,1,.09-.17"/><path class="cls-1" d="M137.4,105.07a.34.34,0,0,1,.07.15l.45,7.12a1.38,1.38,0,0,1,0,.26l-.76.07a2.22,2.22,0,0,1-.73,0c-.14-1.25-.18-2.49-.27-3.73l-.24-3.71a3.72,3.72,0,0,1,1.51-.17"/><path class="cls-1" d="M201,63.22l-.12-.21h0c.15,0,.21.07.12.21Z"/><path class="cls-1" d="M200.86,63a2.56,2.56,0,0,1-.11-.24h0c.15,0,.13.13.1.24h0"/><path class="cls-1" d="M200.74,62.77a.19.19,0,0,0,0-.07l0,0s0,0,0,.05h0"/></g></g></g></svg>