<?xml version="1.0" encoding="UTF-8"?>
<svg id="Camada_2" data-name="Camada 2" xmlns="http://www.w3.org/2000/svg" viewBox="0 0 325.85 144.4">
  <defs>
    <style>
      .cls-1, .cls-2 {
        stroke-width: 0px;
      }

      .cls-2 {
        fill: #fff;
      }
    </style>
  </defs>
  <g id="Camada_1-2" data-name="Camada 1">
    <g>
      <g>
        <path class="cls-1" d="m295.63,98.85c-1.16,1.16-2.71,1.8-4.35,1.8-3.4,0-6.16-2.77-6.16-6.16s2.76-6.16,6.16-6.16c1.63,0,3.16.63,4.33,1.78l.16.16,2.81-5.96-.11-.08c-2.12-1.5-4.61-2.29-7.21-2.29-6.9,0-12.51,5.61-12.51,12.51s5.61,12.51,12.51,12.51c2.59,0,5.08-.79,7.2-2.29l.11-.08-2.77-5.88-.16.16Z"/>
        <path class="cls-1" d="m313.36,81.96c-6.89,0-12.49,5.6-12.49,12.49s5.6,12.49,12.49,12.49,12.49-5.6,12.49-12.49-5.6-12.49-12.49-12.49m.03,18.7c-3.39,0-6.15-2.76-6.15-6.15s2.76-6.15,6.15-6.15,6.15,2.76,6.15,6.15-2.76,6.15-6.15,6.15"/>
        <path class="cls-1" d="m176.73,82.71v12.91c0,1.05.1,2.68,1.31,3.78.52.47,1.47,1.1,3.15,1.1,1.42,0,2.52-.47,3.2-1.1,1.1-1.05,1.26-2.63,1.26-3.78v-12.91h7.56v13.65c0,2.68-.26,5.2-2.63,7.51-2.68,2.62-6.61,3.04-9.4,3.04s-6.77-.42-9.45-3.04c-2.15-2.1-2.57-4.46-2.57-7.03v-14.12h7.56Z"/>
        <path class="cls-1" d="m199.09,82.71h7.56v2.78c2.31-2.94,5.04-3.41,7.24-3.41,2.05,0,4.72.37,6.72,2.36,2.2,2.2,2.36,4.99,2.36,6.88v14.8h-7.56v-12.02c0-1.52-.05-3.46-1.26-4.67-.58-.58-1.52-1.05-2.89-1.05-1.58,0-2.57.63-3.15,1.26-1.26,1.26-1.47,2.94-1.47,4.46v12.02h-7.56v-23.41Z"/>
        <path class="cls-1" d="m252.85,95.72h-17.48c0,1.26.47,2.94,1.42,3.99,1.16,1.26,2.73,1.47,3.88,1.47s2.26-.21,3.05-.68c.1-.05,1-.63,1.63-1.94l7.14.73c-1.05,3.31-3.15,5.04-4.51,5.88-2.26,1.36-4.78,1.73-7.4,1.73-3.52,0-6.61-.63-9.34-3.36-2.05-2.05-3.52-5.14-3.52-9.03,0-3.36,1.21-6.82,3.57-9.24,2.84-2.84,6.35-3.36,8.98-3.36s6.4.47,9.29,3.52c2.78,2.94,3.31,6.61,3.31,9.5v.79Zm-6.98-4.51c-.05-.21-.42-1.68-1.52-2.73-.84-.79-2.05-1.31-3.57-1.31-1.94,0-3.1.79-3.83,1.52-.58.63-1.1,1.47-1.31,2.52h10.24Z"/>
        <path class="cls-1" d="m271.9,88.69c-1.15-.68-2.68-1.31-4.15-1.31-.79,0-1.68.21-2.15.68-.26.26-.47.68-.47,1.05,0,.53.37.84.73,1.05.53.32,1.31.47,2.26.79l1.99.63c1.31.42,2.68.95,3.88,2.05,1.37,1.26,1.84,2.68,1.84,4.46,0,3.1-1.36,5.09-2.41,6.14-2.31,2.31-5.15,2.68-7.61,2.68-3.15,0-6.56-.68-9.61-3.36l3.2-5.09c.73.63,1.79,1.37,2.57,1.73,1.05.53,2.15.74,3.15.74.47,0,1.68,0,2.36-.53.47-.37.79-.95.79-1.52,0-.42-.16-.95-.84-1.36-.52-.32-1.21-.52-2.31-.84l-1.89-.58c-1.37-.42-2.78-1.16-3.78-2.15-1.1-1.16-1.68-2.47-1.68-4.25,0-2.26.89-4.15,2.26-5.41,2.1-1.94,4.93-2.36,7.09-2.36,3.46,0,5.88.89,7.77,1.99l-2.99,4.78Z"/>
        <rect class="cls-1" x="169.17" y="12.51" width="154.18" height="56.25"/>
        <rect class="cls-2" x="227.89" y="51.03" width="36.48" height="1.53"/>
        <rect class="cls-2" x="225.83" y="53.63" width="40.53" height="1.53"/>
        <rect class="cls-2" x="223.92" y="56.23" width="44.43" height="1.53"/>
        <polygon class="cls-2" points="235.27 30.77 246.12 27.51 256.76 30.77 261.2 30.77 246.12 26.1 230.84 30.77 235.27 30.77"/>
        <polygon class="cls-2" points="246.12 23.5 227.89 29.12 227.89 30.77 246.12 25.22 264.37 30.77 264.37 29.12 246.12 23.5"/>
        <path class="cls-2" d="m230.03,49.05s0,1.15,1.3,1.15,1.22-1.15,1.22-1.15v-14.84h-.96v14.88s0,.27-.34.27-.27-.34-.27-.34v-14.8h-.96v14.84Z"/>
        <polygon class="cls-2" points="236.04 50.2 236.8 50.2 236.8 40.59 237.76 50.2 238.56 50.2 238.56 34.21 237.76 34.21 237.76 42.76 236.8 34.21 236.04 34.21 236.04 50.2"/>
        <polygon class="cls-2" points="242.12 50.2 244.56 50.2 244.56 49.36 243.19 49.36 243.19 42.13 244.22 42.13 244.22 41.25 243.19 41.25 243.19 35.02 244.22 35.02 244.22 34.21 242.12 34.21 242.12 50.2"/>
        <path class="cls-2" d="m256.19,38.96v-3.59s-.04-1.15-1.26-1.15-1.22,1.15-1.22,1.15v13.69s-.04,1.15,1.22,1.15,1.26-1.15,1.26-1.15v-4.02h-.96v4.02s0,.31-.31.31c-.29,0-.35-.31-.35-.31v-13.69s0-.34.35-.34c.31,0,.31.34.31.34v3.59h.96Z"/>
        <path class="cls-2" d="m261.35,49.05s.04.31-.35.31-.38-.31-.38-.31v-13.69s0-.34.34-.34c.38,0,.38.34.38.34v13.69Zm.92-13.69s.08-1.15-1.26-1.15-1.34,1.15-1.34,1.15v13.69s0,1.15,1.26,1.15c1.34,0,1.34-1.15,1.34-1.15v-13.69Z"/>
        <path class="cls-2" d="m249.19,49.05s0,.31-.25.29c-.25-.02-.25-.29-.25-.29v-4.02h-.99v4.02s-.04,1.15,1.22,1.15,1.26-1.15,1.26-1.15c0,0,0-2.68,0-3.46,0-1.88-1.49-5.45-1.49-6.63v-3.6s-.04-.34.23-.34.27.34.27.34v3.59h.99v-3.59s.04-1.19-1.22-1.15c-1.26.04-1.26,1.15-1.26,1.15v3.06c0,2.01,1.49,5.39,1.49,6.94v3.69Z"/>
        <rect class="cls-2" x="227.89" y="31.75" width="36.48" height="1.53"/>
        <path class="cls-1" d="m176.91,124.63c-.05-1.22-.12-2.69-.11-3.97h-.04c-.3,1.15-.67,2.43-1.08,3.62l-1.32,4.09h-1.28l-1.21-4.04c-.35-1.21-.67-2.5-.92-3.67h-.03c-.04,1.23-.09,2.73-.16,4.02l-.2,3.8h-1.55l.61-9.45h2.18l1.19,3.8c.32,1.11.61,2.23.83,3.28h.04c.24-1.02.55-2.19.9-3.29l1.25-3.79h2.15l.52,9.45h-1.61l-.18-3.85Z"/>
        <path class="cls-1" d="m181.34,125.55c.04,1.23.97,1.77,2.02,1.77.77,0,1.32-.11,1.82-.31l.24,1.19c-.57.24-1.35.42-2.29.42-2.13,0-3.38-1.36-3.38-3.45,0-1.89,1.1-3.67,3.2-3.67s2.83,1.82,2.83,3.32c0,.32-.03.57-.05.73h-4.39Zm2.88-1.21c.01-.63-.26-1.67-1.36-1.67-1.02,0-1.45.97-1.52,1.67h2.88Z"/>
        <path class="cls-1" d="m186.94,123.69c0-.78-.01-1.44-.05-2.03h1.43l.07,1.01h.04c.32-.53.92-1.16,2.02-1.16.86,0,1.53.51,1.82,1.26h.03c.23-.38.5-.66.81-.85.36-.27.78-.41,1.32-.41,1.09,0,2.19.77,2.19,2.96v4.02h-1.62v-3.77c0-1.14-.38-1.81-1.17-1.81-.56,0-.98.42-1.16.91-.04.17-.08.38-.08.57v4.09h-1.62v-3.95c0-.95-.36-1.63-1.13-1.63-.62,0-1.04.51-1.19.98-.07.17-.09.36-.09.56v4.04h-1.62v-4.8Z"/>
        <path class="cls-1" d="m173.89,139.45c0-.78-.01-4.95-.05-5.54h1.43l.07,4.52h.04c.32-.53,1.15-1.16,2.25-1.16,2.14,0,2.14,2.69,2.14,2.89v4.09h-1.62v-3.95c0-.95-.36-1.63-1.13-1.63-.62,0-1.27.51-1.42.98-.07.17-.09.36-.09.56v4.04h-1.62v-4.8Z"/>
        <path class="cls-1" d="m198.07,128.48c.03-.46.05-1.22.05-1.92v-8.03h1.66v4.06h.03c.4-.66,1.12-1.09,2.1-1.09,1.6,0,2.75,1.39,2.73,3.46,0,2.45-1.49,3.67-2.97,3.67-.85,0-1.6-.34-2.07-1.18h-.03l-.08,1.02h-1.41Zm1.71-2.82c0,.14.01.28.04.41.18.69.75,1.21,1.47,1.21,1.04,0,1.67-.87,1.67-2.24,0-1.21-.55-2.19-1.66-2.19-.67,0-1.28.5-1.47,1.26-.03.13-.05.28-.05.45v1.11Z"/>
        <path class="cls-1" d="m207.03,125.55c.04,1.23.97,1.77,2.02,1.77.77,0,1.32-.11,1.82-.31l.24,1.19c-.57.24-1.35.42-2.29.42-2.13,0-3.38-1.36-3.38-3.45,0-1.89,1.1-3.67,3.2-3.67s2.83,1.82,2.83,3.32c0,.32-.03.57-.05.73h-4.39Zm2.88-1.21c.01-.63-.26-1.67-1.36-1.67-1.02,0-1.45.97-1.52,1.67h2.88Z"/>
        <path class="cls-1" d="m212.62,123.86c0-.93-.01-1.58-.05-2.2h1.44l.05,1.3h.05c.32-.97,1.09-1.46,1.79-1.46.16,0,.26.01.39.04v1.63c-.13-.03-.28-.06-.48-.06-.79,0-1.33.53-1.48,1.31-.03.15-.05.34-.05.53v3.53h-1.66v-4.63Z"/>
        <path class="cls-1" d="m226.19,125.01c0,2.51-1.7,3.63-3.36,3.63-1.86,0-3.28-1.33-3.28-3.52s1.41-3.62,3.39-3.62,3.26,1.43,3.26,3.51m-4.94.07c0,1.32.62,2.31,1.63,2.31.94,0,1.6-.97,1.6-2.34,0-1.07-.46-2.29-1.59-2.29s-1.64,1.18-1.64,2.31"/>
        <path class="cls-1" d="m227.53,128.48v-5.54h-.89v-1.29h.89v-.29c0-.88.23-1.77.79-2.33.48-.48,1.14-.66,1.71-.66.44,0,.79.07,1.06.17l-.12,1.33c-.18-.07-.4-.13-.7-.13-.82,0-1.1.72-1.1,1.56v.35h1.44v1.29h-1.43v5.54h-1.66Z"/>
        <path class="cls-1" d="m197.67,143.97c-.39.21-1.25.42-2.34.42-2.88,0-4.63-1.88-4.63-4.75,0-3.11,2.07-4.99,4.84-4.99,1.09,0,1.87.24,2.21.42l-.36,1.37c-.43-.2-1.02-.36-1.78-.36-1.84,0-3.18,1.21-3.18,3.48,0,2.07,1.17,3.41,3.16,3.41.67,0,1.37-.14,1.8-.35l.27,1.36Z"/>
        <path class="cls-1" d="m198.66,139.62c0-.93-.01-1.58-.05-2.2h1.44l.05,1.3h.05c.32-.97,1.09-1.46,1.79-1.46.16,0,.26.01.39.04v1.63c-.13-.03-.28-.06-.48-.06-.79,0-1.33.53-1.48,1.31-.03.15-.05.34-.05.53v3.53h-1.66v-4.63Z"/>
        <path class="cls-1" d="m204.39,141.32c.04,1.23.97,1.77,2.02,1.77.77,0,1.32-.11,1.82-.31l.24,1.19c-.57.24-1.35.42-2.29.42-2.13,0-3.38-1.36-3.38-3.45,0-1.89,1.1-3.67,3.2-3.67s2.83,1.82,2.83,3.32c0,.32-.03.57-.05.73h-4.39Zm2.88-1.21c.01-.63-.26-1.67-1.36-1.67-1.02,0-1.45.97-1.52,1.67h2.88Z"/>
        <path class="cls-1" d="m182.8,141.32c.04,1.23.97,1.77,2.02,1.77.77,0,1.32-.11,1.82-.31l.24,1.19c-.57.24-1.35.42-2.29.42-2.13,0-3.38-1.36-3.38-3.45,0-1.89,1.1-3.67,3.2-3.67s2.83,1.82,2.83,3.32c0,.32-.03.57-.05.73h-4.39Zm2.88-1.21c.01-.63-.26-1.67-1.36-1.67-1.02,0-1.45.97-1.52,1.67h2.88Z"/>
        <path class="cls-1" d="m213.65,144.25l-.11-.76h-.04c-.4.53-1.09.91-1.94.91-1.32,0-2.06-.99-2.06-2.03,0-1.72,1.47-2.59,3.89-2.58v-.11c0-.45-.18-1.19-1.33-1.19-.65,0-1.32.21-1.76.51l-.32-1.12c.48-.31,1.33-.6,2.37-.6,2.1,0,2.71,1.39,2.71,2.87v2.47c0,.62.03,1.22.09,1.64h-1.49Zm-.22-3.34c-1.17-.03-2.29.24-2.29,1.28,0,.67.42.98.94.98.66,0,1.14-.45,1.29-.94.04-.13.05-.27.05-.38v-.94Z"/>
        <path class="cls-1" d="m218.4,135.47v1.95h1.57v1.29h-1.57v3.01c0,.83.22,1.26.85,1.26.28,0,.5-.04.65-.08l.03,1.32c-.24.1-.67.17-1.2.17-.61,0-1.12-.21-1.43-.56-.35-.39-.51-1.01-.51-1.91v-3.21h-.94v-1.29h.94v-1.54l1.62-.41Z"/>
        <path class="cls-1" d="m171.26,135.47v1.95h1.57v1.29h-1.57v3.01c0,.83.22,1.26.85,1.26.28,0,.5-.04.65-.08l.03,1.32c-.24.1-.67.17-1.2.17-.61,0-1.12-.21-1.43-.56-.35-.39-.51-1.01-.51-1.91v-3.21h-.94v-1.29h.94v-1.54l1.62-.41Z"/>
        <path class="cls-1" d="m222.69,135.51c0,.52-.36.92-.94.92s-.92-.41-.92-.92.38-.94.93-.94.92.41.93.94m-1.76,1.91h1.67v6.83h-1.67v-6.83Z"/>
        <path class="cls-1" d="m225.22,137.42l1.06,3.46c.19.6.32,1.15.44,1.71h.04c.12-.56.27-1.09.44-1.71l1.04-3.46h1.75l-2.5,6.83h-1.63l-2.44-6.83h1.79Z"/>
        <path class="cls-1" d="m231.76,141.32c.04,1.23.97,1.77,2.02,1.77.77,0,1.32-.11,1.82-.31l.24,1.19c-.57.24-1.35.42-2.29.42-2.13,0-3.38-1.36-3.38-3.45,0-1.89,1.1-3.67,3.2-3.67s2.83,1.82,2.83,3.32c0,.32-.03.57-.05.73h-4.39Zm2.88-1.21c.01-.63-.26-1.67-1.36-1.67-1.02,0-1.45.97-1.52,1.67h2.88Z"/>
        <path class="cls-1" d="m246.64,143.97c-.39.21-1.25.42-2.34.42-2.88,0-4.63-1.88-4.63-4.75,0-3.11,2.07-4.99,4.84-4.99,1.09,0,1.87.24,2.21.42l-.36,1.37c-.43-.2-1.02-.36-1.78-.36-1.84,0-3.18,1.21-3.18,3.48,0,2.07,1.17,3.41,3.16,3.41.67,0,1.37-.14,1.8-.35l.27,1.36Z"/>
        <path class="cls-1" d="m249.48,135.51c0,.52-.36.92-.94.92s-.92-.41-.92-.92.38-.94.93-.94.92.41.93.94m-1.76,1.91h1.67v6.83h-1.67v-6.83Z"/>
        <path class="cls-1" d="m252.81,135.47v1.95h1.57v1.29h-1.57v3.01c0,.83.22,1.26.85,1.26.28,0,.5-.04.65-.08l.03,1.32c-.24.1-.67.17-1.2.17-.61,0-1.12-.21-1.43-.56-.35-.39-.51-1.01-.51-1.91v-3.21h-.94v-1.29h.94v-1.54l1.62-.41Z"/>
        <path class="cls-1" d="m257.12,135.51c0,.52-.36.92-.94.92s-.92-.41-.92-.92.38-.94.93-.94.91.41.93.94m-1.76,1.91h1.67v6.83h-1.67v-6.83Z"/>
        <path class="cls-1" d="m259.74,141.32c.04,1.23.97,1.77,2.02,1.77.77,0,1.32-.11,1.82-.31l.24,1.19c-.57.24-1.35.42-2.29.42-2.13,0-3.38-1.36-3.38-3.45,0-1.89,1.1-3.67,3.2-3.67s2.83,1.82,2.83,3.32c0,.32-.03.57-.05.73h-4.39Zm2.88-1.21c.01-.63-.26-1.67-1.36-1.67-1.02,0-1.45.97-1.52,1.67h2.88Z"/>
        <path class="cls-1" d="m265.23,142.66c.38.24,1.09.49,1.68.49.73,0,1.05-.31,1.05-.76s-.27-.7-1.08-.99c-1.28-.46-1.82-1.19-1.8-1.99,0-1.21.96-2.15,2.48-2.15.73,0,1.36.2,1.74.41l-.32,1.22c-.28-.17-.81-.39-1.39-.39s-.92.29-.92.71.31.65,1.14.95c1.18.45,1.74,1.08,1.75,2.09,0,1.23-.93,2.13-2.67,2.13-.79,0-1.51-.2-1.99-.48l.32-1.25Z"/>
        <path class="cls-1" d="m273.53,144.25v-9.45h1.88l2.34,4.05c.61,1.05,1.13,2.14,1.55,3.17h.03c-.11-1.26-.15-2.48-.15-3.92v-3.3h1.53v9.45h-1.71l-2.37-4.15c-.58-1.04-1.19-2.2-1.63-3.27h-.04c.07,1.23.08,2.48.08,4.04v3.38h-1.52Z"/>
        <path class="cls-1" d="m283.57,141.32c.04,1.23.97,1.77,2.02,1.77.77,0,1.32-.11,1.82-.31l.24,1.19c-.56.24-1.35.42-2.29.42-2.13,0-3.38-1.36-3.38-3.45,0-1.89,1.1-3.67,3.2-3.67s2.83,1.82,2.83,3.32c0,.32-.03.57-.05.73h-4.39Zm2.88-1.21c.01-.63-.26-1.67-1.36-1.67-1.02,0-1.45.97-1.52,1.67h2.88Z"/>
        <path class="cls-1" d="m291.07,135.47v1.95h1.57v1.29h-1.57v3.01c0,.83.22,1.26.85,1.26.28,0,.5-.04.65-.08l.03,1.32c-.24.1-.67.17-1.2.17-.61,0-1.12-.21-1.43-.56-.35-.39-.51-1.01-.51-1.91v-3.21h-.94v-1.29h.94v-1.54l1.62-.41Z"/>
        <path class="cls-1" d="m294.92,137.42l.69,3.1c.15.73.3,1.47.42,2.22h.03c.13-.74.35-1.5.54-2.2l.85-3.11h1.35l.82,3.03c.2.8.38,1.54.52,2.29h.03c.11-.74.26-1.49.43-2.29l.73-3.03h1.63l-2.06,6.83h-1.53l-.78-2.78c-.2-.71-.35-1.36-.5-2.19h-.03c-.13.84-.31,1.51-.5,2.19l-.83,2.78h-1.55l-1.94-6.83h1.7Z"/>
        <path class="cls-1" d="m309.88,140.77c0,2.51-1.7,3.63-3.36,3.63-1.86,0-3.28-1.33-3.28-3.52s1.41-3.62,3.39-3.62,3.26,1.43,3.26,3.51m-4.94.07c0,1.32.62,2.31,1.63,2.31.94,0,1.6-.97,1.6-2.34,0-1.07-.46-2.29-1.59-2.29s-1.64,1.18-1.64,2.31"/>
        <path class="cls-1" d="m311.03,139.62c0-.93-.01-1.58-.05-2.2h1.44l.05,1.3h.05c.32-.97,1.09-1.46,1.79-1.46.16,0,.26.01.39.04v1.63c-.13-.03-.28-.06-.48-.06-.8,0-1.33.53-1.48,1.31-.03.15-.05.34-.05.53v3.53h-1.66v-4.63Z"/>
        <path class="cls-1" d="m317.23,140.42h.03c.16-.27.35-.56.53-.8l1.59-2.2h1.99l-2.42,2.79,2.77,4.04h-2.03l-1.88-3.01-.57.69v2.33h-1.66v-9.95h1.66v6.13Z"/>
      </g>
      <g>
        <path class="cls-1" d="m100.8,143.98c-.38-.01-.77-.02-1.15-.04-.39-.02-.91-.44-1.03-.82-.02-.07-.04-.15-.05-.23-.07-.73-.42-1.3-.95-1.78-.16-.14-.14-.16-.05-.61.03-.15.09-.3.09-.45,0-.92,0-1.84-.24-2.75-.06-.21,0-.45.02-.68-.29-.55-.24-1.21-.57-1.75-.08-.13-.14-.28-.16-.43-.04-.31-.16-.59-.3-.87l.12-.67c-.29-.49-.23-1.04-.29-1.57-.02-.23-.09-.45-.17-.67-.1-.29-.24-.57-.36-.85-.13-.29-.17-.59-.12-.9-.12-.6-.3-1.18-.24-1.81.07-.69-.07-1.38-.35-2.03-.15-.35-.22-.74-.36-1.1-.17-.44-.23-.89-.26-1.35-.01-.19-.13-.29-.23-.25-.06.02-.13.11-.14.17-.13.68-.46,1.31-.54,2-.06.54-.34,1.02-.55,1.52-.12.28-.28.55-.31.86-.05.55-.26,1.04-.49,1.53-.23.49-.42.99-.56,1.51-.12.44-.32.87-.51,1.28-.2.43-.32.87-.35,1.33-.06.85-.44,1.63-.55,2.48-.04.3-.21.57-.33.86-.22.57-.4,1.16-.52,1.77-.13.68-.45,1.31-.52,2-.28.65-.33,1.34-.39,2.03-.03.31-.18.58-.48.74-.07.04-.13.08-.21.1-.32.09-.53.29-.61.62-.02.07-.06.14-.1.21-.16.3-.44.44-.75.47-.38.03-.77.02-1.15,0-.14-.01-.3-.11-.4-.21-.29-.27-.46-.62-.47-1.02-.01-.46-.02-.92.19-1.36.1-.21.19-.43.2-.66.06-1.01.4-1.96.52-2.95.08-.7.32-1.34.68-1.95.16-.27.23-.57.26-.88.03-.38.07-.77.1-1.15.4-.92.59-1.91.92-2.85.05-.14.15-.27.25-.38.32-.36.52-.76.56-1.24.03-.31.08-.61.22-.89.19-.42.36-.85.54-1.28.13-.3.09-.6-.04-.89-.1-.22-.12-.44-.03-.67.14-.36.21-.74.26-1.12.02-.22.09-.46.19-.66.53-1.11.9-2.29,1.47-3.38.25-.47.47-.97.63-1.49.27-.9.75-1.68,1.18-2.5.11-.21.29-.36.49-.48.13-.08.27-.15.42-.18.61-.12,1.23-.08,1.84-.06.26.01.63.3.69.54.07.3.09.61.18.9.16.51.31,1.03.47,1.54.16.51.44.98.68,1.46.31.62.6,1.25.68,1.95.03.31.2.58.34.86.37.77.57,1.59.85,2.39.08.22.12.45.14.68.05.7.46,1.31.46,2.02,0,.94.36,1.8.53,2.71.34.62.32,1.35.58,1.99.18.43.3.87.32,1.34.02.38.07.77.21,1.13.11.29.2.59.21.9.02.94.38,1.8.7,2.67.21.58.43,1.16.74,1.69.16.28.2.57.15.89-.02.16.05.29.12.43.16.36.17.74.14,1.13-.02.24-.12.45-.28.62-.26.29-.59.5-1,.52-.38.02-1.16.03-1.16.04Z"/>
        <path class="cls-1" d="m70.65,115.61c1.11-.01,2.58-.03,4.04-.05.15,0,.31-.02.46-.03.38-.04.73-.27,1.13-.21.38.06.74.19,1.12.26.3.06.61.06.92.1.24.03.43.17.56.36.39.58.59,1.24.85,1.88.03.07.05.17.02.22-.27.55-.23,1.22-.68,1.7-.05.05-.08.13-.13.19-.21.25-.22.54-.21.86,0,.46-.24.88-.32,1.34-.01.07-.09.12-.14.18-.05.05-.11.11-.17.14-.64.26-.97.72-.96,1.43,0,.08,0,.15-.02.23-.05.33-.16.5-.52.7-.27.16-.51.34-.67.61-.23.4-.48.79-.64,1.23-.05.14-.11.29-.22.4-.7.75-.99,1.73-1.5,2.59-.04.07-.07.14-.09.21-.26,1.31-.99,2.42-1.62,3.56-.45.81-.8,1.67-1.24,2.48-.44.81-1.07,1.51-1.44,2.37-.24.57-.74.98-1.01,1.54-.01.03.04.11.09.14.06.04.14.07.22.07,2.23.02,4.47.04,6.7.05.54,0,1.08-.04,1.62-.04.48,0,.91.1,1.19.56.12.2.31.33.52.44.3.15.44.41.53.71.05.15.13.28.16.43.03.15.07.31.03.45-.08.29-.2.59-.34.85-.06.12-.24.24-.36.25-.92.03-1.85.05-2.76.14-.3.03-.61.09-.91.17-.24.06-.45.02-.67-.03-.15-.03-.3-.07-.45-.06-.38.02-.76.11-1.14.1-.38,0-.76-.12-1.14-.16-.92-.08-1.84-.15-2.77-.07-.84.08-1.69.1-2.54.1-.48,0-.9.11-1.33.3-.2.09-.45.08-.68.09-.44.02-.77-.24-.83-.62-.17-1-.17-1.99-.02-2.99.02-.15.07-.3.15-.43.29-.45.59-.9.85-1.37.26-.47.64-.87.87-1.36.06-.13.19-.24.3-.35.29-.27.47-.61.62-.97.12-.28.25-.57.31-.87.1-.46.25-.9.46-1.31.49-.96.9-1.96,1.49-2.87.38-.58.55-1.28,1.03-1.8.1-.11.15-.27.2-.41.41-1.28,1.14-2.34,2.1-3.26.13-.12.16-.26.12-.43-.02-.07-.03-.16,0-.23.13-.36.22-.75.46-1.04.49-.59.92-1.24,1.53-1.72.18-.14.35-.32.41-.55.25-.91.7-1.7,1.28-2.43.12-.15.1-.29-.03-.37-.13-.09-.28-.1-.44-.07-.75.17-1.49.37-2.19.72-.22.11-.44.03-.66-.07-.14-.07-.28-.15-.43-.17-.69-.08-1.36-.23-2.04-.4-.07-.02-.15-.02-.23-.03-.46-.02-.92-.02-1.35.22-.2.11-.44.2-.65.2-.92-.03-1.85.04-2.76-.13-.15-.03-.3-.12-.34-.28-.24-.82-.29-1.66-.16-2.5.02-.14.13-.3.25-.37.46-.29.93-.54,1.5-.54,1.46,0,2.93,0,4.74,0Z"/>
        <path class="cls-1" d="m90.38,12.53c.02,1.54.06,3.09.06,4.63,0,.69-.06,1.39-.07,2.08,0,.38.05.77.07,1.15.36.97.26,1.98.3,2.97.02.62,0,1.23-.03,1.85,0,.23-.08.45-.14.67-.06.23-.02.45.05.68.12.42-.03.76-.35,1.03-.3.26-.62.45-1.04.28-.07-.03-.15-.05-.22-.06-.56-.07-1.01-.37-1.43-.71-.32-.25-.5-.59-.51-1-.03-1.93-.09-3.85-.02-5.78.02-.7.07-1.38.26-2.06.09-.31-.03-1.38-.17-1.8-.1-.3-.17-.59-.15-.9.04-.46.08-.92.09-1.39,0-.46-.06-.92-.26-1.35-.24-.51-.25-1.06-.07-1.58.23-.67.34-1.34.27-2.05-.03-.31,0-.62.15-.9.07-.15.11-.29.05-.43-.13-.29-.16-.59-.17-.9-.03-.85-.07-1.7-.1-2.54,0-.31-.04-.61-.15-.91-.18-.49,0-.91.26-1.3.08-.12.2-.27.33-.31.8-.27,1.57-.62,2.44-.64.62-.01,1.22-.13,1.81-.34.28-.1.61-.11.91-.12.62,0,1.23.01,1.85.03.15,0,.31.02.46.06.52.13,1.06.24,1.56.43.5.19,1.01.39,1.48.64.61.32,1.18.73,1.75,1.13.38.27.69.61.9,1.04.24.48.48.96.72,1.45.14.28.21.58.2.89-.01,1.08-.03,2.16-.06,3.24,0,.23-.02.46-.13.68-.03.07-.06.14-.09.22-.75,2.13-.47,1.71-2.14,3.49-.42.45-.87.88-1.3,1.32-.24.24-.29.55-.15.83.14.27.28.55.43.82.11.2.26.38.37.59.56,1.1,1.12,2.2,1.87,3.19.14.18.23.4.33.61.27.56.59,1.09.96,1.58.29.38.42.82.63,1.23.18.84.6,1.58,1,2.32.06.11.01.3,0,.45,0,.07-.04.15-.09.21-.28.37-.56.74-.84,1.1-.21.27-.7.35-1.06.19-.42-.19-.83-.41-1.21-.68-.19-.14-.33-.31-.43-.52-.07-.14-.11-.29-.2-.41-.24-.3-.49-.59-.75-.88-.82-.91-.99-1.18-1.53-2.54-.08-.21-.16-.45-.31-.62-.31-.36-.52-.76-.72-1.18-.36-.77-.78-1.51-1.25-2.21-.22-.33-.34-.69-.33-1.09,0-.41-.12-.76-.4-1.05-.27-.28-.47-.6-.63-.96-.22-.49-.48-.97-.89-1.34-.37-.34-.47-.78-.58-1.23-.09-.36.18-.83.51-.9.07-.01.15-.05.22-.05,1.11-.04,2.11-.42,3.06-.95.21-.11.38-.26.53-.44.24-.3.5-.59.74-.89.29-.36.52-.76.66-1.21.2-.66.46-1.31.6-1.99.16-.23.06-.45-.08-.63-.18-.25-.4-.47-.6-.71-.15-.18-.31-.35-.52-.44-.5-.21-.95-.51-1.47-.68-.51-.18-.96-.47-1.37-.84-.23-.21-.53-.31-.85-.33-.31-.02-.62-.04-.92-.04-.15,0-.32.01-.45.07-.42.18-.85.37-1.25.59-.28.15-.43.42-.45.75,0,.15-.01.31-.01.46.02,2.31.04,4.63.06,6.94,0,0-.02,0-.03,0Z"/>
        <path class="cls-1" d="m64.97,13.52c0-.93,0-1.7,0-2.47,0-.38.02-.77.05-1.15.03-.4.19-.74.46-1.03.05-.06.12-.1.16-.16.14-.18.29-.36.3-.61.05-.94.36-1.8.74-2.65.16-.35.35-.68.49-1.04.27-.68.69-1.19,1.42-1.39.14-.04.27-.14.4-.22.27-.16.49-.36.64-.64.11-.2.27-.37.43-.54.22-.23.49-.38.81-.4.61-.03,1.23-.02,1.85-.04.31,0,.62,0,.92-.07.32-.07.6,0,.9.06.37.09.76.12,1.14.19.15.03.3.1.41.2.91.83,1.82,1.67,2.7,2.52.56.54,1,1.16,1.33,1.87.36.77.67,1.55.69,2.42,0,.39.16.75.31,1.1.09.21.12.46.04.68-.13.38-.13.73,0,1.12.1.28.13.6.14.91.02.62,0,1.23.02,1.85.03,1.85-.07,3.69-.03,5.54,0,.31-.02.62-.1.92-.21.75-.27,1.51-.31,2.28-.03.54-.17,1.05-.44,1.54-.15.27-.29.54-.43.81-.47.91-1.14,1.63-2,2.18-.71.46-1.42.92-2.11,1.4-.39.27-.81.41-1.27.51-.38.08-.75.13-1.13.04-.37-.1-.76-.13-1.13-.24-.96-.29-1.88-.68-2.84-.96-.25-.18-.53-.33-.73-.55-.46-.51-1.53-2.1-1.8-2.67-.26-.55-.45-1.14-.72-1.7-.24-.49-.4-1-.41-1.55-.01-.39-.13-.76-.25-1.12-.12-.37-.2-.75-.16-1.14.06-.55-.05-1.06-.27-1.57-.09-.21-.12-.45-.12-.67-.04-1.23-.07-2.46-.09-3.54Zm12.95,3.66s0,0,0,0c0-.92-.01-1.85,0-2.77.01-.7-.03-1.38-.32-2.03-.04-.7-.29-1.35-.52-2-.18-.51-.37-1.02-.43-1.55-.08-.7-.4-1.32-.57-1.99-.07-.3-.28-.54-.49-.77-.48-.51-1.01-.94-1.7-1.13-.29-.08-.57-.24-.86-.32-.29-.08-.6-.13-.91-.05-.07.02-.15.04-.21.08-.06.04-.13.09-.17.15-.38.58-.88,1.06-1.33,1.59-.05.06-.1.12-.14.18-.12.2-.24.39-.33.6-.18.42-.34.85-.5,1.29-.05.14-.09.3-.1.45-.04.46-.07.92-.11,1.38-.03.38-.02.78-.1,1.15-.1.45-.19.9-.13,1.36-.2,1.38-.19,2.75.09,4.12.14.68.1,1.38.11,2.07,0,.38.03.77.07,1.15.04.38.24.73.17,1.13-.07.4.21.73.27,1.11.08.61.45,1.14.56,1.75.04.23.2.41.36.58.54.59,1.27.86,2.01,1.04.52.13,1.07.12,1.61.05.15-.02.31-.05.44-.13.47-.27.94-.53,1.27-.98.32-.43.67-.84,1.01-1.26.34-.43.55-.9.67-1.45.17-.83.36-1.64.31-2.5-.04-.77,0-1.54,0-2.31Z"/>
        <path class="cls-1" d="m52.01,21.76c.02.78.04,2.09-.07,2.85-.04.3-.04.62,0,.92.1,1-.03,2-.04,3,0,.24-.13.45-.31.59-.43.32-.88.62-1.42.75-.16.04-.3.08-.44.01-.42-.2-.86-.33-1.23-.62-.25-.2-.43-.44-.51-.75-.14-.53-.24-1.06-.06-1.59.05-.16.09-.3.03-.44-.12-.29-.17-.59-.17-.9-.02-1.7-.05-3.93-.07-5.62.2-1.15-.05-2.3.11-3.45.07-.53.03-1.08-.02-1.62-.09-1.08-.1-2.15,0-3.23.07-.77.04-1.54.04-2.31,0-.39.08-.76.21-1.13.16-.44.2-.9.17-1.37-.1-1.85,0-3.7.01-5.55,0-.15.03-.31.07-.46.11-.4.38-.67.75-.82.13-.05.32-.06.45,0,.44.16.89.25,1.36.25.23,0,.46.02.69.01,1.31-.08,2.62-.03,3.93.05,1.39.08,2.77.03,4.16.02.62,0,1.23,0,1.85.02.42.01.89.41,1,.83.02.07.04.16.02.23-.13.44-.26.88-.41,1.32-.02.07-.08.13-.14.18-.35.31-.74.56-1.21.61-.38.04-.77.02-1.15.02-.24,0-.46.07-.66.17-.15.08-.28.12-.44.07-.45-.14-.91-.19-1.37-.18-1.39.02-2.77,0-4.16-.03-.15,0-.3.04-.46.06-.18.03-.44.29-.44.46-.08,2.16-.12,4.31-.04,6.47.01.31.44.72.77.75.23.02.46.05.69.04,1.08-.03,2.16.02,3.21-.28.38,0,.77-.04,1.15-.01.48.03.88.24,1.2.62.15.18.25.4.28.62.04.3.03.61.04.92,0,.25-.12.45-.33.55-.27.14-.55.28-.77.5-.35.35-.8.45-1.27.45-1.54.01-3.08.01-4.62.02-.12.1-.24.18-.34.29-.04.05-.04.14-.04.22-.06,1.31-.07,2.62,0,3.93.05.85.08,1.69.02,2.53Z"/>
        <path class="cls-1" d="m84.42,65.22c.07-.54.19-1.06.39-1.57.2-.5.46-.97.56-1.51.1-.53.41-.99.44-1.55.02-.22.15-.43.25-.64.34-.7.67-1.39.7-2.18.21-.74.4-1.49.7-2.19.34-.78.62-1.57.8-2.4.06-.29.3-.55.29-.87,0-.88.33-1.65.75-2.39.08-.13.16-.26.21-.41.31-.87.51-1.77.86-2.63.06-.14.06-.3.09-.45.04-.23.03-.48.14-.67.26-.48.32-1.03.53-1.52.18-.42.36-.85.52-1.28.08-.22.06-.45-.04-.67-.13-.29-.14-.58-.01-.89.29-.72.63-1.41,1.03-2.07.08-.13.18-.25.28-.37.21-.24.48-.39.79-.43.61-.08,1.23-.08,1.84.03.14.03.32.12.38.23.32.62.61,1.25.89,1.88.09.21.14.44.18.67.13.76.57,1.44.54,2.23.31.62.43,1.31.69,1.95.47,1.14.92,2.28,1.25,3.47.1.37.23.73.24,1.12.02.7.1,1.38.39,2.03.06.14.09.3.09.45-.02,1.1.42,2.1.71,3.14.12.44.24.89.42,1.31.15.36.24.73.37,1.09.18.51.37,1.01.42,1.56.27.81.44,1.63.54,2.47.34.72.33,1.5.37,2.26.01.31.03.62.17.9.13.26.02.45-.13.62-.2.23-.43.44-.65.65-.24.22-.78.25-1.08.04-.38-.26-.75-.54-1.13-.81-.06-.04-.12-.1-.17-.15-.05-.06-.1-.12-.12-.19-.14-.44-.24-.89-.48-1.29-.07-.13-.14-.29-.14-.44,0-.79-.39-1.49-.56-2.23-.09-.38-.13-.74-.15-1.13-.02-.3-.15-.6-.22-.89-.11-.45-.43-.82-.48-1.29-.05-.46-.16-.91-.34-1.34-.03-.07-.06-.15-.07-.22-.06-1.1-.45-2.1-.86-3.1-.12-.29-.12-.6-.16-.9-.04-.3-.13-.6-.2-.9.1-.4-.06-.75-.17-1.12-.08-.29-.09-.61-.16-.91-.05-.22-.13-.44-.22-.66-.15-.36-.21-.74-.19-1.13.03-.62-.04-1.23-.28-1.81-.18-.43-.2-.9-.23-1.36-.01-.18-.05-.32-.14-.34-.03,0-.11.11-.13.17-.16.43-.35.86-.46,1.3-.11.45-.26.88-.45,1.31-.07.61-.2,1.21-.45,1.78q-.59,2.45-1.28,4.42c-.1.29-.17.59-.29.88-.18.43-.31.86-.38,1.33-.11.76-.4,1.48-.56,2.24-.11.52-.36,1.01-.5,1.53-.11.44-.32.87-.53,1.28-.5.96-.85,1.98-1.21,2.99-.03.07-.03.15-.06.22-.41,1.17-.56,1.42-1.42,2.34-.11.11-.21.23-.33.32-.19.13-.42.23-.65.15-.44-.15-.86-.32-1.29-.49-.22-.08-.49-.53-.46-.75,0-.08.01-.15.01-.23Z"/>
        <path class="cls-1" d="m73.64,57.39c.09-.91.04-1.76.02-2.61-.02-1.31,0-2.62.02-3.93,0-.62,0-1.23-.22-1.83-.11-.29-.11-.61-.11-.91,0-.93.02-1.85-.1-2.77-.07-.54.01-1.08.03-1.62,0-.46-.02-.92-.03-1.39,0-.2-.19-.42-.42-.49-.3-.09-.6-.15-.88-.27-.23-.09-.45-.1-.67-.02-.43.16-.91.19-1.31.44-.14.08-.29.13-.44.1-.6-.13-1.2-.24-1.79-.41-.21-.06-.41-.24-.44-.49-.05-.38-.15-.74-.25-1.11-.02-.07.01-.16.05-.22.25-.53.65-.86,1.24-.9.62-.04,1.23-.04,1.85-.07.23-.01.47-.04.68-.12.31-.12.61-.02.91-.04.31-.02.6-.12.91-.16.15-.02.31.01.46.01.39,0,.73.28,1.13.22.38-.06.75-.18,1.12-.25.23-.04.46-.04.69-.04.93.01,1.85.02,2.78.05.23,0,.47.02.68.09.99.31,1.98.23,2.97,0,.24-.06.44.1.6.27.34.36.45.79.34,1.28-.04.16-.1.29-.22.4-.41.35-.93.54-1.38.83-.13.08-.27.15-.41.2-.14.05-.3.08-.45.09-1.16.08-2.31.05-3.47.03-.23,0-.46.03-.67.13-.15.07-.24.2-.29.34-.02.07-.04.15-.04.23.01,1.08.01,2.16.29,3.22.12.45.14.91.15,1.38.01,1.47.03,2.93.01,4.4,0,1.31-.01,2.62.03,3.93.05,1.7.04,3.39.09,5.09.02.69-.03,1.2.23,1.87.05.14.04.31.02.46-.07.53-.23,1.05-.23,1.6,0,.46-.01.93-.04,1.39,0,.15-.04.31-.11.44-.07.13-.18.26-.31.32-.42.19-.9.29-1.32.29s-.76-.25-1-.58c-.38-.51-.59-1.08-.59-1.72,0-1.7,0-3.2,0-4.9,0-.77-.04-1.54-.06-2.25Z"/>
        <path class="cls-1" d="m103.3,86.86c-.01.55-.03,1.63-.07,2.71-.04,1.23,0,2.47.09,3.7.02.23.07.46.12.68.04.16.05.3,0,.45-.2.68-.18,1.37-.18,2.06-.02,2.31-.08,4.62,0,6.93,0,.23-.01.46-.02.69-.02.4-.49.89-.91.92-1.23.08-2.46.19-3.67-.15-.24-.07-.45-.02-.68.04-.23.06-.45.05-.68,0-.14-.04-.32-.07-.45-.02-.37.14-.74.18-1.13.17-.77,0-1.54.01-2.31.02-.77,0-1.54-.06-2.31.04-.31.04-.61-.06-.89-.2-.14-.07-.29-.08-.44-.02-.39.15-.74.06-1.11-.1-.51-.23-1.05-.23-1.56.02-.29.15-.57.2-.88.08-.21-.08-.44-.16-.66-.2-.38-.07-.77-.09-1.14.05-.3.12-.59.11-.9,0-.14-.05-.3-.07-.45-.07-.54-.02-1.08-.03-1.62-.05-.31-.01-.62.04-.9.17-.36.17-.73.24-1.12.24-.69-.01-1.39.03-2.03-.31-.38-.04-.77-.08-1.15-.1-.38-.02-.77-.01-1.15-.03-.43-.01-.94-.39-1.04-.79-.07-.3-.08-.61-.22-.89-.17-.36-.21-.73-.22-1.12-.01-.85-.03-1.69-.06-2.54-.02-.48.09-.91.31-1.33.11-.2.07-.44-.04-.66-.1-.21-.17-.43-.19-.66-.07-.7-.04-1.39.15-2.06.13-.45.21-.9.2-1.36-.01-.54-.01-1.08-.02-1.62,0-.31-.07-.61-.18-.9-.2-.52-.16-1.06-.15-1.6,0-.24.09-.45.18-.66.08-.22.16-.43.16-.67,0-.38.03-.77.04-1.15.03-2,.06-4.01.1-6.01,0-.23.02-.48.12-.67.26-.49.32-1.02.35-1.56.02-.23.17-.42.4-.52.21-.09.42-.19.63-.29.47.12.91-.11,1.36-.14,1.46-.07,2.93-.11,4.39-.04.34.02.74.34.83.7.06.22.12.45.13.67.03,1,.08,2,.02,3-.01.23.05.46.07.68.02.15.33.42.48.45.54.1,1.07.05,1.61,0,.22-.02.41-.25.37-.46-.12-.54-.1-1.05.11-1.58.14-.35.12-.76.21-1.13.05-.22.19-.4.41-.52.35-.19.68-.35,1.09-.21.07.02.16.03.22,0,.6-.2,1.21-.19,1.83-.19.85,0,1.69-.03,2.54-.03.31,0,.6.1.85.31.26.22.41.52.29.81-.26.67-.3,1.35-.24,2.04.03.31.2.58.42.8.33.32,1.13.32,1.5,0,.13-.1.21-.24.23-.39.04-.46.07-.92.08-1.38.03-.77.04-1.54.06-2.31.02-.56.6-1.13,1.22-1.19.08,0,.15-.02.23-.03,1.77-.06,3.54-.07,5.32-.05.24,0,.47.07.63.24.38.38.75.77,1.11,1.18.09.11.16.28.16.42.05,1.54.1,3.08.13,4.62.02.85,0,1.7,0,3.07Zm-6.98,15.01c1.1-.03,2.33-.05,3.56-.09.26,0,.57-.36.56-.63-.01-.23.01-.48-.06-.69-.16-.45-.14-.9-.16-1.36-.21-.52-.15-1.07-.16-1.6-.04-1.54-.05-3.09-.06-4.63,0-.46.01-.93.04-1.39.03-.46.03-.92-.02-1.38-.09-.84,0-1.69.05-2.54,0-.08.02-.15.06-.22.17-.37.13-.72.04-1.11-.16-.68-.18-1.38.1-2.05.13-.31.09-.6-.05-.89-.19-.38-.13-.74.08-1.09.17-.28.21-.6.1-.89-.15-.44-.3-.87-.44-1.31-.04-.13-.2-.21-.31-.32-.69-.09-1.38-.1-2.06.03-.14.03-.29.12-.4.22-.17.15-.31.33-.2.6.22.52.27,1.06.06,1.58-.2.51-.31,1.03-.35,1.57-.02.23-.12.45-.28.62-.31.34-.56.73-.84,1.1-.09.12-.26.14-.42.11-.22-.05-.42-.24-.65-.14-.53.24-1.03.23-1.56-.03-.2-.1-.45-.12-.67-.14-.31-.03-.62-.02-.92-.03-.25,0-.43-.16-.62-.29-.06-.04-.12-.1-.18-.15-.42-.37-.69-.82-.7-1.4-.01-.46,0-.93-.12-1.38-.04-.14-.17-.25-.25-.38-.52-.12-1.02-.32-1.55-.43-.15-.03-.3.06-.35.23-.16.6-.14,1.21-.13,1.83,0,.31.04.62.01.92-.05.47-.29.87-.61,1.21-.04.04-.13.06-.2.05-.3-.05-.6-.15-.9-.02-.75.31-1.51.27-2.27.07-.45-.12-.89-.23-1.36-.22-.31,0-.62,0-.93,0-.15,0-.31-.03-.46-.04-.27-.02-.57-.33-.59-.61-.04-1-.08-2-.11-3-.01-.39-.09-.76-.22-1.13-.1-.29-.15-.6-.26-.88-.05-.13-.2-.26-.33-.3-.37-.1-.76-.11-1.14,0-.35.11-.72.52-.74.82-.01.15-.04.31-.04.46-.01,1.16,0,2.32-.04,3.47-.05,1.62-.09,3.24.02,4.86.02.31-.04.61-.18.9-.14.28-.23.57-.24.88,0,.54-.03,1.08-.02,1.62,0,.38.03.77.17,1.14.09.23.08.45,0,.67-.11.3-.16.61-.06.91.27.75.35,1.5.11,2.27-.05.15-.03.3,0,.45.06.22.11.45.13.68.03.54.03,1.08.05,1.62,0,.15.03.31.05.46.01.16.3.43.46.45.91.12,1.86-.03,2.73.4.31.03.61.07.92.08,1.54.02,3.09.04,4.63.03,1.54,0,3.08-.01,4.63.03.39,0,.76.07,1.13.19.22.07.45.13.67.14,1.23.04,2.47.06,3.84.09Z"/>
        <path class="cls-1" d="m57.96,91.59c.02,1.31,0,2.62.07,3.93.06,1.08,0,2.16-.04,3.23-.01.38-.07.76-.21,1.13-.16.45-.14.91-.08,1.37.03.19.35.4.51.39.38-.02.74-.24,1.13-.17.4.07.75-.11,1.13-.18.31-.05.62-.05.91.07.44.17.88.26,1.35.26.46,0,.92.01,1.38.05.69.05,1.38.07,2.08.03.46-.03.92-.01,1.38,0,.39.01.76.1,1.12.26.21.1.43.18.63.28.22.1.37.27.48.48.07.13.05.28,0,.44-.05.15-.03.3.06.44.09.15.07.29-.03.43-.37.52-.83.9-1.46,1.06-.15.04-.29.11-.44.16-.45.14-.92.17-1.36,0-.59-.21-1.18-.34-1.81-.25-.3.04-.62.03-.92,0-.63-.06-1.23-.04-1.79.28-.21.12-.45.11-.67.14-.77.09-1.54.06-2.31.02-.46-.02-.92-.03-1.38-.06-.15-.01-.31-.05-.44-.12-.42-.23-.86-.31-1.34-.23-.15.02-.31,0-.46-.02-.24-.03-.43-.17-.57-.36-.18-.25-.3-.53-.35-.84.16-.37.02-.75.04-1.13.29-.68.1-1.37.05-2.05-.27-.9-.29-1.82-.29-2.75,0-.92-.03-1.85-.04-2.77,0-.39-.03-.77-.13-1.14-.06-.22-.08-.45-.01-.68.15-.52.13-1.07.15-1.61.01-.46-.01-.92,0-1.38,0-.15.04-.3.08-.45.04-.15.15-.28.16-.43,0-.15-.09-.29-.12-.44-.13-.61.03-1.23-.07-1.84.06-.38.1-.76.17-1.14.03-.16.06-.3.02-.45-.22-.75-.25-1.52-.22-2.29.01-.25-.12-.44-.23-.64-.2-.36-.19-.74-.15-1.12.02-.15.05-.31.11-.45.24-.57.2-1.22.5-1.77.16-.3.06-.38-.06-.67-.06-.14-.1-.29-.14-.44-.07-.28.13-.64.41-.74.07-.03.14-.06.22-.07.63-.1,1.22-.01,1.76.35.2.14.34.33.39.55.12.6.14,1.01.35,1.59.06.69.13,1.38.16,2.07.02.47.09.91.24,1.36.07.21.11.45.12.68.03.46.06.92.05,1.38-.02,2.08-.06,4.16-.09,6.24,0,0-.02,0-.02,0Z"/>
        <path class="cls-1" d="m83.52,93.51c.23-.48.45-.98.71-1.45.3-.55.73-.99,1.3-1.27.69-.34,1.39-.66,2.07-1.02.49-.26.98-.42,1.54-.39.38.02.77,0,1.15.02.23,0,.45.04.67.14.69.33,1.43.6,2.04,1.07.56.43,1.17.74,1.78,1.06.48.25.96.48,1.45.72.14.07.28.13.43.17.23.06.48.07.68-.03.48-.23,1.01-.39,1.29-.92.07-.13.2-.24.33-.31.87-.49,1.77-.92,2.68-1.34.14-.06.3-.09.45-.09.69-.01,1.38-.02,2.08-.01.23,0,.46.02.67.13.62.32,1.35.32,1.94.7.55.07,1.04.26,1.43.67.11.11.24.21.37.27.63.28.83.87,1.04,1.45.03.07.03.15.03.23-.01.24-.09.47-.28.6-.25.17-.53.31-.81.44-.44.2-.91.2-1.35.05-.36-.12-.71-.29-1.04-.49-.61-.35-1.34-.35-1.94-.7-.12-.07-.3-.07-.45-.07-.38,0-.77-.01-1.15,0-.23,0-.46.05-.67.15-.48.24-.96.48-1.44.72-.2.1-.43.19-.59.35-.56.55-1.34.75-1.89,1.3-.15.16-.41.21-.64.21-.38,0-.77.01-1.15.02-.31,0-.6-.08-.88-.22-.48-.24-.98-.45-1.34-.87-.05-.06-.11-.11-.16-.16-.28-.27-.54-.55-.84-.79-.24-.19-.54-.3-.79-.46-.19-.12-.36-.29-.55-.42-.19-.14-.39-.24-.62-.28-.37-.08-.74-.19-1.11-.28-.06-.01-.15.03-.22.07-.36.17-.74.18-1.13.21-.24.02-.47.09-.64.24-.63.57-1.45.87-2.08,1.43-.12.1-.27.14-.43.14-.38,0-.77,0-1.15-.02-.15,0-.29-.09-.43-.16-.28-.14-.42-.52-.31-.77Z"/>
        <path class="cls-1" d="m94.01,75.17c-.31,0-.62,0-.92,0-.4,0-.75-.15-1.04-.41-.17-.15-.34-.31-.5-.47-.28-.28-.61-.46-1-.52-.15-.02-.3-.08-.43-.15-.13-.07-.26-.17-.36-.28-.35-.42-.59-.91-.71-1.43-.13-.52-.16-1.09.07-1.59.23-.5.31-1.02.37-1.56.04-.32.22-.58.47-.76.44-.31.93-.53,1.33-.9.34-.31.81-.44,1.22-.63.28-.13.6-.13.91-.12.47,0,.9-.11,1.33-.31.46-.21.9-.12,1.28.21.29.25.6.47.96.63.28.13.55.32.66.62.2.52.61.88.88,1.34.08.13.14.28.15.43.03.54.03,1.07.05,1.61.01.39-.09.76-.26,1.11-.1.2-.17.43-.21.65-.08.49-.39.82-.73,1.14-.11.11-.23.22-.36.28-.5.23-.91.57-1.34.89-.18.14-.42.2-.65.2-.38,0-.77,0-1.15,0,0,0,0,0,0,.01Zm.41-6.01c.1,0,.02,0-.06,0-.31.02-.6.11-.83.33-.33.32-.65.64-.98.97-.14.14-.15.42-.04.63.15.26.24.58.54.71.36.16.76.16,1.12.03.43-.16.82-.4,1.23-.61.24-.12.33-.46.22-.79-.05-.14-.1-.29-.14-.43-.02-.07-.03-.15-.05-.22-.12-.43-.35-.6-1-.61Z"/>
        <g>
          <path class="cls-1" d="m5.51,42.62c.44.17.85.41,1.23.74l-1.08,1.28c-.26-.19-.51-.34-.75-.44-.24-.1-.5-.15-.77-.15-.55,0-.98.24-1.28.71-.31.47-.46,1.19-.46,2.14s.16,1.67.47,2.13c.31.47.75.7,1.3.7.3,0,.58-.06.83-.18.25-.12.53-.3.83-.53l1.02,1.3c-.34.34-.75.62-1.23.84-.48.22-.99.32-1.55.32-.82,0-1.54-.18-2.15-.53-.61-.35-1.08-.87-1.42-1.56-.33-.69-.5-1.51-.5-2.49s.17-1.76.51-2.44c.34-.68.81-1.2,1.42-1.56.61-.36,1.3-.54,2.09-.54.55,0,1.04.08,1.48.25Z"/>
          <path class="cls-1" d="m12.87,42.6v8.67h-2.31v-8.67h2.31Z"/>
          <path class="cls-1" d="m23.39,42.6l-.24,1.76h-2.04v6.91h-2.31v-6.91h-2.17v-1.76h6.76Z"/>
          <path class="cls-1" d="m34.08,42.6l-2.77,5.44v3.23h-2.31v-3.22l-2.77-5.45h2.52l1.43,3.68,1.45-3.68h2.44Z"/>
          <path class="cls-1" d="m50.02,43.57c.7.8,1.05,1.92,1.05,3.35,0,.94-.16,1.75-.47,2.44-.31.69-.77,1.21-1.36,1.58-.6.37-1.31.55-2.14.55-1.26,0-2.23-.4-2.92-1.2s-1.04-1.92-1.04-3.37c0-.94.16-1.75.47-2.43.31-.68.76-1.21,1.36-1.57.59-.37,1.31-.55,2.14-.55,1.26,0,2.23.4,2.93,1.2Zm-4.12,1.13c-.25.45-.38,1.19-.38,2.22s.13,1.77.39,2.23c.26.45.65.68,1.18.68s.95-.22,1.2-.67c.25-.45.37-1.19.37-2.23s-.12-1.77-.37-2.22c-.25-.45-.65-.67-1.2-.67s-.94.22-1.19.67Z"/>
          <path class="cls-1" d="m55.07,51.26v-8.67h5.32l-.24,1.63h-2.78v2.08h2.44v1.63h-2.44v3.32h-2.31Z"/>
          <path class="cls-1" d="m10.29,56.9c.83.62,1.25,1.74,1.25,3.37,0,2.91-1.46,4.36-4.38,4.36h-2.77v-8.67h2.59c1.37,0,2.47.31,3.3.93Zm-3.59.72v5.37h.6c.63,0,1.1-.2,1.4-.6.3-.4.46-1.11.46-2.12,0-.7-.07-1.24-.22-1.63-.15-.39-.35-.65-.62-.8-.27-.15-.61-.22-1.03-.22h-.59Z"/>
          <path class="cls-1" d="m21.05,55.97l-.24,1.63h-2.95v1.84h2.58v1.58h-2.58v1.97h3.15v1.63h-5.46v-8.67h5.5Z"/>
          <path class="cls-1" d="m29.68,56.04c.5.19.95.48,1.35.86l-1.04,1.22c-.6-.47-1.23-.71-1.88-.71-.34,0-.6.06-.78.19s-.27.31-.27.54c0,.17.05.3.14.41s.25.21.46.31c.22.1.56.22,1.02.37.89.28,1.54.64,1.95,1.07.41.43.62,1.02.62,1.78,0,.55-.14,1.03-.42,1.45-.28.42-.69.75-1.23.98-.54.23-1.17.35-1.89.35-1.38,0-2.51-.42-3.38-1.26l1.13-1.26c.69.57,1.41.85,2.16.85.39,0,.69-.09.91-.26.22-.17.32-.4.32-.68,0-.2-.04-.36-.12-.49-.08-.13-.23-.24-.44-.35-.21-.1-.52-.22-.93-.34-.98-.31-1.67-.68-2.07-1.11-.4-.43-.6-.98-.6-1.63,0-.52.14-.97.42-1.36.28-.39.67-.69,1.16-.9s1.05-.32,1.66-.32c.66,0,1.24.1,1.74.29Z"/>
          <path class="cls-1" d="m37.49,55.97v8.67h-2.31v-8.67h2.31Z"/>
          <path class="cls-1" d="m48.74,56.85l-1.13,1.18c-.32-.22-.6-.39-.85-.49-.25-.1-.54-.16-.87-.16-.62,0-1.11.24-1.47.72-.35.48-.53,1.22-.53,2.21,0,.72.06,1.29.17,1.71.12.42.29.72.53.9.24.18.54.27.92.27s.71-.08,1.02-.24v-1.78h-.98l-.22-1.58h3.44v4.31c-.45.3-.96.53-1.52.7-.57.17-1.12.25-1.67.25-2.71,0-4.06-1.52-4.06-4.56,0-.95.18-1.76.56-2.45.37-.69.87-1.21,1.51-1.57.64-.36,1.37-.54,2.18-.54,1.15,0,2.15.37,2.98,1.1Z"/>
          <path class="cls-1" d="m59.78,64.64h-2.91l-2.19-6.52.04.26c.08.57.15,1.11.19,1.61.05.5.07,1.07.07,1.71v2.93h-2.04v-8.67h2.84l2.27,6.55c-.1-.62-.18-1.18-.23-1.68s-.08-1.07-.08-1.72v-3.14h2.04v8.67Z"/>
        </g>
      </g>
    </g>
  </g>
</svg>