<?xml version="1.0" encoding="UTF-8"?>
<svg id="Camada_2" data-name="Camada 2" xmlns="http://www.w3.org/2000/svg" viewBox="0 0 347.64 161.72">
  <defs>
    <style>
      .cls-1 {
        stroke-width: 0px;
      }
    </style>
  </defs>
  <g id="Camada_1-2" data-name="Camada 1">
    <g>
      <path class="cls-1" d="m152.01,59.49c1.48.87,3.18,1.31,4.9,1.26,1.15,0,2.3-.13,3.42-.36,1.08-.21,2.13-.5,3.16-.88l-.47-1.23c-1.03.36-2.09.66-3.16.88-.86.19-1.74.3-2.62.31-1.51.04-3-.35-4.29-1.14-1.22-.79-2.16-1.94-2.71-3.29-.66-1.63-.97-3.37-.93-5.13-.05-1.76.31-3.5,1.05-5.1.66-1.37,1.73-2.5,3.07-3.23,1.5-.78,3.16-1.16,4.85-1.11,1.49-.04,2.97.19,4.38.67l.38-1.39c-1.54-.41-3.13-.63-4.73-.64-1.96-.06-3.91.38-5.65,1.28-1.55.84-2.81,2.14-3.58,3.73-.86,1.84-1.28,3.87-1.23,5.9-.05,1.98.31,3.96,1.07,5.79.63,1.51,1.71,2.79,3.1,3.66Z"/>
      <path class="cls-1" d="m187.78,49.8h-.01v-8.98h3.9c1.31-.12,2.62.27,3.67,1.06.9.89,1.37,2.14,1.26,3.41.09,1.28-.43,2.52-1.39,3.36-1.11.82-2.48,1.23-3.86,1.15h-1.08s6.95,10.65,6.95,10.65h1.84l-6.25-9.41c.99-.13,1.93-.47,2.78-1,.78-.5,1.42-1.19,1.85-2.01.45-.88.68-1.86.66-2.85.03-1.08-.22-2.15-.72-3.1-.47-.84-1.2-1.51-2.07-1.92-1.01-.46-2.1-.68-3.21-.65h-5.76v20.95h1.45v-10.65Z"/>
      <path class="cls-1" d="m166.66,83.37h-.01v-8.97h3.9c1.31-.12,2.62.27,3.67,1.06.9.89,1.37,2.14,1.26,3.41.09,1.28-.43,2.52-1.39,3.36-1.11.82-2.48,1.23-3.86,1.15h-1.08s6.96,10.65,6.96,10.65h1.85l-6.27-9.42c.99-.13,1.93-.47,2.78-1,.78-.5,1.42-1.19,1.85-2.01.45-.88.68-1.86.66-2.85.03-1.08-.22-2.15-.72-3.1-.48-.84-1.2-1.51-2.07-1.92-1.01-.46-2.1-.68-3.2-.65h-5.76v20.94h1.45v-10.65Z"/>
      <path class="cls-1" d="m259.25,83.37h-.01v-8.97h3.9c1.31-.12,2.62.27,3.67,1.06.91.89,1.37,2.14,1.26,3.41.09,1.28-.43,2.52-1.39,3.36-1.11.82-2.48,1.23-3.86,1.15h-1.08s6.95,10.65,6.95,10.65h1.84l-6.25-9.42c.99-.13,1.93-.47,2.78-1,.78-.5,1.42-1.19,1.85-2.01.45-.88.68-1.86.66-2.85.03-1.08-.22-2.14-.72-3.1-.47-.84-1.2-1.51-2.07-1.92-1.01-.46-2.1-.68-3.21-.65h-5.76v20.94h1.45v-10.65Z"/>
      <polygon class="cls-1" points="207.19 60.45 208.63 60.45 208.63 40.83 214.67 40.83 214.67 39.5 201.15 39.5 201.15 40.83 207.19 40.83 207.19 60.45"/>
      <path class="cls-1" d="m205.16,94.18c1.1.03,2.19-.21,3.17-.7.86-.45,1.56-1.15,2-2.01.48-.96.71-2.02.69-3.09.03-.95-.22-1.89-.73-2.69-.46-.7-1.07-1.3-1.77-1.75-.88-.54-1.8-1.03-2.75-1.46-.96-.45-1.72-.84-2.28-1.17-.54-.32-1.02-.74-1.4-1.24-.38-.52-.58-1.15-.56-1.79-.1-1.25.45-2.47,1.47-3.21,1.11-.71,2.41-1.06,3.73-1.01.48,0,.96.03,1.44.1.39.07.83.17,1.32.29l.32.09.37-1.26c-1.13-.36-2.31-.54-3.49-.54-1.72-.09-3.41.41-4.81,1.41-1.25,1.05-1.92,2.64-1.8,4.27-.03.85.22,1.68.69,2.38.45.64,1.03,1.19,1.69,1.61.86.52,1.74.99,2.65,1.4,1.01.48,1.82.9,2.42,1.26.59.35,1.1.81,1.5,1.36.41.57.62,1.26.61,1.96.06,1.19-.31,2.37-1.05,3.31-.87.9-2.09,1.36-3.34,1.25-.82,0-1.63-.1-2.42-.3-1-.27-1.98-.62-2.93-1.06l-.37,1.3c.94.42,1.92.75,2.92,1,.88.2,1.79.3,2.7.3Z"/>
      <rect class="cls-1" x="215.56" y="73.08" width="1.39" height="20.94"/>
      <polygon class="cls-1" points="222.33 73.08 222.33 94.02 232.17 94.02 232.17 92.71 223.77 92.71 223.77 73.08 222.33 73.08"/>
      <polygon class="cls-1" points="246.3 94.02 246.3 92.71 237.47 92.71 237.47 84.12 244.92 84.12 244.92 82.81 237.47 82.81 237.47 74.41 245.83 74.41 245.83 73.08 236.03 73.08 236.03 94.02 246.3 94.02"/>
      <rect class="cls-1" x="251.04" y="73.08" width="1.39" height="20.94"/>
      <path class="cls-1" d="m162.68,122.9c-.9.3-1.81.54-2.74.72-.74.15-1.5.24-2.26.25-1.07.03-2.12-.23-3.05-.76-.85-.52-1.52-1.29-1.92-2.21-.47-1.11-.69-2.31-.66-3.51-.03-1.22.24-2.43.79-3.52.51-.96,1.31-1.74,2.28-2.23,1.12-.54,2.36-.8,3.6-.77.66,0,1.32.04,1.98.14.55.07,1.1.2,1.63.39l1.16-4.16c-.8-.21-1.62-.36-2.44-.47-.76-.11-1.53-.16-2.29-.17-2.13-.06-4.24.38-6.17,1.28-1.66.81-3.03,2.11-3.91,3.73-.94,1.82-1.4,3.85-1.35,5.9-.06,1.99.35,3.98,1.18,5.79.73,1.55,1.93,2.83,3.42,3.66,1.67.88,3.53,1.31,5.41,1.25,2.15.03,4.28-.34,6.3-1.1l-.96-4.21Z"/>
      <rect class="cls-1" x="167.39" y="106.96" width="4.56" height="20.95"/>
      <path class="cls-1" d="m176.8,106.96v20.97s7.83-.03,7.83-.03c1.96.03,3.89-.42,5.63-1.31,1.59-.84,2.91-2.13,3.77-3.72.92-1.75,1.38-3.71,1.34-5.69,0-3.46-.88-6.03-2.65-7.71-1.77-1.68-4.39-2.52-7.87-2.52h-8.05Zm12.39,5.4c1.1,1.39,1.64,3.14,1.5,4.91.03,1.26-.21,2.52-.71,3.67-.43.97-1.15,1.78-2.07,2.32-.99.55-2.12.83-3.25.8h-3.28v-13.26l3.4-.03c1.63-.14,3.24.45,4.4,1.59Z"/>
      <path class="cls-1" d="m227.93,106.96h-8.05v20.97s7.83-.03,7.83-.03c1.96.03,3.89-.42,5.63-1.31,1.6-.84,2.91-2.13,3.77-3.72.92-1.75,1.38-3.71,1.34-5.69,0-3.46-.88-6.03-2.65-7.71-1.77-1.68-4.39-2.52-7.87-2.52Zm5.84,10.31c.03,1.26-.21,2.52-.71,3.67-.43.97-1.15,1.78-2.07,2.32-.99.55-2.12.83-3.25.8h-3.27v-13.26l3.4-.03c1.63-.14,3.24.45,4.4,1.59,1.1,1.39,1.63,3.14,1.49,4.91Z"/>
      <polygon class="cls-1" points="254.04 110.66 254.04 106.96 241.94 106.96 241.94 127.91 254.5 127.91 254.5 124.23 246.53 124.23 246.53 119.19 253.13 119.19 253.13 115.45 246.53 115.45 246.53 110.66 254.04 110.66"/>
      <path class="cls-1" d="m267.71,127.41c1.09-.49,2.01-1.3,2.63-2.32.62-1.08.94-2.31.91-3.55.05-1.14-.27-2.26-.9-3.21-.55-.8-1.28-1.46-2.13-1.93-.99-.52-2.01-.97-3.07-1.35-.73-.27-1.29-.5-1.68-.68-.35-.16-.68-.37-.96-.63-.24-.22-.38-.53-.38-.86-.04-.66.31-1.28.9-1.58.65-.35,1.38-.52,2.11-.5.64-.01,1.28.05,1.9.19.58.14,1.14.32,1.69.54l.37.13,1.39-3.9c-.86-.36-1.75-.63-2.66-.83-.95-.2-1.91-.3-2.88-.29-1.31-.01-2.61.22-3.83.69-1.14.43-2.13,1.18-2.86,2.16-.76,1.07-1.14,2.36-1.1,3.67-.04,1.07.28,2.13.91,2.99.58.77,1.32,1.39,2.18,1.83,1.04.52,2.12.97,3.22,1.35.82.3,1.45.55,1.88.74.4.16.77.39,1.09.68.27.23.43.57.43.93.02.64-.28,1.24-.8,1.61-.77.47-1.66.68-2.56.61-.82,0-1.64-.1-2.44-.32-1-.31-1.97-.7-2.91-1.18l-1.53,4.08c1.16.55,2.36,1,3.6,1.34,1.09.27,2.2.41,3.33.41,1.43.04,2.84-.24,4.15-.81Z"/>
      <rect class="cls-1" x="148.72" y="140.45" width="4.56" height="20.95"/>
      <path class="cls-1" d="m172.67,140.45v10.96c0,.57.02,1.19.04,1.84.03.65.06,1.16.11,1.52h-.06c-.1-.21-.24-.5-.43-.87-.14-.28-.29-.56-.46-.83l-8.53-12.63h-5.21v20.96h4.32v-11.49c0-.6,0-1.23-.03-1.89,0-.43-.03-.86-.09-1.29h.09c.1.25.22.55.37.88.11.25.24.5.39.73l8.78,13.07h5.02v-20.95h-4.31Z"/>
      <polygon class="cls-1" points="179.82 144.22 185.85 144.22 185.85 161.4 190.42 161.4 190.42 144.22 196.47 144.22 196.47 140.45 179.82 140.45 179.82 144.22"/>
      <polygon class="cls-1" points="203.88 152.67 210.48 152.67 210.48 148.93 203.88 148.93 203.88 144.15 211.39 144.15 211.39 140.45 199.29 140.45 199.29 161.39 211.85 161.39 211.85 157.71 203.88 157.71 203.88 152.67"/>
      <polygon class="cls-1" points="219.8 140.45 215.21 140.45 215.21 161.39 227.69 161.39 227.69 157.13 219.8 157.13 219.8 140.45"/>
      <rect class="cls-1" x="230.58" y="140.45" width="4.56" height="20.95"/>
      <path class="cls-1" d="m249.09,149.43v3.65h3.55v3.87c-.38.29-.81.5-1.28.62-1.66.42-3.42.21-4.92-.61-.92-.55-1.64-1.37-2.08-2.34-.5-1.14-.75-2.37-.72-3.62-.04-1.28.25-2.54.83-3.67.55-1.01,1.39-1.82,2.42-2.33,1.2-.56,2.51-.84,3.83-.8.83,0,1.66.06,2.48.17.87.12,1.63.24,2.29.37l1.24-3.99c-1-.18-2.06-.34-3.18-.47-1.05-.13-2.1-.19-3.16-.2-2.07-.03-4.12.42-5.98,1.32-1.74.84-3.2,2.17-4.21,3.83-1.99,3.59-2.06,7.94-.17,11.59.86,1.54,2.15,2.81,3.71,3.64,1.61.85,3.41,1.28,5.24,1.25,1.45,0,2.89-.16,4.3-.47,1.34-.28,2.64-.72,3.88-1.31v-10.5h-8.08Z"/>
      <polygon class="cls-1" points="265.84 152.67 272.44 152.67 272.44 148.93 265.84 148.93 265.84 144.15 273.35 144.15 273.35 140.45 261.25 140.45 261.25 161.39 273.81 161.39 273.81 157.71 265.84 157.71 265.84 152.67"/>
      <path class="cls-1" d="m291.71,140.45v10.96c0,.57.02,1.19.04,1.84.03.65.06,1.16.11,1.52h-.06c-.1-.21-.24-.5-.43-.87-.14-.28-.29-.56-.46-.83l-8.53-12.63h-5.21v20.96h4.31v-11.49c0-.6,0-1.23-.03-1.89,0-.43-.03-.86-.09-1.29h.09c.1.25.22.55.37.88.11.25.24.5.39.73l8.78,13.07h5.02v-20.95h-4.31Z"/>
      <polygon class="cls-1" points="298.86 144.22 304.9 144.22 304.9 161.4 309.47 161.4 309.47 144.22 315.52 144.22 315.52 140.45 298.86 140.45 298.86 144.22"/>
      <polygon class="cls-1" points="322.92 152.67 329.52 152.67 329.52 148.93 322.92 148.93 322.92 144.15 330.43 144.15 330.43 140.45 318.33 140.45 318.34 161.39 330.9 161.39 330.9 157.71 322.92 157.71 322.92 152.67"/>
      <path class="cls-1" d="m346.74,151.82c-.55-.8-1.28-1.45-2.12-1.93-.99-.52-2.01-.97-3.07-1.35-.73-.27-1.29-.5-1.68-.68-.35-.16-.68-.37-.96-.64-.24-.22-.38-.53-.38-.86-.04-.66.31-1.28.9-1.58.65-.35,1.38-.52,2.11-.5.64-.01,1.28.05,1.9.19.58.14,1.14.32,1.69.54l.37.13,1.39-3.9c-.86-.36-1.75-.63-2.66-.83-.95-.2-1.91-.3-2.88-.29-1.31-.01-2.61.22-3.83.69-1.14.43-2.13,1.18-2.86,2.16-.76,1.07-1.14,2.36-1.1,3.67-.04,1.07.28,2.13.91,2.99.58.76,1.32,1.39,2.18,1.83,1.04.52,2.12.97,3.22,1.35.82.3,1.45.55,1.88.74.4.16.77.39,1.09.68.27.23.43.58.43.94.02.64-.28,1.24-.8,1.61-.77.47-1.66.68-2.56.61-.82,0-1.64-.1-2.44-.32-1-.31-1.97-.7-2.91-1.18l-1.53,4.08c1.16.55,2.36,1,3.6,1.34,1.09.28,2.2.41,3.32.41,1.43.04,2.84-.24,4.15-.81,1.09-.49,2.01-1.3,2.63-2.32.62-1.08.94-2.31.91-3.55.05-1.14-.27-2.26-.9-3.21Z"/>
      <path class="cls-1" d="m173.86,42.63c.08-.22.14-.43.19-.66.09-.35.14-.6.16-.74h.06c.05.22.11.48.17.75.07.28.12.49.16.65l6.5,17.82h1.68l-7.85-20.95h-1.36l-7.89,20.95h1.61l6.56-17.82Z"/>
      <path class="cls-1" d="m197.09,94.02l-7.85-20.95h-1.36l-7.89,20.94h1.61l6.56-17.82c.08-.21.14-.43.19-.66.09-.35.14-.6.16-.74h.06c.05.22.11.48.17.75.07.28.12.49.16.65l6.5,17.82h1.68Z"/>
      <path class="cls-1" d="m280.94,75.55c.09-.35.14-.6.16-.74h.06c.05.22.11.48.17.75.07.28.12.49.16.65l6.5,17.82h1.68l-7.85-20.95h-1.36l-7.89,20.94h1.61l6.56-17.82c.08-.21.14-.43.19-.66Z"/>
      <path class="cls-1" d="m224.57,42.63c.08-.22.14-.43.19-.66.09-.35.14-.6.16-.74h.06c.05.22.11.48.17.75.07.28.12.49.16.65l6.5,17.82h1.68l-7.85-20.95h-1.36l-7.89,20.95h1.61l6.56-17.82Z"/>
      <path class="cls-1" d="m209.81,106.96h-5.58l-7.63,20.95h4.93l4.97-15.67c.08-.21.14-.43.19-.66.09-.35.14-.6.16-.74h.06c.05.22.11.48.17.75.07.28.12.49.16.65l4.98,15.67h5.04l-7.46-20.95Z"/>
      <path class="cls-1" d="m159.15,80.96c.48-.96.71-2.03.69-3.1.02-.9-.19-1.79-.63-2.57-.41-.71-1.01-1.28-1.74-1.65-.78-.39-1.64-.58-2.51-.57h-6.02v20.95h6.17c1.02.04,2.03-.21,2.93-.71.87-.49,1.59-1.23,2.06-2.11.52-.98.78-2.08.75-3.18.01-.86-.14-1.71-.44-2.51-.26-.69-.69-1.3-1.25-1.78-.55-.46-1.21-.75-1.92-.84v-.06c.83-.38,1.51-1.04,1.91-1.86Zm.2,7c.09,1.29-.35,2.57-1.22,3.53h0c-.9.84-2.1,1.28-3.32,1.21h-4.41v-18.3s3.87,0,3.87,0c1.08-.07,2.15.26,3.01.93.77.8,1.16,1.9,1.05,3,.08,1.16-.35,2.3-1.18,3.11-.72.62-1.62.99-2.57,1.04v1.34c3.17.08,4.76,1.46,4.77,4.14Z"/>
      <path class="cls-1" d="m116.3,71.86c0,4.24,3.03,7.78,7.04,8.56v10.83h-21.35v-39.02c0-5.12-4.16-9.28-9.28-9.28h-8.36c-5.12,0-9.28,4.16-9.28,9.28v14.88h-14.85c-5.12,0-9.28,4.16-9.28,9.28v14.85h-21.39v-45.55h24.17v-17.64c0-5.12-4.16-9.28-9.28-9.28h-8.39c-5.12,0-9.28,4.16-9.28,9.28v14.86H5.41v-20.39c1.53-.57,2.62-2.03,2.62-3.75,0-2.22-1.8-4.01-4.01-4.01s-4.01,1.8-4.01,4.01c0,1.73,1.09,3.18,2.62,3.75v23.17h24.14v48.33h26.95v-17.64c0-3.59,2.91-6.5,6.5-6.5h17.64v-17.67c0-3.59,2.91-6.5,6.5-6.5h8.36c3.59,0,6.5,2.91,6.5,6.5v41.8h26.92v-13.52c4.28-.55,7.6-4.19,7.6-8.63v-.02s.88-5.88-8.71-15.46c-9.71,9.59-8.71,15.46-8.71,15.46ZM29.54,28.05c0-3.59,2.91-6.5,6.5-6.5h8.39c3.59,0,6.5,2.91,6.5,6.5v14.85h-21.39v-14.85Z"/>
      <path class="cls-1" d="m13.11,19.57l2.78.06h0s0,0,0-.01c.14-6.56-5.06-12-11.63-12.14l-.06,2.78s0,0,0,0c5.03.11,9.01,4.28,8.9,9.31Z"/>
      <path class="cls-1" d="m20.61,19.74l2.78.06C23.61,9.1,15.13.25,4.44,0l-.06,2.78c9.16.21,16.42,7.79,16.23,16.95Z"/>
      <circle class="cls-1" cx="64.26" cy="58.7" r="5.13" transform="translate(-11.77 16.33) rotate(-13.28)"/>
      <circle class="cls-1" cx="88.52" cy="34.51" r="5.13"/>
      <circle class="cls-1" cx="40.23" cy="10.33" r="5.13" transform="translate(15.3 43.55) rotate(-67.5)"/>
      <rect class="cls-1" x="36.39" y="28.4" width="7.66" height="7.66"/>
      <rect class="cls-1" x="36.39" y="52.57" width="7.66" height="7.66"/>
      <rect class="cls-1" x="36.39" y="76.74" width="7.66" height="7.66"/>
      <rect class="cls-1" x="60.54" y="76.74" width="7.66" height="7.66"/>
      <rect class="cls-1" x="84.7" y="76.74" width="7.66" height="7.66"/>
      <rect class="cls-1" x="84.7" y="52.57" width="7.66" height="7.66"/>
    </g>
  </g>
</svg>