<?xml version="1.0" encoding="UTF-8"?>
<svg id="Camada_2" data-name="Camada 2" xmlns="http://www.w3.org/2000/svg" viewBox="0 0 279.67 146.26">
  <defs>
    <style>
      .cls-1 {
        stroke-width: 0px;
      }
    </style>
  </defs>
  <g id="Camada_1-2" data-name="Camada 1">
    <g>
      <path class="cls-1" d="m52.82,137.04c-2.38,2.9-5.72,5.13-10.1,6.76-4.38,1.63-9.21,2.45-14.56,2.45-5.57.07-10.47-1.11-14.71-3.57-4.23-2.38-7.5-5.94-9.8-10.55S.08,122.04,0,115.8v-4.38c-.07-6.46,1.04-12.03,3.12-16.79,2.15-4.75,5.27-8.39,9.36-10.92s8.84-3.79,14.41-3.86c7.65-.07,13.67,1.71,18.05,5.35s6.91,8.91,7.8,15.9l-13,.07c-.59-3.71-1.93-6.39-4.01-8.1-2.01-1.71-4.83-2.53-8.39-2.53-4.53,0-7.95,1.78-10.32,5.2s-3.49,8.47-3.49,15.23v4.16c.07,6.76,1.34,11.88,3.94,15.3s6.39,5.13,11.36,5.13,8.54-1.11,10.7-3.27l-.07-11.14-12.11.07-.07-9.8,25.4-.15.15,25.77Z"/>
      <path class="cls-1" d="m162.82,131.18l-23.32.15-4.38,13.37-14.19.07,23.62-64.77,12.33-.07,24.66,64.47-14.19.07-4.53-13.3Zm-19.83-10.7l16.19-.07-8.32-24.14-7.87,24.21Z"/>
      <polygon class="cls-1" points="198.77 133.55 227.07 133.33 227.15 144.03 185.55 144.32 185.11 79.7 198.48 79.63 198.77 133.55"/>
      <path class="cls-1" d="m266.22,126.79c0-2.53-.89-4.46-2.67-5.79s-4.98-2.75-9.58-4.23c-4.61-1.49-8.32-2.9-10.99-4.31-7.35-3.94-11.07-9.21-11.14-15.97,0-3.49.97-6.61,2.9-9.36,1.93-2.75,4.75-4.9,8.47-6.46,3.64-1.56,7.8-2.38,12.4-2.38s8.76.74,12.33,2.45c3.64,1.63,6.46,4.01,8.47,7.06,2.01,3.05,3.05,6.46,3.05,10.4l-13.3.07c0-2.97-.97-5.27-2.82-6.91s-4.53-2.45-7.87-2.38c-3.27,0-5.79.74-7.58,2.08-1.78,1.41-2.67,3.19-2.67,5.42,0,2.08,1.11,3.86,3.19,5.27,2.15,1.41,5.27,2.75,9.36,3.94,7.58,2.23,13.15,5.05,16.64,8.39,3.49,3.34,5.27,7.58,5.27,12.55.07,5.57-2.08,10.03-6.24,13.22-4.23,3.19-9.88,4.83-17.08,4.9-4.98,0-9.51-.82-13.59-2.67-4.09-1.78-7.21-4.23-9.36-7.43-2.15-3.12-3.27-6.83-3.27-10.99l13.37-.07c.07,7.13,4.31,10.7,12.85,10.62,3.19,0,5.65-.67,7.43-2.01,1.56-1.26,2.45-3.12,2.45-5.42"/>
      <path class="cls-1" d="m76.44,103.77c.82-1.34,1.78-2.6,2.9-3.71l-9.51-10.55c-2.38,2.3-4.46,4.98-6.09,7.87l12.7,6.39Z"/>
      <path class="cls-1" d="m99.83,96.34c1.41.67,2.82,1.49,4.01,2.53l9.58-10.47c-2.53-2.15-5.35-3.94-8.47-5.27l-5.13,13.22Z"/>
      <path class="cls-1" d="m121.82,99.46l-12.7,6.31c.59,1.41,1.04,2.9,1.26,4.46l14.11-1.34c-.45-3.27-1.34-6.46-2.67-9.43"/>
      <path class="cls-1" d="m108.23,103.99l12.7-6.31c-1.56-2.9-3.57-5.57-5.94-7.87l-9.58,10.47c1.04,1.11,2.01,2.3,2.82,3.71"/>
      <path class="cls-1" d="m73.91,112.98v-.89l-14.11-1.26c-.07.67-.07,1.41-.07,2.15,0,2.67.37,5.35.97,7.87l13.67-3.94c-.3-1.26-.45-2.53-.45-3.94"/>
      <path class="cls-1" d="m106.45,124.64c-1.04,1.19-2.15,2.3-3.42,3.27l7.43,12.11c2.75-1.86,5.2-4.16,7.28-6.76l-11.29-8.62Z"/>
      <path class="cls-1" d="m110.6,112.98c0,1.34-.15,2.67-.45,3.86l13.67,3.94c.59-2.53.97-5.13.97-7.8,0-.67,0-1.34-.07-2.01l-14.11,1.34c0,.22,0,.45,0,.67"/>
      <path class="cls-1" d="m78.29,124.86l-11.29,8.54c2.08,2.6,4.61,4.83,7.35,6.69l7.43-12.03c-1.26-.89-2.45-1.93-3.49-3.19"/>
      <path class="cls-1" d="m74.21,110.08c.22-1.56.74-3.12,1.34-4.53l-12.7-6.31c-1.41,2.97-2.38,6.24-2.82,9.58l14.19,1.26Z"/>
      <path class="cls-1" d="m108.67,140.98l-7.43-12.03c-1.34.74-2.82,1.34-4.31,1.78l2.6,13.96c3.27-.82,6.31-2.01,9.14-3.71"/>
      <path class="cls-1" d="m109.64,118.85c-.52,1.49-1.19,2.82-2.01,4.09l11.29,8.54c1.86-2.67,3.27-5.57,4.31-8.69l-13.59-3.94Z"/>
      <path class="cls-1" d="m94.93,131.1c-.89.15-1.71.22-2.67.22-.74,0-1.41-.07-2.15-.15l-2.6,13.96c1.56.22,3.12.37,4.75.37,1.78,0,3.57-.15,5.27-.45l-2.6-13.96Z"/>
      <path class="cls-1" d="m93.45,94.71c1.56.07,3.12.37,4.53.89l5.13-13.22c-3.05-1.04-6.24-1.71-9.66-1.86v14.19Z"/>
      <path class="cls-1" d="m88.1,130.88c-1.56-.37-3.12-.97-4.53-1.71l-7.43,12.03c2.9,1.63,6.02,2.82,9.36,3.57l2.6-13.89Z"/>
      <path class="cls-1" d="m86.76,95.52c1.49-.45,3.05-.74,4.61-.82v-14.19c-3.42.07-6.69.74-9.73,1.78l5.13,13.22Z"/>
      <path class="cls-1" d="m77.11,123.23c-.89-1.34-1.63-2.75-2.15-4.31l-13.59,3.94c1.04,3.27,2.53,6.31,4.53,8.99l11.22-8.62Z"/>
      <path class="cls-1" d="m80.89,98.64c1.19-.97,2.53-1.78,3.94-2.38l-5.13-13.22c-3.05,1.26-5.87,3.05-8.39,5.13l9.58,10.47Z"/>
      <path class="cls-1" d="m16.86,21.99c0-1.04-.37-1.86-1.11-2.45s-2.01-1.19-3.86-1.78c-1.86-.59-3.34-1.19-4.53-1.78-3.79-1.86-5.72-4.46-5.72-7.73,0-1.63.45-3.05,1.41-4.31S5.35,1.71,7.06,1.04s3.71-1.04,5.87-1.04,4.01.37,5.72,1.11,2.97,1.86,3.94,3.27,1.41,2.97,1.41,4.83h-7.06c0-1.19-.37-2.15-1.11-2.82-.74-.67-1.71-.97-2.97-.97s-2.3.3-3.05.82c-.74.59-1.11,1.26-1.11,2.15,0,.74.37,1.41,1.19,2.08.82.59,2.23,1.26,4.31,1.93s3.71,1.34,5.05,2.15c3.19,1.86,4.75,4.38,4.75,7.58,0,2.6-.97,4.61-2.9,6.09-1.93,1.49-4.61,2.23-8.02,2.23-2.38,0-4.53-.45-6.46-1.26-1.93-.89-3.42-2.01-4.38-3.49s-1.49-3.19-1.49-5.13h7.13c0,1.56.45,2.75,1.26,3.49s2.15,1.11,4.01,1.11c1.19,0,2.08-.22,2.82-.74.59-.82.89-1.56.89-2.45"/>
      <path class="cls-1" d="m51.18.3v19.31c0,2.15-.45,4.09-1.41,5.72-.97,1.63-2.3,2.82-4.01,3.64-1.71.82-3.79,1.26-6.17,1.26-3.57,0-6.39-.97-8.47-2.82-2.08-1.86-3.12-4.38-3.19-7.65V.3h7.13v19.61c.07,3.19,1.56,4.83,4.53,4.83,1.49,0,2.6-.37,3.34-1.19s1.11-2.15,1.11-3.94V.37h7.13v-.07Z"/>
      <path class="cls-1" d="m71.31,21.99c0-1.04-.37-1.86-1.11-2.45s-2.01-1.19-3.86-1.78c-1.86-.59-3.34-1.19-4.53-1.78-3.79-1.86-5.72-4.46-5.72-7.73,0-1.63.45-3.05,1.41-4.31.97-1.26,2.3-2.23,4.01-2.9,1.71-.67,3.71-1.04,5.87-1.04s4.01.37,5.72,1.11,2.97,1.86,3.94,3.27,1.41,2.97,1.41,4.83h-7.06c0-1.19-.37-2.15-1.11-2.82-.74-.67-1.71-.97-2.97-.97s-2.3.3-3.05.82c-.74.59-1.11,1.26-1.11,2.15,0,.74.37,1.41,1.19,2.08.82.59,2.23,1.26,4.31,1.93,2.01.67,3.71,1.34,5.05,2.15,3.19,1.86,4.75,4.38,4.75,7.58,0,2.6-.97,4.61-2.9,6.09-1.93,1.49-4.61,2.23-8.02,2.23-2.38,0-4.53-.45-6.46-1.26-1.93-.89-3.42-2.01-4.38-3.49-.97-1.49-1.49-3.19-1.49-5.13h7.13c0,1.56.45,2.75,1.26,3.49.82.74,2.15,1.11,4.01,1.11,1.19,0,2.08-.22,2.82-.74.52-.82.89-1.56.89-2.45"/>
      <polygon class="cls-1" points="105.63 5.79 96.79 5.79 96.79 29.86 89.66 29.86 89.66 5.79 80.97 5.79 80.97 .3 105.63 .3 105.63 5.79"/>
      <path class="cls-1" d="m123.38,24.29h-9.73l-1.71,5.5h-7.65L115.14.3h6.69l10.92,29.49h-7.65l-1.71-5.5Zm-8.1-5.42h6.31l-3.19-10.25-3.12,10.25Z"/>
      <rect class="cls-1" x="135.79" y=".3" width="7.06" height="29.49"/>
      <polygon class="cls-1" points="172.85 29.86 165.79 29.86 155.32 11.44 155.32 29.86 148.19 29.86 148.19 .3 155.32 .3 165.79 18.72 165.79 .3 172.85 .3 172.85 29.86"/>
      <path class="cls-1" d="m194.91,24.29h-9.73l-1.71,5.5h-7.58L186.74.3h6.69l10.92,29.49h-7.65l-1.78-5.5Zm-8.02-5.42h6.31l-3.19-10.25-3.12,10.25Z"/>
      <path class="cls-1" d="m206.8,29.86V.37h10.62c3.79,0,6.69.67,8.69,2.08,2.01,1.41,2.97,3.42,2.97,6.09,0,1.56-.37,2.82-1.04,3.94s-1.71,1.86-3.12,2.38c1.56.37,2.75,1.19,3.57,2.3.82,1.11,1.26,2.45,1.26,4.09,0,2.9-.89,5.05-2.75,6.54s-4.53,2.23-8.17,2.23h-12.03v-.15Zm7.13-17.23h3.71c1.56,0,2.67-.3,3.34-.82.67-.52.97-1.41.97-2.45,0-1.26-.37-2.15-1.04-2.67-.74-.52-1.86-.82-3.49-.82h-3.49v6.76h0Zm0,4.68v7.06h4.68c1.26,0,2.3-.3,2.97-.89s1.04-1.41,1.04-2.45c0-2.45-1.19-3.71-3.64-3.71h-5.05Z"/>
      <polygon class="cls-1" points="241.11 24.36 253.52 24.36 253.52 29.86 233.98 29.86 233.98 .3 241.11 .3 241.11 24.36"/>
      <polygon class="cls-1" points="275.21 17.31 264.07 17.31 264.07 24.36 277.29 24.36 277.29 29.86 256.93 29.86 256.93 .3 277.29 .3 277.29 5.79 264.07 5.79 264.07 12.03 275.21 12.03 275.21 17.31"/>
      <path class="cls-1" d="m1.64,69.75v-28.89h9.28c2.53,0,4.83.59,6.91,1.71,2.01,1.19,3.64,2.82,4.75,4.9s1.71,4.46,1.71,7.13v1.34c0,2.67-.59,5.05-1.71,7.13s-2.67,3.71-4.75,4.9c-2.01,1.19-4.31,1.78-6.83,1.78H1.64Zm6.98-23.55v18.2h2.45c2.01,0,3.57-.74,4.61-2.15s1.63-3.57,1.63-6.31v-1.26c0-2.82-.52-4.9-1.63-6.31-1.04-1.41-2.6-2.15-4.68-2.15h-2.38Z"/>
      <polygon class="cls-1" points="44.35 57.49 34.1 57.49 34.1 64.4 46.28 64.4 46.28 69.75 27.12 69.75 27.12 40.85 46.35 40.85 46.35 46.2 34.1 46.2 34.1 52.29 44.35 52.29 44.35 57.49"/>
      <polygon class="cls-1" points="61.58 61.87 67.37 40.85 75.17 40.85 65.44 69.75 57.79 69.75 48.14 40.85 55.86 40.85 61.58 61.87"/>
      <polygon class="cls-1" points="94.34 57.49 84.24 57.49 84.24 64.4 96.34 64.4 96.34 69.75 77.25 69.75 77.25 40.85 96.34 40.85 96.34 46.2 84.24 46.2 84.24 52.29 94.34 52.29 94.34 57.49"/>
      <polygon class="cls-1" points="105.7 64.4 116.7 64.4 116.7 69.75 98.72 69.75 98.72 40.85 105.7 40.85 105.7 64.4"/>
      <path class="cls-1" d="m142.69,55.86c0,2.82-.52,5.35-1.56,7.5-1.04,2.15-2.53,3.86-4.46,4.98-1.93,1.19-4.09,1.78-6.61,1.78s-4.68-.59-6.54-1.71c-1.93-1.11-3.42-2.75-4.46-4.83s-1.63-4.53-1.71-7.28v-1.63c0-2.82.52-5.35,1.56-7.5,1.04-2.15,2.53-3.86,4.46-5.05s4.16-1.78,6.61-1.78,4.61.59,6.54,1.78c1.93,1.19,3.42,2.82,4.46,4.98s1.63,4.61,1.63,7.43v1.34h.07Zm-7.13-1.19c0-2.9-.45-5.05-1.41-6.54s-2.3-2.23-4.09-2.23c-3.49,0-5.35,2.6-5.57,7.87v2.15c0,2.82.45,4.98,1.41,6.54.97,1.49,2.3,2.3,4.16,2.3s3.12-.74,4.09-2.23,1.41-3.64,1.49-6.46v-1.41h-.07Z"/>
      <path class="cls-1" d="m152.42,59.94v9.8h-6.98v-28.89h11.51c2.23,0,4.16.37,5.87,1.19s3.05,2.01,3.94,3.49c.97,1.49,1.41,3.19,1.41,5.13,0,2.82-1.04,5.05-3.05,6.76s-4.75,2.53-8.32,2.53h-4.38Zm0-5.42h4.53c1.34,0,2.38-.37,3.12-1.04s1.04-1.63,1.04-2.82c0-1.34-.37-2.45-1.11-3.27-.74-.82-1.71-1.19-2.97-1.26h-4.68v8.39h.07Z"/>
      <polygon class="cls-1" points="179.91 40.85 186.37 60.98 192.76 40.85 201.97 40.85 201.97 69.75 194.99 69.75 194.99 62.99 195.65 49.17 188.67 69.75 184.07 69.75 177.01 49.17 177.68 62.99 177.68 69.75 170.77 69.75 170.77 40.85 179.91 40.85"/>
      <polygon class="cls-1" points="222.32 57.49 212 57.49 212 64.4 224.25 64.4 224.25 69.75 205.09 69.75 205.09 40.85 224.33 40.85 224.33 46.2 212 46.2 212 52.29 222.32 52.29 222.32 57.49"/>
      <polygon class="cls-1" points="250.77 69.75 243.86 69.75 233.61 51.77 233.61 69.75 226.63 69.75 226.63 40.85 233.61 40.85 243.79 58.83 243.79 40.85 250.77 40.85 250.77 69.75"/>
      <polygon class="cls-1" points="277.29 46.2 268.6 46.2 268.6 69.75 261.61 69.75 261.61 46.2 253.15 46.2 253.15 40.85 277.29 40.85 277.29 46.2"/>
    </g>
  </g>
</svg>