<?xml version="1.0" encoding="UTF-8"?>
<svg id="Camada_2" data-name="Camada 2" xmlns="http://www.w3.org/2000/svg" viewBox="0 0 103.64 152.71">
  <defs>
    <style>
      .cls-1 {
        stroke-width: 0px;
      }
    </style>
  </defs>
  <g id="Camada_1-2" data-name="Camada 1">
    <g>
      <g>
        <g>
          <path class="cls-1" d="m48.42,129.95c.12.11.17.25.17.41s-.06.3-.18.42-.26.18-.42.18h-1.72v5.66c0,.16-.06.3-.17.41-.12.11-.26.17-.42.17s-.31-.06-.42-.17c-.12-.11-.17-.25-.17-.41v-5.66h-1.71c-.17,0-.31-.06-.42-.18s-.17-.26-.17-.42.06-.3.17-.41c.12-.11.26-.17.42-.17h4.63c.17,0,.31.06.42.17Z"/>
          <path class="cls-1" d="m53.07,137.03c-.12.11-.26.17-.43.17s-.31-.06-.42-.17c-.12-.11-.17-.25-.17-.41v-6.25c0-.16.06-.3.17-.41.12-.11.26-.17.42-.17s.31.06.43.17c.12.11.18.25.18.41v2.54h2.81v-2.54c0-.16.06-.3.17-.41.12-.11.26-.17.42-.17s.31.06.43.17c.12.11.18.25.18.41v6.25c0,.16-.06.3-.18.41-.12.11-.26.17-.43.17s-.31-.06-.42-.17c-.12-.11-.17-.25-.17-.41v-2.54h-2.81v2.54c0,.16-.06.3-.18.41Z"/>
          <path class="cls-1" d="m61.99,137.2c-.17,0-.31-.06-.42-.17-.12-.11-.17-.25-.17-.41v-6.25c0-.16.06-.3.17-.41.12-.11.26-.17.42-.17h3.54c.16,0,.3.06.42.17.12.11.18.25.18.41s-.06.3-.18.42c-.12.12-.26.18-.42.18h-2.94v1.94h2.52c.16,0,.3.06.42.17s.18.25.18.41-.06.3-.17.41-.26.17-.42.17h-2.52v1.95h2.94c.16,0,.3.06.42.17s.18.25.18.41-.06.3-.18.41c-.12.12-.26.18-.42.18h-3.53s-.01,0-.01,0Z"/>
          <g>
            <path class="cls-1" d="m86.05,137.2c-.17,0-.31-.06-.42-.17-.12-.11-.17-.25-.17-.41v-6.25c0-.16.06-.3.17-.41.12-.11.26-.17.42-.17h3.54c.16,0,.3.06.42.17.12.11.18.25.18.41s-.06.3-.18.42c-.12.12-.26.18-.42.18h-2.94v1.94h2.52c.16,0,.3.06.42.17s.18.25.18.41-.06.3-.17.41-.26.17-.42.17h-2.52v1.95h2.94c.16,0,.3.06.42.17s.18.25.18.41-.06.3-.18.41c-.12.12-.26.18-.42.18h-3.53s-.01,0-.01,0Z"/>
            <path class="cls-1" d="m96.73,137.09l-.09.06h-.01s-.05.01-.1.03h-.03s-.06.01-.1.01-.08,0-.1-.01h-.03s-.07-.02-.08-.03c0,0-.02,0-.04-.02s-.04-.02-.08-.05h-.01s-.06-.05-.09-.08c-.03-.03-.05-.05-.06-.07h0s-.02-.03-.03-.06c-.01-.02-.02-.04-.03-.05l-2.67-6.18c-.06-.15-.06-.3,0-.44.06-.15.17-.25.32-.31.14-.06.29-.07.45,0,.15.06.26.16.32.31l2.12,4.9,1.4-3.25c.1-.24.29-.36.56-.36s.46.12.57.36l1.4,3.25,2.11-4.9c.07-.15.17-.25.33-.31.15-.06.3-.06.46,0,.15.06.26.17.32.32s.06.3,0,.44l-2.66,6.18c-.01.06-.05.11-.12.17,0,0,0,.02-.01.03-.03.01-.05.03-.08.05h-.01l-.1.06h-.01s-.01,0-.02,0c0,0-.03.01-.08.03h-.02s-.06.01-.1.01-.08,0-.1-.01h-.03s-.07-.02-.08-.03c0,0-.02,0-.04-.01-.02,0-.05-.02-.08-.06h-.01c-.06-.04-.11-.09-.14-.15-.03-.01-.05-.05-.06-.11l-1.42-3.28-1.42,3.28s-.02.05-.04.1l-.08.07s0,.02-.01.03c-.01,0-.04.02-.06.05h-.02Z"/>
            <path class="cls-1" d="m81.48,136.51c0,.16-.06.3-.17.41s-.25.17-.41.17-.3-.06-.42-.17c-.12-.11-.17-.25-.17-.41v-3.77c0-.52-.18-.97-.55-1.33-.37-.37-.81-.55-1.33-.55s-.97.19-1.33.56-.55.81-.55,1.33v3.77c0,.16-.06.3-.17.41-.12.11-.26.17-.42.17s-.3-.06-.41-.17-.17-.25-.17-.41v-3.77c0-.85.3-1.57.89-2.16.6-.6,1.32-.89,2.16-.89s1.57.3,2.16.9c.6.6.89,1.32.89,2.16v3.77Z"/>
          </g>
        </g>
        <g>
          <path class="cls-1" d="m6.26,149.51c0,.84-.3,1.56-.92,2.16-.61.6-1.35.9-2.22.9s-1.61-.3-2.22-.9c-.61-.6-.92-1.32-.92-2.17v-3.77c0-.16.06-.3.17-.41.12-.11.26-.17.42-.17s.31.06.43.17c.12.11.18.25.18.41v3.77c0,.52.19.96.56,1.33s.83.56,1.37.56.99-.18,1.37-.55c.38-.37.56-.81.56-1.33v-3.77c0-.16.06-.3.18-.41.12-.11.26-.17.43-.17s.31.06.42.17c.12.11.17.25.17.41v3.77Z"/>
          <path class="cls-1" d="m14.34,149.17c.49.37.74.88.74,1.54,0,.23,0,.44.04.63.19.06.31.18.38.37.06.19.04.36-.09.52-.12.16-.3.24-.53.24h-.01c-.32,0-.58-.16-.77-.49-.15-.31-.23-.73-.23-1.27-.01-.32-.17-.58-.46-.76-.19-.12-.39-.2-.61-.25h-1.28v2.3c0,.16-.06.3-.18.41-.12.11-.26.17-.43.17s-.31-.06-.42-.17-.17-.25-.17-.41v-6.25c0-.16.06-.3.17-.41s.26-.17.42-.17h1.94c.64,0,1.19.22,1.64.67.45.44.68,1,.68,1.66s-.28,1.23-.85,1.68Zm-1.47-.66c.31,0,.57-.11.79-.32.22-.21.33-.47.33-.77s-.11-.56-.33-.77c-.22-.22-.48-.32-.79-.32h-1.33v2.18h1.33Z"/>
          <path class="cls-1" d="m19.56,152.57h-.01s-.02,0-.03,0c-.17,0-.31-.06-.42-.17-.12-.11-.17-.25-.17-.41v-6.25c0-.16.06-.3.17-.41.12-.11.26-.17.42-.17h1.54c.57,0,1.06.2,1.46.59.4.39.6.84.6,1.34s-.14.93-.41,1.29c.33.2.6.48.8.82.2.34.3.71.3,1.1,0,.63-.23,1.17-.68,1.61-.45.44-1,.67-1.64.67h-1.92Zm.56-6.24v1.69h.93c.24,0,.44-.08.61-.25s.25-.37.25-.6-.08-.43-.25-.59c-.17-.16-.37-.24-.61-.24h-.93Zm0,2.87v2.19h1.35c.31,0,.57-.12.79-.33s.32-.47.32-.77-.11-.56-.32-.77c-.22-.21-.48-.32-.79-.32h-1.35Z"/>
          <path class="cls-1" d="m31.43,152.2l-.53-1.38h-2.63l-.53,1.38c-.1.25-.28.37-.53.37s-.43-.09-.54-.26c-.11-.17-.13-.35-.06-.53l2.4-6.24c.05-.11.13-.2.23-.28s.22-.1.34-.1c.27-.01.47.11.57.37l2.39,6.24c.07.18.04.36-.06.53-.11.17-.29.26-.54.26s-.42-.12-.51-.37Zm-2.73-2.54h1.76l-.88-2.28-.88,2.28Z"/>
          <path class="cls-1" d="m36.89,147.59v4.4c0,.16-.06.29-.17.41-.12.12-.25.18-.42.18s-.3-.06-.42-.17c-.12-.11-.17-.25-.17-.41v-6.17c-.01-.2.06-.36.21-.47s.31-.15.47-.12c.16.02.29.1.38.23l3.5,4.74v-4.36c0-.16.06-.29.17-.4s.25-.17.41-.17.3.06.42.17c.12.11.18.25.18.4v6.16c0,.16-.06.3-.18.41-.12.11-.26.17-.43.17s-.31-.07-.43-.21c-.03-.03-.05-.05-.05-.06l-3.47-4.7Z"/>
        </g>
        <path class="cls-1" d="m66.35,151.35c0,.08-.02.16-.05.23h0c-.04.11-.1.19-.21.27-.72.55-1.54.83-2.46.83-1.11,0-2.05-.37-2.83-1.11-.78-.74-1.17-1.64-1.17-2.7s.39-1.96,1.17-2.71c.78-.74,1.72-1.12,2.83-1.12.93,0,1.76.28,2.47.83.14.1.22.23.24.4.02.17-.02.32-.12.45-.1.13-.24.21-.41.23-.17.02-.33-.02-.47-.13-.51-.38-1.11-.57-1.8-.57s-1.32.25-1.86.76c-.54.51-.81,1.12-.81,1.84s.27,1.33.82,1.84c.55.51,1.19.76,1.95.76.51,0,1.01-.13,1.48-.4v-1.45h-1.55c-.17,0-.31-.06-.43-.18-.12-.12-.18-.26-.18-.43s.06-.31.18-.42c.12-.11.27-.17.44-.17h2.16c.17,0,.32.06.44.17.12.11.18.25.18.42v2.34Z"/>
        <path class="cls-1" d="m71.05,152.68c-.17,0-.31-.06-.42-.17-.12-.11-.17-.25-.17-.41v-6.25c0-.16.06-.3.17-.41.12-.11.26-.17.42-.17h3.54c.16,0,.3.06.42.17.12.11.18.25.18.41s-.06.3-.18.42c-.12.12-.26.18-.42.18h-2.94v1.94h2.52c.16,0,.3.06.42.17s.18.25.18.41-.06.3-.17.41-.26.17-.42.17h-2.52v1.95h2.94c.16,0,.3.06.42.17s.18.25.18.41-.06.3-.18.41c-.12.12-.26.18-.42.18h-3.53s-.01,0-.01,0Z"/>
        <path class="cls-1" d="m79.74,147.7v4.4c0,.16-.06.29-.17.41-.12.12-.25.18-.42.18s-.3-.06-.42-.17c-.12-.11-.17-.25-.17-.41v-6.17c-.01-.2.06-.36.21-.47s.31-.15.47-.12c.16.02.29.1.38.23l3.5,4.74v-4.36c0-.16.06-.29.17-.4s.25-.17.41-.17.3.06.42.17c.12.11.18.25.18.4v6.16c0,.16-.06.3-.18.41-.12.11-.26.17-.43.17s-.31-.07-.43-.21c-.03-.03-.05-.05-.05-.06l-3.47-4.7Z"/>
        <path class="cls-1" d="m88.57,152.1v-6.25c0-.16.06-.3.17-.41.12-.11.26-.17.42-.17h1.28c1.05,0,1.94.36,2.68,1.09.74.72,1.11,1.6,1.11,2.62s-.37,1.9-1.11,2.62c-.74.72-1.63,1.09-2.68,1.09h-1.28c-.17,0-.31-.06-.42-.17-.12-.11-.17-.25-.17-.41Zm1.2-5.66v5.06h.67c.72,0,1.32-.26,1.83-.75s.75-1.09.75-1.79-.25-1.3-.75-1.79c-.5-.49-1.11-.74-1.83-.74h-.67Z"/>
        <path class="cls-1" d="m102.43,152.31l-.53-1.38h-2.63l-.53,1.38c-.1.25-.28.37-.53.37s-.43-.09-.54-.26c-.11-.17-.13-.35-.06-.53l2.4-6.24c.05-.11.13-.2.23-.28s.22-.1.34-.1c.27-.01.47.11.57.37l2.39,6.24c.07.18.04.36-.06.53-.11.17-.29.26-.54.26s-.42-.12-.51-.37Zm-2.73-2.54h1.76l-.88-2.28-.88,2.28Z"/>
        <g>
          <path class="cls-1" d="m56.85,152.13c0,.16-.06.3-.17.41s-.25.17-.41.17-.3-.06-.42-.17c-.12-.11-.17-.25-.17-.41v-3.77c0-.52-.18-.97-.55-1.33s-.81-.55-1.33-.55-.97.19-1.33.56-.55.81-.55,1.33v3.77c0,.16-.06.3-.17.41-.12.11-.26.17-.42.17s-.3-.06-.41-.17-.17-.25-.17-.41v-3.77c0-.85.3-1.57.89-2.16.6-.6,1.32-.89,2.16-.89s1.57.3,2.16.9c.6.6.89,1.32.89,2.16v3.77Z"/>
          <rect class="cls-1" x="51.88" y="149.84" width="3.82" height="1.42"/>
        </g>
        <g>
          <path class="cls-1" d="m5.01,115.16c0-.16.06-.3.17-.41s.26-.17.42-.17.31.06.43.17c.12.11.18.25.18.41v6.25c0,.16-.06.3-.18.41-.12.11-.26.17-.43.17s-.31-.06-.42-.17-.17-.25-.17-.41v-6.25Z"/>
          <path class="cls-1" d="m13.18,119.31h-.02c-.21,0-.38-.08-.5-.24l-1.55-2.12v4.46c0,.16-.06.3-.18.41-.12.11-.26.17-.43.17s-.31-.06-.42-.17c-.12-.11-.17-.25-.17-.41v-6.25c0-.16.06-.3.17-.41.12-.11.26-.17.42-.17h.03c.21,0,.37.08.48.24l2.16,2.92,2.16-2.92c.12-.16.29-.24.49-.24h.01c.17,0,.31.07.43.18.12.11.18.25.18.4v6.25c0,.16-.06.29-.18.41-.12.12-.26.18-.43.18s-.31-.06-.42-.17-.17-.25-.17-.41v-4.46l-1.56,2.12c-.12.16-.29.24-.49.24Z"/>
          <path class="cls-1" d="m24.91,115.25c.46.44.68.98.68,1.61s-.23,1.16-.68,1.6c-.46.44-1,.66-1.65.66h-1.33v2.3c0,.16-.06.3-.18.41-.12.11-.26.17-.43.17s-.31-.06-.42-.17c-.12-.11-.17-.25-.17-.41v-6.25c0-.16.06-.3.17-.41.12-.11.26-.17.42-.17h1.94c.64,0,1.19.22,1.65.67Zm-2.98.51v2.18h1.33c.31,0,.57-.11.79-.32s.33-.47.34-.76c0-.31-.12-.57-.34-.78s-.48-.32-.79-.32h-1.33Z"/>
          <path class="cls-1" d="m29.31,121.99c-.17,0-.31-.06-.42-.17-.12-.11-.17-.25-.17-.41v-6.25c0-.16.06-.3.17-.41.12-.11.26-.17.42-.17s.31.06.43.17c.12.11.18.25.18.41v5.66h2.94c.16,0,.3.06.42.17s.18.25.18.41-.06.3-.18.41c-.12.12-.26.18-.42.18h-3.54Z"/>
          <path class="cls-1" d="m37.08,121.99c-.17,0-.31-.06-.42-.17-.12-.11-.17-.25-.17-.41v-6.25c0-.16.06-.3.17-.41.12-.11.26-.17.42-.17h3.54c.16,0,.3.06.42.17.12.11.18.25.18.41s-.06.3-.18.42c-.12.12-.26.18-.42.18h-2.94v1.94h2.52c.16,0,.3.06.42.17s.18.25.18.41-.06.3-.17.41-.26.17-.42.17h-2.52v1.95h2.94c.16,0,.3.06.42.17s.18.25.18.41-.06.3-.18.41c-.12.12-.26.18-.42.18h-3.53s-.01,0-.01,0Z"/>
          <path class="cls-1" d="m47.85,119.31h-.02c-.21,0-.38-.08-.5-.24l-1.55-2.12v4.46c0,.16-.06.3-.18.41-.12.11-.26.17-.43.17s-.31-.06-.42-.17c-.12-.11-.17-.25-.17-.41v-6.25c0-.16.06-.3.17-.41.12-.11.26-.17.42-.17h.03c.21,0,.37.08.48.24l2.16,2.92,2.16-2.92c.12-.16.29-.24.49-.24h.01c.17,0,.31.07.43.18.12.11.18.25.18.4v6.25c0,.16-.06.29-.18.41-.12.12-.26.18-.43.18s-.31-.06-.42-.17-.17-.25-.17-.41v-4.46l-1.56,2.12c-.12.16-.29.24-.49.24Z"/>
          <path class="cls-1" d="m55.99,121.99c-.17,0-.31-.06-.42-.17-.12-.11-.17-.25-.17-.41v-6.25c0-.16.06-.3.17-.41.12-.11.26-.17.42-.17h3.54c.16,0,.3.06.42.17.12.11.18.25.18.41s-.06.3-.18.42c-.12.12-.26.18-.42.18h-2.94v1.94h2.52c.16,0,.3.06.42.17s.18.25.18.41-.06.3-.17.41-.26.17-.42.17h-2.52v1.95h2.94c.16,0,.3.06.42.17s.18.25.18.41-.06.3-.18.41c-.12.12-.26.18-.42.18h-3.53s-.01,0-.01,0Z"/>
          <path class="cls-1" d="m64.68,117.01v4.4c0,.16-.06.29-.17.41-.12.12-.25.18-.42.18s-.3-.06-.42-.17c-.12-.11-.17-.25-.17-.41v-6.17c-.01-.2.06-.36.21-.47s.31-.15.47-.12c.16.02.29.1.38.23l3.5,4.74v-4.36c0-.16.06-.29.17-.4s.25-.17.41-.17.3.06.42.17c.12.11.18.25.18.4v6.16c0,.16-.06.3-.18.41-.12.11-.26.17-.43.17s-.31-.07-.43-.21c-.03-.03-.05-.05-.05-.06l-3.47-4.7Z"/>
          <path class="cls-1" d="m78.57,114.75c.12.11.17.25.17.41s-.06.3-.18.42-.26.18-.42.18h-1.72v5.66c0,.16-.06.3-.17.41-.12.11-.26.17-.42.17s-.31-.06-.42-.17c-.12-.11-.17-.25-.17-.41v-5.66h-1.71c-.17,0-.31-.06-.42-.18s-.17-.26-.17-.42.06-.3.17-.41c.12-.11.26-.17.42-.17h4.63c.17,0,.31.06.42.17Z"/>
          <path class="cls-1" d="m82.28,115.16c0-.16.06-.3.17-.41s.26-.17.42-.17.31.06.43.17c.12.11.18.25.18.41v6.25c0,.16-.06.3-.18.41-.12.11-.26.17-.43.17s-.31-.06-.42-.17-.17-.25-.17-.41v-6.25Z"/>
          <path class="cls-1" d="m88.37,117.01v4.4c0,.16-.06.29-.17.41-.12.12-.25.18-.42.18s-.3-.06-.42-.17c-.12-.11-.17-.25-.17-.41v-6.17c-.01-.2.06-.36.21-.47s.31-.15.47-.12c.16.02.29.1.38.23l3.5,4.74v-4.36c0-.16.06-.29.17-.4s.25-.17.41-.17.3.06.42.17c.12.11.18.25.18.4v6.16c0,.16-.06.3-.18.41-.12.11-.26.17-.43.17s-.31-.07-.43-.21c-.03-.03-.05-.05-.05-.06l-3.47-4.7Z"/>
          <path class="cls-1" d="m103.59,120.67c0,.08-.02.16-.05.23h0c-.04.11-.1.19-.21.27-.72.55-1.54.83-2.46.83-1.11,0-2.05-.37-2.83-1.11-.78-.74-1.17-1.64-1.17-2.7s.39-1.96,1.17-2.71c.78-.74,1.72-1.12,2.83-1.12.93,0,1.76.28,2.47.83.14.1.22.23.24.4.02.17-.02.32-.12.45-.1.13-.24.21-.41.23-.17.02-.33-.02-.47-.13-.51-.38-1.11-.57-1.8-.57s-1.32.25-1.86.76c-.54.51-.81,1.12-.81,1.84s.27,1.33.82,1.84c.55.51,1.19.76,1.95.76.51,0,1.01-.13,1.48-.4v-1.45h-1.55c-.17,0-.31-.06-.43-.18-.12-.12-.18-.26-.18-.43s.06-.31.18-.42c.12-.11.27-.17.44-.17h2.16c.17,0,.32.06.44.17.12.11.18.25.18.42v2.34Z"/>
        </g>
      </g>
      <path class="cls-1" d="m103.64,68.57h-.05V0H.12v19.64h-.02v79.7h.02v4.45h103.47v-.1h.05v-35.13Zm-63.68,32.42H2.8v-15.81c3.33.56,6.6,1.04,9.91,1.46,6.53.82,12.91,1.24,18.97,1.24,2.8,0,5.57-.09,8.28-.26v13.37Zm2.48.23v-13.95c4.15-.38,8.9-1.14,14.16-2.28,18.83-4.06,29.37-8.12,36.14-13.94h8.36v30.17h-58.66ZM35.31,1.85h66.41v66.34h-33.18v-33.29h-33.23V1.85Zm0,35.53h30.75v33.29h23.15c-6.22,4.54-15.6,7.98-30.98,11.41l-.06-21.46-1.29.06c-6.43.27-11.54-1.65-15.19-5.71-4.14-4.6-5.93-11.33-6.62-17.59h.24ZM2.6,2.48h30.23v17.16H2.6V2.48Zm30.02,19.64c-.6,5.37-1.97,24.27,7.23,34.5,3.92,4.37,9.25,6.55,15.85,6.57l.05,19.44c-5.27,1.13-10.02,1.88-14.11,2.22v.15c-3.16.26-6.48.4-9.95.4-5.78,0-11.99-.38-18.66-1.22-3.6-.45-7.06-.98-10.42-1.55V22.13h30.02Z"/>
      <path class="cls-1" d="m46.8,18.34c0-1.47.54-2.74,1.62-3.81,1.08-1.07,2.37-1.6,3.85-1.6,1.48,0,2.76.53,3.82,1.59,1.06,1.06,1.6,2.33,1.6,3.82v6.21c0,.36-.13.68-.4.96-.27.28-.59.42-.97.42s-.71-.14-.98-.42c-.27-.28-.4-.6-.4-.96v-6.21c0-.75-.26-1.37-.77-1.88-.51-.51-1.14-.77-1.88-.77s-1.38.26-1.91.77c-.53.51-.8,1.14-.82,1.88v6.21c0,.36-.13.68-.39.96-.26.28-.58.42-.95.42s-.7-.14-.99-.42c-.29-.28-.43-.6-.43-.96v-6.21Z"/>
      <path class="cls-1" d="m91.18,21.09c0,1.47-.54,2.74-1.62,3.81-1.08,1.07-2.37,1.6-3.85,1.6-1.48,0-2.76-.53-3.82-1.59-1.06-1.06-1.6-2.33-1.6-3.82v-6.21c0-.36.13-.68.4-.96.27-.28.59-.42.97-.42s.71.14.98.42c.27.28.4.6.4.96v6.21c0,.75.26,1.37.77,1.88.51.51,1.14.77,1.88.77s1.38-.26,1.91-.77c.53-.51.8-1.14.82-1.88v-6.21c0-.36.13-.68.39-.96.26-.28.58-.42.95-.42s.7.14.99.42c.29.28.43.6.43.96v6.21Z"/>
      <g>
        <path class="cls-1" d="m80.27,51.86c0-1.47.54-2.74,1.62-3.81,1.08-1.07,2.37-1.6,3.85-1.6,1.48,0,2.76.53,3.82,1.59,1.06,1.06,1.6,2.33,1.6,3.82v6.21c0,.36-.13.68-.4.96-.27.28-.59.42-.97.42s-.71-.14-.98-.42c-.27-.28-.4-.6-.4-.96v-6.21c0-.75-.26-1.37-.77-1.88-.51-.51-1.14-.77-1.88-.77s-1.38.26-1.91.77c-.53.51-.8,1.14-.82,1.88v6.21c0,.36-.13.68-.39.96-.26.28-.58.42-.95.42-.37,0-.7-.14-.99-.42-.29-.28-.43-.6-.43-.96v-6.21Z"/>
        <rect class="cls-1" x="82.15" y="53.68" width="7.47" height="3.23"/>
      </g>
    </g>
  </g>
</svg>