<?xml version="1.0" encoding="utf-8"?>
<!-- Generator: Adobe Illustrator 28.0.0, SVG Export Plug-In . SVG Version: 6.00 Build 0)  -->
<svg version="1.1" id="Layer_1" xmlns="http://www.w3.org/2000/svg" xmlns:xlink="http://www.w3.org/1999/xlink" x="0px" y="0px"
	 viewBox="0 0 198 197.4" style="enable-background:new 0 0 198 197.4;" xml:space="preserve">
<g>
	<g>
		<g>
			<path d="M88.8,65.5h-2.7L83,55.4l-3.1,10.1h-2.7l-4.4-16.7h3.4l2.6,10.5l3-10.5h2.4l3,10.5l2.6-10.5h3.4L88.8,65.5z"/>
			<path d="M101.8,65.5V58c0-0.8-0.2-1.3-0.6-1.6c-0.4-0.3-0.9-0.5-1.4-0.5s-1,0.2-1.4,0.5c-0.4,0.3-0.6,0.9-0.6,1.6v7.5h-3V48.8h3
				v5.6c0.8-0.8,1.8-1.3,2.9-1.3c1.3,0,2.3,0.4,3,1.2c0.7,0.8,1.1,1.9,1.1,3.2v7.9C104.9,65.5,101.8,65.5,101.8,65.5z"/>
			<path d="M113.8,65.5v-1.1c-0.4,0.4-0.8,0.7-1.3,0.9s-1,0.3-1.7,0.3c-1.4,0-2.4-0.3-3.1-1.1s-1-1.6-1-2.8c0-1,0.3-1.9,1.1-2.5
				c0.7-0.7,1.7-1,3.1-1h2.9v-0.6c0-0.7-0.2-1.2-0.5-1.5s-0.9-0.5-1.7-0.5c-0.6,0-1,0.1-1.4,0.2c-0.3,0.1-0.6,0.4-1,0.8l-1.9-1.9
				c0.6-0.6,1.2-1.1,1.8-1.3c0.6-0.2,1.5-0.4,2.6-0.4c3.5,0,5.2,1.4,5.2,4.3v8L113.8,65.5L113.8,65.5z M113.8,60.3h-2.4
				c-1.1,0-1.7,0.5-1.7,1.4c0,0.9,0.6,1.4,1.8,1.4c0.5,0,0.9,0,1.1-0.1s0.5-0.2,0.8-0.5s0.4-0.8,0.4-1.5L113.8,60.3L113.8,60.3z"/>
			<path d="M123.4,65.5c-1.2,0-2.1-0.3-2.6-1s-0.9-1.5-0.9-2.5v-6h-1.3v-2.3h1.3V50h3v3.6h2.2v2.3h-2.2v5.9c0,0.7,0.3,1.1,1.1,1.1
				h1.1v2.6L123.4,65.5L123.4,65.5z"/>
		</g>
		<g>
			<path d="M81.8,87.2h-2.7l-3.1-10.1L73,87.2h-2.7l-4.4-16.7h3.4L71.8,81l3-10.5h2.4l3,10.5l2.6-10.5h3.4L81.8,87.2z"/>
			<path d="M96.5,85.8c-0.4,0.4-0.9,0.8-1.6,1.1c-0.6,0.3-1.4,0.4-2.2,0.4c-0.8,0-1.6-0.1-2.2-0.4c-0.6-0.3-1.2-0.7-1.7-1.2
				s-0.8-1.1-1-1.8c-0.2-0.7-0.3-1.7-0.3-2.8c0-1.2,0.1-2.1,0.3-2.8s0.5-1.3,1-1.8c0.5-0.5,1-0.9,1.7-1.2s1.3-0.4,2.2-0.4
				c0.8,0,1.6,0.1,2.2,0.4c0.6,0.3,1.2,0.7,1.7,1.2s0.8,1.1,1,1.8c0.2,0.7,0.3,1.7,0.3,2.8c0,1.2-0.1,2.2-0.3,2.8
				S97.1,85.2,96.5,85.8z M94.2,78.1c-0.4-0.4-0.8-0.5-1.4-0.5c-0.6,0-1,0.2-1.3,0.5c-0.3,0.3-0.5,0.7-0.6,1.2
				c-0.1,0.5-0.1,1.1-0.1,1.8c0,1,0.1,1.7,0.2,2c0.1,0.4,0.3,0.7,0.6,1c0.3,0.3,0.7,0.5,1.3,0.5c0.6,0,1.1-0.2,1.4-0.5
				s0.5-0.7,0.6-1.2c0.1-0.5,0.1-1.1,0.1-1.8c0-0.8,0-1.4-0.1-1.8C94.7,78.8,94.5,78.4,94.2,78.1z"/>
			<path d="M106.5,78.3c-0.2-0.2-0.5-0.4-0.7-0.6s-0.5-0.2-0.9-0.2c-0.5,0-1,0.2-1.4,0.6s-0.6,0.9-0.6,1.7v7.4h-3V75h3v1.2
				c0.3-0.4,0.7-0.7,1.3-0.9c0.6-0.3,1.2-0.4,1.8-0.4c0.6,0,1.1,0.1,1.6,0.3c0.4,0.2,0.9,0.5,1.3,0.9L106.5,78.3z"/>
			<path d="M117.4,87.2l-3-5.1l-1.3,1.5v3.6h-3V70.5h3v9.4l4-4.9l3.7,0l-4.3,4.9l4.7,7.3C121.1,87.2,117.4,87.2,117.4,87.2z"/>
			<path d="M126.8,87.3c-1.2,0-2.2-0.1-2.9-0.3c-0.8-0.2-1.5-0.7-2.3-1.4l2-2c0.4,0.4,0.9,0.7,1.5,0.9c0.6,0.2,1.2,0.2,1.7,0.2
				c0.6,0,1.1-0.1,1.5-0.3c0.4-0.2,0.6-0.5,0.6-1c0-0.3-0.1-0.6-0.3-0.8c-0.2-0.2-0.5-0.3-1-0.4l-1.9-0.2c-1.2-0.1-2-0.4-2.6-1
				s-0.9-1.3-0.9-2.4c0-1.2,0.5-2.2,1.4-2.8c0.9-0.7,2-1,3.3-1c1.1,0,2,0.1,2.7,0.3c0.7,0.2,1.4,0.6,2,1.1l-1.9,1.9
				c-0.3-0.3-0.7-0.5-1.2-0.6c-0.5-0.1-1-0.2-1.6-0.2c-0.6,0-1,0.1-1.3,0.3c-0.3,0.2-0.4,0.5-0.4,0.8c0,0.3,0.1,0.5,0.3,0.7
				c0.2,0.2,0.5,0.3,1,0.3l1.9,0.2c1.2,0.1,2.1,0.5,2.7,1.1c0.6,0.6,0.9,1.4,0.9,2.5c0,1.3-0.5,2.3-1.4,3
				C129.6,87,128.3,87.3,126.8,87.3z"/>
		</g>
		<g>
			<path d="M77.7,110.2c-0.9,0-1.7-0.2-2.5-0.5s-1.5-0.8-2.2-1.5c-0.7-0.7-1.1-1.5-1.3-2.4s-0.2-2.3-0.2-4.1c0-1.8,0.1-3.2,0.3-4.1
				c0.2-0.9,0.6-1.7,1.3-2.4c0.7-0.7,1.4-1.2,2.1-1.5c0.7-0.3,1.6-0.5,2.5-0.5c1.6,0,3,0.4,4.1,1.4c1.1,0.9,1.8,2.2,2.1,3.9h-3.3
				c-0.2-0.7-0.5-1.3-0.9-1.7s-1.1-0.6-1.9-0.6c-0.9,0-1.5,0.2-1.9,0.7c-0.4,0.5-0.7,1-0.8,1.7c-0.1,0.6-0.2,1.7-0.2,3.2
				c0,1.6,0.1,2.7,0.2,3.2s0.4,1.1,0.8,1.6c0.4,0.5,1.1,0.7,1.9,0.7c0.8,0,1.4-0.2,1.9-0.6s0.8-1,0.9-1.7h3.3c-0.3,1.7-1,3-2.1,3.9
				C80.6,109.8,79.3,110.2,77.7,110.2z"/>
			<path d="M85.8,95.8v-2.5h3v2.5H85.8z M85.8,110.1V97.9h3v12.2H85.8z"/>
			<path d="M95.3,110.1c-1.2,0-2.1-0.3-2.6-1s-0.9-1.5-0.9-2.5v-6.1h-1.3v-2.3h1.3v-3.6h3v3.6h2.2v2.3h-2.2v5.9
				c0,0.7,0.3,1.1,1.1,1.1h1.1v2.6L95.3,110.1L95.3,110.1z"/>
			<path d="M99,95.8v-2.5h3v2.5H99z M99,110.1V97.9h3v12.2H99z"/>
			<path d="M107.3,104.9c0,0.8,0.2,1.5,0.7,2c0.5,0.5,1.1,0.8,2,0.8c0.6,0,1.1-0.1,1.5-0.3c0.4-0.2,0.8-0.5,1.2-0.9l1.8,1.8
				c-0.7,0.7-1.3,1.2-2,1.5c-0.7,0.3-1.6,0.5-2.6,0.5c-1.7,0-3-0.5-4.1-1.4c-1-0.9-1.6-2.6-1.6-4.8c0-1.9,0.5-3.5,1.4-4.6
				c1-1.1,2.2-1.7,3.9-1.7c1.7,0,2.9,0.5,3.9,1.6s1.4,2.5,1.4,4.2v1.4H107.3z M111.7,101.5c-0.2-0.4-0.4-0.7-0.8-0.9
				c-0.3-0.2-0.8-0.3-1.3-0.3s-0.9,0.1-1.3,0.3c-0.3,0.2-0.6,0.6-0.8,1s-0.3,0.8-0.3,1.3h4.6C112,102.4,111.9,102,111.7,101.5z"/>
			<path d="M121.1,110.2c-1.2,0-2.2-0.1-2.9-0.3c-0.8-0.2-1.5-0.7-2.3-1.4l2-2c0.4,0.4,0.9,0.7,1.5,0.9c0.6,0.2,1.2,0.2,1.7,0.2
				c0.6,0,1.1-0.1,1.5-0.3c0.4-0.2,0.6-0.5,0.6-1c0-0.3-0.1-0.6-0.3-0.8c-0.2-0.2-0.5-0.3-1-0.4l-1.9-0.2c-1.2-0.1-2-0.4-2.6-1
				s-0.9-1.3-0.9-2.4c0-1.2,0.5-2.2,1.4-2.8c0.9-0.7,2-1,3.3-1c1.1,0,2,0.1,2.7,0.3c0.7,0.2,1.4,0.6,2,1.1l-1.9,1.9
				c-0.3-0.3-0.7-0.5-1.2-0.6c-0.5-0.1-1-0.2-1.6-0.2c-0.6,0-1,0.1-1.3,0.3c-0.3,0.2-0.4,0.5-0.4,0.8c0,0.3,0.1,0.5,0.3,0.7
				c0.2,0.2,0.5,0.3,1,0.3l1.9,0.2c1.2,0.1,2.1,0.5,2.7,1.1c0.6,0.6,0.9,1.4,0.9,2.5c0,1.3-0.5,2.3-1.4,3
				C123.9,109.9,122.6,110.2,121.1,110.2z"/>
		</g>
		<g>
			<path d="M44.3,134.3c-0.9,0-1.7-0.2-2.5-0.5c-0.8-0.3-1.5-0.8-2.2-1.5c-0.7-0.7-1.1-1.5-1.3-2.4s-0.2-2.3-0.2-4.1
				c0-1.8,0.1-3.2,0.3-4.1s0.6-1.7,1.3-2.4c0.7-0.7,1.4-1.2,2.1-1.5c0.7-0.3,1.6-0.5,2.5-0.5c1.6,0,3,0.4,4.1,1.4
				c1.1,0.9,1.8,2.2,2.1,3.9h-3.3c-0.2-0.7-0.5-1.3-1-1.7s-1.1-0.6-1.9-0.6c-0.9,0-1.5,0.2-1.9,0.7c-0.4,0.5-0.7,1-0.8,1.7
				c-0.1,0.6-0.2,1.7-0.2,3.2c0,1.6,0,2.7,0.2,3.2s0.4,1.1,0.8,1.6c0.4,0.5,1.1,0.7,2,0.7c0.8,0,1.4-0.2,1.9-0.6s0.8-1,1-1.7h3.3
				c-0.3,1.7-1,3-2.1,3.9C47.2,133.8,45.9,134.3,44.3,134.3z"/>
			<path d="M55.3,129c0,0.8,0.2,1.5,0.7,2c0.5,0.5,1.1,0.8,2,0.8c0.6,0,1.1-0.1,1.5-0.3c0.4-0.2,0.8-0.5,1.2-0.9l1.8,1.8
				c-0.7,0.7-1.3,1.2-2,1.5s-1.5,0.5-2.6,0.5c-1.7,0-3-0.5-4.1-1.4c-1-0.9-1.6-2.6-1.6-4.8c0-1.9,0.5-3.5,1.5-4.6s2.2-1.7,3.9-1.7
				c1.7,0,3,0.5,3.9,1.6s1.4,2.5,1.4,4.2v1.4H55.3z M59.7,125.6c-0.2-0.4-0.4-0.7-0.8-0.9c-0.3-0.2-0.8-0.3-1.3-0.3
				s-0.9,0.1-1.3,0.3c-0.3,0.2-0.6,0.6-0.8,1s-0.3,0.8-0.3,1.3H60C60,126.5,59.9,126.1,59.7,125.6z"/>
			<path d="M71.4,125.3c-0.2-0.2-0.5-0.4-0.7-0.6s-0.5-0.2-0.9-0.2c-0.5,0-1,0.2-1.4,0.6s-0.6,0.9-0.6,1.7v7.4h-3V122h3v1.2
				c0.3-0.4,0.7-0.7,1.3-0.9s1.2-0.4,1.8-0.4c0.6,0,1.1,0.1,1.6,0.3c0.4,0.2,0.9,0.5,1.3,0.9L71.4,125.3z"/>
			<path d="M79.3,134.2c-1.2,0-2.1-0.3-2.6-1c-0.6-0.7-0.9-1.5-0.9-2.5v-6.1h-1.3v-2.3h1.3v-3.6h3v3.6H81v2.3h-2.2v5.9
				c0,0.7,0.3,1.1,1.1,1.1H81v2.6L79.3,134.2L79.3,134.2z"/>
			<path d="M82.9,119.9v-2.5h3v2.5H82.9z M82.9,134.2V122h3v12.2H82.9z"/>
			<path d="M91.9,124.6v9.5h-3v-9.5h-1.3v-2.3h1.3v-1.5c0-0.9,0.3-1.8,0.9-2.4c0.6-0.7,1.5-1,2.7-1h1.7v2.6h-1.2
				c-0.7,0-1.1,0.4-1.1,1.1v1.3h2.2v2.3C94.1,124.6,91.9,124.6,91.9,124.6z"/>
			<path d="M95.8,119.9v-2.5h3v2.5H95.8z M95.8,134.2V122h3v12.2H95.8z"/>
			<path d="M106.6,134.3c-1.5,0-2.7-0.5-3.8-1.4s-1.6-2.6-1.6-4.8c0-2.2,0.5-3.8,1.6-4.8c1.1-0.9,2.3-1.4,3.8-1.4c1.6,0,3,0.6,4,1.6
				l-2.1,2.1c-0.3-0.3-0.6-0.6-0.9-0.7c-0.3-0.2-0.7-0.2-1-0.2c-0.7,0-1.3,0.3-1.7,0.8c-0.4,0.6-0.7,1.4-0.7,2.7
				c0,1.2,0.2,2.1,0.7,2.7c0.4,0.6,1,0.8,1.7,0.8s1.4-0.3,2-1l2.1,2C109.6,133.7,108.2,134.3,106.6,134.3z"/>
			<path d="M118.7,134.2v-1.1c-0.4,0.4-0.8,0.7-1.3,0.9s-1,0.3-1.7,0.3c-1.4,0-2.4-0.4-3.1-1.1c-0.7-0.7-1-1.6-1-2.8
				c0-1,0.3-1.9,1.1-2.6c0.7-0.7,1.7-1,3.1-1h2.9v-0.6c0-0.7-0.2-1.2-0.5-1.5c-0.3-0.3-0.9-0.5-1.7-0.5c-0.6,0-1,0.1-1.4,0.2
				c-0.3,0.1-0.6,0.4-1,0.8l-1.9-1.9c0.6-0.6,1.2-1.1,1.8-1.3s1.5-0.4,2.6-0.4c3.5,0,5.2,1.4,5.2,4.3v8L118.7,134.2L118.7,134.2z
				 M118.6,129h-2.4c-1.1,0-1.7,0.5-1.7,1.4c0,0.9,0.6,1.4,1.8,1.4c0.5,0,0.9,0,1.1-0.1s0.5-0.2,0.8-0.5s0.4-0.8,0.4-1.5L118.6,129
				L118.6,129z"/>
			<path d="M128.1,134.2c-1.2,0-2.1-0.3-2.6-1c-0.6-0.7-0.9-1.5-0.9-2.5v-6.1h-1.3v-2.3h1.3v-3.6h3v3.6h2.2v2.3h-2.2v5.9
				c0,0.7,0.3,1.1,1,1.1h1.1v2.6L128.1,134.2L128.1,134.2z"/>
			<path d="M132,119.9v-2.5h3v2.5H132z M132,134.2V122h3v12.2H132z"/>
			<path d="M145.9,132.8c-0.4,0.4-0.9,0.8-1.6,1.1c-0.6,0.3-1.4,0.4-2.2,0.4c-0.8,0-1.6-0.1-2.2-0.4c-0.6-0.3-1.2-0.7-1.6-1.2
				s-0.8-1.1-1-1.8c-0.2-0.7-0.3-1.7-0.3-2.8c0-1.2,0.1-2.1,0.3-2.8s0.5-1.3,1-1.8c0.5-0.5,1-0.9,1.6-1.2s1.4-0.4,2.2-0.4
				c0.8,0,1.6,0.1,2.2,0.4c0.6,0.3,1.2,0.7,1.7,1.2c0.5,0.5,0.8,1.1,1,1.8c0.2,0.7,0.3,1.7,0.3,2.8c0,1.2-0.1,2.2-0.3,2.9
				S146.4,132.2,145.9,132.8z M143.5,125.1c-0.4-0.4-0.8-0.5-1.4-0.5c-0.6,0-1,0.2-1.3,0.5c-0.3,0.3-0.5,0.7-0.6,1.2
				s-0.1,1.1-0.1,1.8c0,1,0.1,1.7,0.2,2s0.3,0.7,0.6,1c0.3,0.3,0.7,0.5,1.3,0.5c0.6,0,1.1-0.2,1.4-0.5c0.3-0.3,0.5-0.7,0.6-1.2
				c0.1-0.5,0.1-1.1,0.1-1.8c0-0.8,0-1.4-0.1-1.8C144,125.8,143.8,125.4,143.5,125.1z"/>
			<path d="M156.6,134.2v-7.4c0-0.8-0.2-1.3-0.6-1.7c-0.4-0.4-0.9-0.5-1.4-0.5c-0.6,0-1.1,0.2-1.4,0.5s-0.6,0.9-0.6,1.7v7.4h-3V122
				h3v1.1c0.8-0.8,1.8-1.3,3-1.3c0.6,0,1.1,0.1,1.6,0.3c0.5,0.2,0.9,0.5,1.3,0.9c0.4,0.4,0.7,0.9,0.9,1.4s0.3,1.2,0.3,1.9v7.8H156.6
				z"/>
		</g>
	</g>
	<g>
		<g>
			<path d="M12.7,135.6c-0.6-1.4-1.1-2.9-1.7-4.4l14-4.9c0.4,1.2,0.9,2.5,1.4,3.7L12.7,135.6z M190.8,116.5l-14.7-2.6
				c0.2-1.3,0.4-2.6,0.6-3.9l14.8,1.8C191.4,113.4,191.1,115,190.8,116.5z M7.2,116c-0.3-1.5-0.5-3.1-0.7-4.7l14.8-1.8
				c0.1,1.3,0.3,2.6,0.6,3.9L7.2,116z M191.8,109.8l-14.8-1.5c0.1-1.3,0.2-2.6,0.3-3.9l14.9,0.7
				C192.1,106.6,191.9,108.2,191.8,109.8z M6.3,109.3c-0.2-1.6-0.3-3.1-0.3-4.7l14.9-0.7c0.1,1.3,0.1,2.6,0.3,3.9L6.3,109.3z
				 M5.9,102.5L5.9,102.5c0-1.6,0-3.2,0-4.7l14.9,0.4c0,1.3,0,2.6,0,3.9L5.9,102.5z M176.8,91c-0.1-1.3-0.3-2.6-0.6-3.9l14.7-2.5
				c0.3,1.5,0.5,3.1,0.7,4.7L176.8,91z M22.2,85.1L7.6,82.2c0.3-1.5,0.7-3.1,1-4.6l14.4,3.6C22.7,82.5,22.5,83.8,22.2,85.1z
				 M168.4,63.9c-0.6-1.2-1.3-2.3-1.9-3.4l12.8-7.6c0.8,1.3,1.6,2.7,2.3,4.1L168.4,63.9z M29.9,63.6l-13.1-7
				c0.7-1.4,1.5-2.8,2.3-4.1l12.8,7.7C31.1,61.3,30.5,62.4,29.9,63.6z M162.3,54.2c-0.8-1-1.6-2.1-2.4-3.1l11.6-9.4
				c1,1.2,1.9,2.5,2.9,3.7L162.3,54.2z M36,53.9l-12-8.8c0.9-1.3,1.9-2.5,2.9-3.7l11.5,9.4C37.6,51.8,36.8,52.8,36,53.9z M39.5,49.4
				l-11.3-9.7c1-1.2,2.1-2.4,3.1-3.5l10.8,10.2C41.3,47.4,40.4,48.4,39.5,49.4z M150.8,41.5c-1-0.9-2-1.7-3-2.5l9.2-11.6
				c1.2,1,2.4,2,3.6,3L150.8,41.5z M47.6,41.3l-9.8-11.2c1.2-1,2.4-2,3.6-3l9.2,11.7C49.6,39.6,48.6,40.4,47.6,41.3z M141.6,34.6
				c-1.1-0.7-2.2-1.4-3.4-2.1l7.5-12.9c1.3,0.8,2.7,1.6,4,2.5L141.6,34.6z M56.7,34.4l-8-12.5c1.3-0.9,2.7-1.7,4-2.4l7.4,12.9
				C59,33,57.8,33.7,56.7,34.4z M61.6,31.5l-7.1-13.1c1.4-0.8,2.8-1.5,4.2-2.1l6.4,13.4C64,30.3,62.8,30.9,61.6,31.5z M131.6,29.1
				c-1.2-0.5-2.4-1.1-3.6-1.6l5.5-13.8c1.4,0.6,2.9,1.2,4.3,1.9L131.6,29.1z M120.9,25.1c-1.3-0.4-2.6-0.7-3.8-1l3.4-14.5
				c1.5,0.4,3.1,0.8,4.6,1.2L120.9,25.1z M83,23.7L80,9.1c1.5-0.3,3.1-0.6,4.6-0.8L86.9,23C85.6,23.2,84.3,23.4,83,23.7z M104,22.2
				c-1.3-0.1-2.6-0.1-3.9-0.1l0.2-14.9c1.6,0,3.1,0.1,4.7,0.2L104,22.2z"/>
			<path d="M169,135.6l4.4,2.2c0.6-1.2,1.2-2.5,1.8-3.8l-4.5-2C170.1,133.2,169.6,134.5,169,135.6z"/>
			<path d="M171.4,130.4l4.6,1.9c0.5-1.3,1-2.6,1.5-3.9l-4.6-1.7C172.4,128,171.9,129.2,171.4,130.4z"/>
			<path d="M23.4,120.8l-4.8,1.3c0.4,1.4,0.8,2.7,1.2,4l4.7-1.5C24.1,123.4,23.8,122.1,23.4,120.8z"/>
			<path d="M27.2,131.6l-4.5,2c0.6,1.3,1.1,2.6,1.8,3.8l4.4-2.2C28.3,134,27.7,132.8,27.2,131.6z"/>
			<path d="M177.3,98.6c0,1.3,0,2.6,0,4l4.9,0.1c0-1.4,0-2.8,0-4.2c0-0.1,0-0.1,0-0.2l-4.9,0.1L177.3,98.6z"/>
			<path d="M177.3,96.7l4.9-0.2c-0.1-1.4-0.2-2.8-0.3-4.2l-4.9,0.5C177.1,94.1,177.2,95.4,177.3,96.7z"/>
			<path d="M21.1,92.5L16.2,92c-0.1,1.4-0.2,2.8-0.3,4.2l4.9,0.2C20.9,95.1,21,93.8,21.1,92.5z"/>
			<path d="M174.6,79.8l4.8-1.3c-0.4-1.4-0.8-2.7-1.2-4l-4.7,1.5C173.9,77.2,174.3,78.5,174.6,79.8z"/>
			<path d="M172.9,74.3l4.6-1.6c-0.5-1.3-1-2.6-1.5-3.9l-4.6,1.9C172,71.8,172.5,73.1,172.9,74.3z"/>
			<path d="M26.7,70.4l-4.5-1.9c-0.5,1.3-1,2.6-1.5,3.9l4.6,1.7C25.7,72.8,26.1,71.6,26.7,70.4z"/>
			<path d="M29,65.2l-4.4-2.2c-0.6,1.2-1.2,2.5-1.8,3.8l4.5,2C27.9,67.5,28.5,66.3,29,65.2z"/>
			<path d="M165.5,58.9l4.2-2.6c-0.7-1.2-1.5-2.4-2.3-3.5l-4.1,2.8C164.1,56.7,164.8,57.8,165.5,58.9z"/>
			<path d="M158.8,49.7l3.8-3.2c-0.9-1.1-1.8-2.1-2.8-3.1l-3.6,3.4C157.1,47.7,157.9,48.7,158.8,49.7z"/>
			<path d="M46.3,42.5L43,38.8c-1,0.9-2,1.9-3,2.9l3.5,3.5C44.3,44.3,45.3,43.4,46.3,42.5z"/>
			<path d="M146.3,37.9l3-3.9c-1.1-0.8-2.2-1.7-3.4-2.5l-2.8,4.1C144.2,36.3,145.3,37.1,146.3,37.9z"/>
			<path d="M70.3,27.4l-1.8-4.6c-1.3,0.5-2.6,1.1-3.8,1.6l2,4.5C67.9,28.4,69.2,27.9,70.3,27.4z"/>
			<path d="M115.3,23.7l1-4.8c-1.4-0.3-2.7-0.5-4.1-0.8l-0.8,4.9C112.7,23.2,114.1,23.5,115.3,23.7z"/>
			<path d="M92.6,22.3l-0.4-4.9c-1.4,0.1-2.8,0.3-4.2,0.5l0.7,4.9C89.9,22.5,91.2,22.4,92.6,22.3z"/>
			<path d="M173.4,125l9.4,3.1c0.5-1.4,0.9-2.8,1.3-4.3l-9.5-2.6C174.2,122.5,173.8,123.8,173.4,125z"/>
			<path d="M175,119.6l9.6,2.4c0.4-1.4,0.7-2.9,1-4.3l-9.7-1.9C175.6,117,175.3,118.3,175,119.6z"/>
			<path d="M22.1,115.3l-9.7,1.9c0.3,1.5,0.6,2.9,0.9,4.3l9.6-2.3C22.7,117.9,22.4,116.6,22.1,115.3z"/>
			<path d="M21.9,86.8l-9.7-1.7c-0.2,1.4-0.5,2.9-0.6,4.4l9.8,1.2C21.5,89.4,21.6,88.1,21.9,86.8z"/>
			<path d="M175.9,85.3l9.7-1.9c-0.3-1.5-0.6-2.9-1-4.3l-9.6,2.4C175.4,82.8,175.7,84.1,175.9,85.3z"/>
			<path d="M24.7,75.7l-9.4-3.1c-0.5,1.4-0.9,2.8-1.3,4.3l9.5,2.6C23.9,78.2,24.2,77,24.7,75.7z"/>
			<path d="M170.8,69l9-3.9c-0.6-1.4-1.2-2.7-1.9-4l-8.8,4.4C169.8,66.6,170.3,67.8,170.8,69z"/>
			<path d="M34.9,55.3l-8.1-5.7c-0.9,1.2-1.7,2.5-2.5,3.7l8.4,5.3C33.4,57.5,34.2,56.4,34.9,55.3z"/>
			<path d="M55.2,35.4l-5.5-8.2c-1.2,0.8-2.4,1.7-3.6,2.6l5.9,7.9C53.1,36.9,54.2,36.1,55.2,35.4z"/>
			<path d="M75.8,25.5l-2.9-9.4c-1.4,0.4-2.8,0.9-4.2,1.4l3.4,9.3C73.2,26.4,74.5,25.9,75.8,25.5z"/>
			<path d="M81.3,24L79,14.4c-1.4,0.3-2.9,0.7-4.3,1.1l2.7,9.5C78.7,24.7,80,24.3,81.3,24z"/>
			<path d="M154.9,45.5l7-6.9c-1-1.1-2.1-2.1-3.2-3.1l-6.7,7.2C153.1,43.6,154,44.5,154.9,45.5z"/>
			<path d="M136.7,31.7l4.8-8.6c-1.3-0.7-2.6-1.4-3.9-2l-4.3,8.9C134.4,30.4,135.6,31,136.7,31.7z"/>
			<path d="M126.3,26.9l3.4-9.2c-1.4-0.5-2.8-1-4.2-1.5l-3,9.4C123.8,26,125.1,26.5,126.3,26.9z"/>
			<path d="M98.3,22l-0.1-9.9c-0.4,0-0.7,0-1.1,0c-1.1,0-2.2,0.1-3.3,0.2l0.6,9.8C95.7,22.1,97,22,98.3,22z"/>
			<path d="M109.7,22.7l1.3-9.8c-1.5-0.2-2.9-0.4-4.4-0.5l-0.8,9.8C107.1,22.4,108.4,22.6,109.7,22.7z"/>
		</g>
	</g>
	<g>
		<path d="M26.3,152.2c-0.7-0.1-1.3-0.4-1.9-0.7c-0.5-0.4-1-0.9-1.4-1.4c-0.4-0.6-0.6-1.1-0.8-1.8c-0.1-0.6-0.1-1.3,0-2
			c0.1-0.7,0.5-1.3,1-1.8s1.4-1.1,2.5-1.9c1.2-0.8,2.1-1.3,2.7-1.6c0.7-0.3,1.4-0.4,2.1-0.2c0.7,0.1,1.3,0.4,1.9,0.7
			c0.5,0.3,1,0.8,1.4,1.4c0.8,1.2,1.1,2.3,0.9,3.4c-0.2,1.1-0.7,2.1-1.6,2.9l-1.4-2.1c0.9-0.9,0.9-1.9,0.2-2.9
			c-0.4-0.6-0.8-0.9-1.3-0.9c-0.5-0.1-0.9,0-1.4,0.2c-0.4,0.2-1.1,0.6-2.1,1.3c-1,0.7-1.7,1.2-2,1.5s-0.5,0.7-0.7,1.2
			c-0.1,0.5,0,1,0.4,1.6c0.4,0.6,0.9,1,1.3,1s0.9,0.1,1.1,0s0.6-0.2,0.9-0.4l0.4-0.3l-1.3-1.9L29,146l2.7,4l-1.5,1.1
			c-0.8,0.5-1.5,0.9-2.1,1.1S26.9,152.3,26.3,152.2z"/>
		<path d="M34,161.4c-0.7,0-1.3-0.2-1.8-0.4c-0.5-0.2-1.1-0.6-1.5-1.2c-0.5-0.5-0.8-1.1-1-1.7c-0.2-0.6-0.3-1.2-0.2-2
			c0-0.8,0.3-1.4,0.7-2c0.4-0.6,1.2-1.3,2.2-2.3c1-0.9,1.9-1.6,2.5-2c0.6-0.4,1.3-0.6,2-0.5c0.7,0,1.4,0.2,1.9,0.4s1.1,0.7,1.5,1.2
			c0.5,0.5,0.8,1.1,1,1.6s0.3,1.2,0.2,2c0,0.7-0.3,1.4-0.7,2c-0.5,0.6-1.2,1.3-2.2,2.3c-1,0.9-1.9,1.6-2.5,2
			C35.6,161.3,34.8,161.5,34,161.4z M39.3,154.2c0.1-0.6-0.1-1.1-0.6-1.6c-0.2-0.3-0.5-0.4-0.8-0.6c-0.3-0.1-0.6-0.2-0.9-0.2
			s-0.7,0.1-1.1,0.4c-0.4,0.2-1,0.8-2,1.6c-0.9,0.8-1.5,1.4-1.8,1.8c-0.3,0.3-0.4,0.8-0.5,1.2c-0.1,0.5,0.1,1,0.6,1.5
			c0.5,0.5,0.9,0.8,1.4,0.7c0.5,0,0.9-0.1,1.3-0.4c0.4-0.2,1.1-0.8,1.9-1.6c0.9-0.8,1.5-1.4,1.8-1.8S39.2,154.6,39.3,154.2z"/>
		<path d="M36.1,165.4l8.4-9.7l1.9,1.6l-7,8l4.4,3.8l-1.5,1.7L36.1,165.4z"/>
		<path d="M51.9,175.8c-0.5,0.1-1.1,0.1-1.7-0.1s-1.2-0.4-1.8-0.8l-3.8-2.6l7.1-10.7l3.8,2.6c0.6,0.4,1,0.8,1.4,1.3
			c0.4,0.5,0.6,1.1,0.8,1.8s0.1,1.3-0.2,2c-0.2,0.6-0.6,1.4-1.2,2.2l-0.5,0.7l-0.5,0.7c-0.6,0.9-1.1,1.5-1.6,2
			C53.3,175.4,52.7,175.7,51.9,175.8z M55.2,167.7c0-0.3-0.1-0.6-0.3-0.9c-0.2-0.3-0.4-0.5-0.8-0.8l-1.6-1.1l-4.6,7l1.6,1.1
			c0.7,0.4,1.3,0.6,1.8,0.4c0.5-0.1,0.9-0.4,1.2-0.8c0.3-0.4,0.8-1,1.4-1.9c0.6-0.9,1-1.5,1.2-1.9C55.1,168.5,55.2,168.1,55.2,167.7
			z"/>
		<path d="M62.9,182.9c-0.6-0.3-1.2-0.6-1.6-1.1s-0.8-1-1.1-1.7s-0.3-1.4-0.2-2.1c0.2-0.7,0.5-1.7,1.1-3c0.6-1.3,1-2.2,1.4-2.8
			c0.4-0.6,1-1,1.6-1.3c0.7-0.3,1.3-0.4,1.9-0.4s1.2,0.1,1.9,0.4c1.1,0.5,1.9,1.2,2.4,2.2s0.6,2.1,0.3,3.4l-2.3-1
			c0.1-0.6,0.1-1.1-0.2-1.5c-0.2-0.4-0.6-0.8-1.1-1c-0.6-0.3-1.2-0.3-1.6-0.1c-0.4,0.2-0.8,0.5-1.1,0.9s-0.7,1.2-1.1,2.2
			c-0.5,1.1-0.8,1.9-0.9,2.4s-0.1,0.9,0.1,1.4c0.2,0.5,0.5,0.8,1.2,1.1c0.6,0.2,1.1,0.3,1.5,0.1s0.8-0.5,1.2-0.9l2.3,1
			c-0.7,1.1-1.6,1.8-2.7,2.1C65.1,183.5,64,183.4,62.9,182.9z"/>
		<path d="M69.8,185.6l3.5-12.3l8.1,2.3l-0.6,2.1l-5.7-1.6l-0.8,2.9l4.9,1.4l-0.6,2.1l-4.9-1.4l-0.9,3l5.7,1.6l-0.6,2.1L69.8,185.6z
			"/>
		<path d="M87.7,189.5l-1.7-5.4l-1.8-0.3l-0.8,5.1l-2.5-0.4l1.9-12.7l5,0.7c1.3,0.2,2.2,0.7,2.8,1.6c0.6,0.9,0.9,1.8,0.7,2.9
			c-0.1,0.8-0.4,1.5-1,2s-1.1,0.8-1.8,1l2,5.9L87.7,189.5z M87.3,178.8l-2.3-0.4l-0.5,3.3l2.3,0.4c0.5,0.1,1,0,1.4-0.3
			c0.4-0.3,0.6-0.6,0.7-1.1c0.1-0.5,0-0.9-0.3-1.3C88.3,179.1,87.9,178.8,87.3,178.8z"/>
		<path d="M98.4,179.6l-0.2,10.6l-2.5-0.1l0.2-10.6l-3.3-0.1l0.1-2.2l9.2,0.2l-0.1,2.2L98.4,179.6z"/>
		<path d="M104,190.1l-0.9-12.8l2.5-0.2l0.9,12.8L104,190.1z"/>
		<path d="M110.5,178.8l0.5,3.1l5-0.8l0.3,2.2l-5,0.8l0.8,5.2l-2.5,0.4l-2-12.7l8.3-1.3l0.3,2.2L110.5,178.8z"/>
		<path d="M120.5,187.7l-3.2-12.4l2.4-0.6l3.2,12.4L120.5,187.7z"/>
		<path d="M126.1,186.2l-4.3-12.1l7.9-2.8l0.8,2.1l-5.6,2l1,2.8l4.8-1.7l0.8,2.1l-4.8,1.7l1.1,2.9l5.6-2l0.8,2.1L126.1,186.2z"/>
		<path d="M143.4,177.4c-0.2,0.5-0.5,1-0.9,1.5c-0.4,0.5-0.9,0.8-1.6,1.1l-4.1,2.1l-5.9-11.4l4.1-2.1c0.6-0.3,1.2-0.5,1.8-0.6
			c0.6-0.1,1.2,0,1.9,0.2c0.7,0.2,1.2,0.6,1.6,1.1s0.9,1.2,1.3,2.1l0.4,0.7l0.4,0.7c0.5,0.9,0.8,1.7,1,2.4
			C143.7,175.9,143.6,176.6,143.4,177.4z M137.9,170.6c-0.3-0.1-0.6-0.2-1-0.2s-0.7,0.1-1.1,0.3l-1.7,0.9l3.8,7.4l1.7-0.9
			c0.7-0.4,1.1-0.8,1.2-1.3c0.1-0.5,0.1-1-0.1-1.4c-0.2-0.4-0.5-1.2-1-2.1c-0.5-0.9-0.8-1.6-1.1-1.9
			C138.6,171,138.3,170.7,137.9,170.6z"/>
		<path d="M151,174.1l-1.3-1.7l0.5-7.3c0-0.4,0-0.7-0.1-0.9c-0.1-0.2-0.2-0.5-0.3-0.7c-0.3-0.4-0.6-0.6-1-0.7
			c-0.4-0.1-0.8,0-1.2,0.3c-0.4,0.3-0.6,0.6-0.7,1c-0.1,0.4,0.1,0.8,0.4,1.3l-1.9,1.4c-0.7-0.9-0.9-1.9-0.8-2.9
			c0.2-1,0.7-1.8,1.6-2.5c0.9-0.7,1.9-1,2.9-0.9c1,0.1,1.8,0.6,2.5,1.5c0.4,0.5,0.6,0.9,0.6,1.3s0.1,1,0,1.8l-0.4,5.5l4-3l1.3,1.7
			L151,174.1z"/>
		<path d="M162.1,165.1c-0.8,0.8-1.7,1.1-2.7,1.2s-1.9-0.4-2.7-1.2l-3.7-3.9c-0.8-0.9-1.2-1.8-1.1-2.8s0.5-1.9,1.3-2.6
			c0.8-0.8,1.7-1.1,2.7-1.1c1,0,1.9,0.4,2.7,1.2l3.7,3.9c0.8,0.9,1.2,1.8,1.1,2.8S162.9,164.4,162.1,165.1z M156.9,157.4
			c-0.4-0.4-0.8-0.6-1.2-0.6c-0.4,0-0.8,0.1-1.1,0.4s-0.5,0.7-0.5,1.1c0,0.4,0.2,0.8,0.6,1.2l3.7,3.9c0.4,0.4,0.8,0.6,1.2,0.6
			s0.8-0.1,1.1-0.4s0.5-0.7,0.5-1.1s-0.2-0.8-0.6-1.2L156.9,157.4z"/>
		<path d="M166.6,160.5l-1.6-1.4l-1.2-7.2c-0.1-0.4-0.1-0.7-0.3-0.9s-0.3-0.4-0.5-0.6c-0.4-0.3-0.8-0.5-1.1-0.4s-0.8,0.2-1.1,0.6
			c-0.3,0.4-0.4,0.7-0.4,1.1s0.2,0.8,0.7,1.1l-1.5,1.8c-0.9-0.7-1.3-1.6-1.4-2.6c0-1,0.3-1.9,1-2.8c0.7-0.9,1.6-1.4,2.6-1.5
			s1.9,0.2,2.8,0.9c0.4,0.4,0.8,0.8,0.9,1.2c0.2,0.4,0.3,1,0.4,1.8l0.9,5.4l3.2-3.8l1.6,1.4L166.6,160.5z"/>
		<path d="M175.4,149.4c-0.6,1-1.4,1.6-2.4,1.9c-1,0.3-2,0.1-3-0.6l1.3-1.9c0.4,0.3,0.9,0.4,1.3,0.3s0.8-0.4,1.1-0.8
			c0.3-0.4,0.4-0.9,0.3-1.3c-0.1-0.4-0.4-0.8-0.8-1.1c-0.4-0.3-0.9-0.4-1.3-0.3c-0.4,0.1-0.8,0.4-1.1,0.8l-0.2,0.3l-1.7-1.1l0.2-0.3
			c0.3-0.4,0.4-0.9,0.3-1.3s-0.3-0.7-0.7-1c-0.4-0.3-0.9-0.4-1.2-0.3c-0.4,0.1-0.7,0.3-1,0.7c-0.2,0.4-0.4,0.8-0.3,1.2
			c0.1,0.4,0.3,0.7,0.7,1l-1.3,1.9c-0.9-0.6-1.4-1.4-1.6-2.4c-0.1-1,0.1-1.9,0.7-2.9c0.6-0.9,1.4-1.5,2.4-1.8c1-0.2,1.9-0.1,2.8,0.6
			c0.6,0.4,0.9,0.8,1.1,1.2c0.2,0.5,0.3,0.9,0.2,1.4c0.5-0.3,1.1-0.4,1.6-0.4s1.1,0.2,1.7,0.6c1,0.7,1.6,1.5,1.7,2.5
			C176.3,147.4,176,148.4,175.4,149.4z"/>
	</g>
</g>
</svg>
