<?xml version="1.0" encoding="utf-8"?>
<!-- Generator: Adobe Illustrator 26.5.2, SVG Export Plug-In . SVG Version: 6.00 Build 0)  -->
<svg version="1.1" id="Layer_1" xmlns="http://www.w3.org/2000/svg" xmlns:xlink="http://www.w3.org/1999/xlink" x="0px" y="0px"
	 viewBox="0 0 197.96 197.35" style="enable-background:new 0 0 197.96 197.35;" xml:space="preserve">
<style type="text/css">
	.st0{fill:#B1B3B4;}
	.st1{fill:#626366;}
	.st2{fill:#E9A334;}
</style>
<g>
	<g>
		<g>
			<path class="st2" d="M88.78,65.46h-2.71L83,55.36l-3.06,10.1h-2.71l-4.44-16.67h3.39l2.57,10.5l3.04-10.5h2.43l3.04,10.5
				l2.59-10.5h3.39L88.78,65.46z"/>
			<path class="st2" d="M101.81,65.46v-7.45c0-0.75-0.2-1.3-0.58-1.64c-0.39-0.34-0.86-0.52-1.4-0.52s-1.01,0.17-1.39,0.52
				c-0.38,0.34-0.57,0.89-0.57,1.64v7.45h-3.04V48.79h3.04v5.59c0.83-0.84,1.8-1.26,2.92-1.26c1.31,0,2.31,0.41,3.02,1.22
				c0.7,0.81,1.05,1.89,1.05,3.23v7.89H101.81z"/>
			<path class="st2" d="M113.84,65.46v-1.05c-0.42,0.41-0.85,0.71-1.29,0.88s-1.01,0.26-1.71,0.26c-1.36,0-2.38-0.35-3.07-1.06
				c-0.69-0.71-1.04-1.62-1.04-2.75c0-1.04,0.35-1.89,1.05-2.55c0.7-0.65,1.74-0.98,3.11-0.98h2.88V57.6c0-0.67-0.18-1.16-0.53-1.46
				c-0.35-0.3-0.93-0.46-1.74-0.46c-0.59,0-1.04,0.07-1.36,0.21c-0.31,0.14-0.64,0.41-0.98,0.79l-1.94-1.89
				c0.59-0.64,1.21-1.08,1.85-1.32c0.64-0.24,1.49-0.36,2.55-0.36c3.46,0,5.19,1.44,5.19,4.31v8.03H113.84z M113.77,60.29h-2.41
				c-1.14,0-1.71,0.46-1.71,1.38c0,0.93,0.58,1.4,1.75,1.4c0.48,0,0.86-0.03,1.12-0.1c0.26-0.07,0.54-0.24,0.82-0.5
				c0.28-0.26,0.42-0.77,0.42-1.52V60.29z"/>
			<path class="st2" d="M123.37,65.46c-1.17,0-2.05-0.34-2.64-1.02c-0.59-0.68-0.89-1.5-0.89-2.47v-6.05h-1.29v-2.31h1.29v-3.6h3.04
				v3.6h2.15v2.31h-2.15v5.86c0,0.73,0.35,1.1,1.05,1.1h1.1v2.57H123.37z"/>
		</g>
		<g>
			<path class="st2" d="M81.84,87.2h-2.71l-3.06-10.1l-3.06,10.1h-2.71l-4.44-16.67h3.39l2.57,10.5l3.04-10.5h2.43l3.04,10.5
				l2.59-10.5h3.39L81.84,87.2z"/>
			<path class="st2" d="M96.53,85.82c-0.42,0.45-0.94,0.81-1.57,1.09c-0.62,0.27-1.36,0.41-2.22,0.41c-0.84,0-1.57-0.14-2.2-0.41
				c-0.62-0.27-1.17-0.66-1.65-1.16c-0.48-0.5-0.81-1.11-1.01-1.83c-0.19-0.73-0.29-1.67-0.29-2.84c0-1.2,0.09-2.14,0.28-2.83
				c0.19-0.69,0.52-1.29,1.01-1.8c0.48-0.51,1.03-0.91,1.65-1.18c0.62-0.27,1.35-0.41,2.21-0.41c0.84,0,1.58,0.14,2.21,0.41
				c0.63,0.27,1.18,0.66,1.66,1.16c0.48,0.5,0.81,1.11,1.01,1.84c0.19,0.72,0.29,1.66,0.29,2.82c0,1.22-0.09,2.17-0.28,2.85
				S97.07,85.24,96.53,85.82z M94.17,78.13c-0.36-0.36-0.83-0.54-1.43-0.54c-0.58,0-1.03,0.16-1.34,0.48
				c-0.32,0.32-0.53,0.72-0.62,1.19c-0.09,0.48-0.14,1.08-0.14,1.81c0,0.98,0.05,1.66,0.16,2.03c0.11,0.37,0.32,0.71,0.62,1.02
				c0.3,0.3,0.74,0.46,1.32,0.46c0.59,0,1.05-0.16,1.37-0.48c0.32-0.32,0.53-0.72,0.62-1.19c0.09-0.48,0.14-1.09,0.14-1.83
				c0-0.8-0.04-1.41-0.12-1.84C94.67,78.81,94.48,78.44,94.17,78.13z"/>
			<path class="st2" d="M106.5,78.31c-0.25-0.25-0.49-0.43-0.72-0.55c-0.23-0.12-0.53-0.18-0.89-0.18c-0.53,0-0.99,0.19-1.38,0.57
				c-0.39,0.38-0.58,0.94-0.58,1.68v7.36h-3.04v-12.2h2.97v1.17c0.3-0.36,0.72-0.67,1.29-0.92c0.56-0.26,1.15-0.39,1.78-0.39
				c0.61,0,1.13,0.09,1.58,0.26c0.44,0.17,0.88,0.47,1.3,0.89L106.5,78.31z"/>
			<path class="st2" d="M117.37,87.2l-2.99-5.1l-1.29,1.46v3.64h-3.04V70.53h3.04v9.4l4.04-4.94l3.67,0.01l-4.34,4.91l4.68,7.29
				H117.37z"/>
			<path class="st2" d="M126.8,87.31c-1.17,0-2.15-0.11-2.93-0.34c-0.79-0.23-1.54-0.7-2.26-1.41l1.99-1.99
				c0.44,0.44,0.94,0.74,1.52,0.9c0.58,0.16,1.15,0.24,1.73,0.24c0.59,0,1.1-0.1,1.52-0.3c0.42-0.2,0.63-0.52,0.63-0.96
				c0-0.31-0.1-0.56-0.29-0.76c-0.19-0.19-0.53-0.32-0.99-0.36l-1.92-0.19c-1.15-0.11-2.03-0.43-2.64-0.97
				c-0.61-0.54-0.91-1.35-0.91-2.44c0-1.22,0.46-2.17,1.37-2.85c0.91-0.69,2.02-1.03,3.33-1.03c1.06,0,1.96,0.1,2.69,0.3
				c0.73,0.2,1.39,0.58,1.96,1.12l-1.87,1.89c-0.31-0.28-0.72-0.49-1.24-0.62c-0.51-0.13-1.04-0.2-1.59-0.2
				c-0.56,0-0.99,0.11-1.29,0.34c-0.3,0.23-0.44,0.5-0.44,0.83c0,0.28,0.09,0.51,0.26,0.7c0.17,0.19,0.51,0.3,1.01,0.35l1.92,0.19
				c1.18,0.11,2.08,0.47,2.7,1.09c0.62,0.62,0.92,1.45,0.92,2.49c0,1.29-0.48,2.28-1.44,2.96C129.57,86.98,128.33,87.31,126.8,87.31
				z"/>
		</g>
		<g>
			<path class="st2" d="M77.67,110.21c-0.89,0-1.71-0.16-2.47-0.47c-0.76-0.31-1.47-0.81-2.15-1.48c-0.68-0.68-1.1-1.47-1.26-2.38
				s-0.25-2.29-0.25-4.13c0-1.82,0.09-3.2,0.26-4.13c0.17-0.93,0.6-1.73,1.27-2.41c0.68-0.68,1.38-1.17,2.12-1.47
				c0.73-0.3,1.56-0.46,2.48-0.46c1.6,0,2.96,0.45,4.06,1.36c1.1,0.9,1.79,2.21,2.07,3.9h-3.3c-0.17-0.72-0.49-1.29-0.95-1.72
				c-0.46-0.43-1.08-0.64-1.86-0.64c-0.89,0-1.54,0.23-1.94,0.69c-0.41,0.46-0.67,1.01-0.78,1.65c-0.12,0.64-0.18,1.71-0.18,3.23
				c0,1.57,0.05,2.66,0.16,3.25c0.11,0.59,0.37,1.13,0.78,1.6c0.41,0.48,1.06,0.71,1.95,0.71c0.78,0,1.4-0.21,1.86-0.64
				c0.46-0.43,0.78-1,0.95-1.72h3.3c-0.28,1.68-0.97,2.98-2.08,3.89C80.61,109.76,79.26,110.21,77.67,110.21z"/>
			<path class="st2" d="M85.79,95.81v-2.48h3.04v2.48H85.79z M85.79,110.1v-12.2h3.04v12.2H85.79z"/>
			<path class="st2" d="M95.26,110.1c-1.17,0-2.05-0.34-2.64-1.02c-0.59-0.68-0.89-1.5-0.89-2.47v-6.05h-1.29v-2.31h1.29v-3.6h3.04
				v3.6h2.15v2.31h-2.15v5.86c0,0.73,0.35,1.1,1.05,1.1h1.1v2.57H95.26z"/>
			<path class="st2" d="M98.98,95.81v-2.48h3.04v2.48H98.98z M98.98,110.1v-12.2h3.04v12.2H98.98z"/>
			<path class="st2" d="M107.34,104.93c0,0.81,0.23,1.47,0.7,1.96c0.47,0.5,1.12,0.75,1.96,0.75c0.62,0,1.13-0.09,1.53-0.26
				c0.4-0.17,0.81-0.47,1.23-0.89l1.85,1.8c-0.67,0.67-1.34,1.16-2.02,1.46c-0.68,0.3-1.55,0.46-2.61,0.46
				c-1.67,0-3.02-0.47-4.07-1.4c-1.04-0.94-1.57-2.55-1.57-4.84c0-1.95,0.48-3.47,1.45-4.57c0.97-1.1,2.25-1.65,3.86-1.65
				c1.65,0,2.95,0.54,3.89,1.62c0.94,1.08,1.41,2.48,1.41,4.2v1.36H107.34z M111.69,101.54c-0.17-0.39-0.43-0.7-0.77-0.92
				c-0.34-0.23-0.76-0.34-1.26-0.34c-0.5,0-0.92,0.11-1.26,0.34c-0.34,0.23-0.6,0.55-0.78,0.97c-0.18,0.42-0.27,0.84-0.27,1.26h4.63
				C111.97,102.43,111.87,101.99,111.69,101.54z"/>
			<path class="st2" d="M121.11,110.21c-1.17,0-2.15-0.11-2.93-0.34c-0.79-0.23-1.54-0.7-2.26-1.41l1.99-1.99
				c0.44,0.44,0.94,0.74,1.52,0.9c0.58,0.16,1.15,0.24,1.73,0.24c0.59,0,1.1-0.1,1.52-0.3c0.42-0.2,0.63-0.52,0.63-0.96
				c0-0.31-0.1-0.56-0.29-0.76c-0.19-0.19-0.53-0.32-0.99-0.36l-1.92-0.19c-1.15-0.11-2.03-0.43-2.64-0.97s-0.91-1.35-0.91-2.44
				c0-1.22,0.46-2.17,1.37-2.85c0.91-0.69,2.02-1.03,3.33-1.03c1.06,0,1.96,0.1,2.69,0.3c0.73,0.2,1.39,0.58,1.96,1.12l-1.87,1.89
				c-0.31-0.28-0.72-0.49-1.24-0.62c-0.51-0.13-1.04-0.2-1.59-0.2c-0.56,0-0.99,0.11-1.29,0.34c-0.3,0.23-0.44,0.5-0.44,0.83
				c0,0.28,0.09,0.51,0.26,0.7c0.17,0.19,0.51,0.3,1.01,0.35l1.92,0.19c1.18,0.11,2.08,0.47,2.7,1.09c0.62,0.62,0.92,1.45,0.92,2.49
				c0,1.29-0.48,2.28-1.44,2.96C123.88,109.87,122.64,110.21,121.11,110.21z"/>
		</g>
		<g>
			<path class="st2" d="M44.27,134.29c-0.89,0-1.71-0.16-2.47-0.47c-0.76-0.31-1.47-0.81-2.15-1.48c-0.68-0.68-1.1-1.47-1.26-2.38
				c-0.16-0.91-0.25-2.29-0.25-4.13c0-1.82,0.09-3.2,0.26-4.13c0.17-0.93,0.6-1.73,1.27-2.41c0.68-0.68,1.38-1.17,2.12-1.47
				c0.73-0.3,1.56-0.46,2.48-0.46c1.6,0,2.96,0.45,4.06,1.36c1.1,0.9,1.79,2.21,2.07,3.9h-3.3c-0.17-0.72-0.49-1.29-0.95-1.72
				c-0.46-0.43-1.08-0.64-1.86-0.64c-0.89,0-1.54,0.23-1.94,0.69c-0.41,0.46-0.67,1.01-0.78,1.65c-0.12,0.64-0.18,1.71-0.18,3.23
				c0,1.57,0.05,2.66,0.16,3.25c0.11,0.59,0.37,1.13,0.78,1.6c0.41,0.48,1.06,0.71,1.95,0.71c0.78,0,1.4-0.21,1.86-0.64
				c0.46-0.43,0.78-1,0.95-1.72h3.3c-0.28,1.68-0.97,2.98-2.08,3.89C47.21,133.83,45.86,134.29,44.27,134.29z"/>
			<path class="st2" d="M55.33,129c0,0.81,0.23,1.47,0.7,1.96c0.47,0.5,1.12,0.75,1.96,0.75c0.62,0,1.13-0.09,1.53-0.26
				c0.4-0.17,0.81-0.47,1.23-0.89l1.85,1.8c-0.67,0.67-1.34,1.16-2.02,1.46c-0.68,0.3-1.55,0.46-2.61,0.46
				c-1.67,0-3.02-0.47-4.07-1.4c-1.04-0.94-1.57-2.55-1.57-4.84c0-1.95,0.48-3.47,1.45-4.57c0.97-1.1,2.25-1.65,3.86-1.65
				c1.65,0,2.95,0.54,3.89,1.62c0.94,1.08,1.41,2.48,1.41,4.2V129H55.33z M59.68,125.61c-0.17-0.39-0.43-0.7-0.77-0.92
				c-0.34-0.23-0.76-0.34-1.26-0.34c-0.5,0-0.92,0.11-1.26,0.34c-0.34,0.23-0.6,0.55-0.78,0.97c-0.18,0.42-0.27,0.84-0.27,1.26h4.63
				C59.96,126.5,59.86,126.07,59.68,125.61z"/>
			<path class="st2" d="M71.39,125.29c-0.25-0.25-0.49-0.43-0.72-0.55c-0.23-0.12-0.53-0.18-0.89-0.18c-0.53,0-0.99,0.19-1.38,0.57
				c-0.39,0.38-0.58,0.94-0.58,1.68v7.36h-3.04v-12.2h2.97v1.17c0.3-0.36,0.72-0.67,1.29-0.92s1.15-0.39,1.78-0.39
				c0.61,0,1.13,0.09,1.58,0.26c0.44,0.17,0.88,0.47,1.3,0.89L71.39,125.29z"/>
			<path class="st2" d="M79.31,134.17c-1.17,0-2.05-0.34-2.64-1.02c-0.59-0.68-0.89-1.5-0.89-2.47v-6.05h-1.29v-2.31h1.29v-3.6h3.04
				v3.6h2.15v2.31h-2.15v5.86c0,0.73,0.35,1.1,1.05,1.1h1.1v2.57H79.31z"/>
			<path class="st2" d="M82.9,119.89v-2.48h3.04v2.48H82.9z M82.9,134.17v-12.2h3.04v12.2H82.9z"/>
			<path class="st2" d="M91.88,124.63v9.54h-3.04v-9.54h-1.26v-2.31h1.26v-1.52c0-0.95,0.3-1.77,0.9-2.45
				c0.6-0.69,1.48-1.03,2.65-1.03h1.73v2.57h-1.19c-0.7,0-1.05,0.37-1.05,1.1v1.33h2.24v2.31H91.88z"/>
			<path class="st2" d="M95.77,119.89v-2.48h3.04v2.48H95.77z M95.77,134.17v-12.2h3.04v12.2H95.77z"/>
			<path class="st2" d="M106.61,134.29c-1.47,0-2.74-0.48-3.82-1.44c-1.08-0.96-1.62-2.56-1.62-4.8c0-2.24,0.54-3.84,1.61-4.79
				c1.08-0.95,2.35-1.43,3.83-1.43c1.64,0,2.98,0.55,4.02,1.64l-2.06,2.06c-0.31-0.34-0.62-0.59-0.92-0.74
				c-0.3-0.15-0.65-0.22-1.04-0.22c-0.72,0-1.3,0.27-1.74,0.82c-0.44,0.55-0.67,1.43-0.67,2.67c0,1.25,0.22,2.14,0.67,2.69
				c0.44,0.55,1.02,0.82,1.74,0.82c0.72,0,1.37-0.32,1.96-0.96l2.06,2.03C109.57,133.73,108.23,134.29,106.61,134.29z"/>
			<path class="st2" d="M118.71,134.17v-1.05c-0.42,0.41-0.85,0.71-1.29,0.88s-1.01,0.26-1.71,0.26c-1.36,0-2.38-0.35-3.07-1.06
				c-0.69-0.71-1.04-1.62-1.04-2.75c0-1.04,0.35-1.89,1.05-2.55c0.7-0.65,1.74-0.98,3.11-0.98h2.88v-0.61
				c0-0.67-0.18-1.16-0.53-1.46c-0.35-0.3-0.93-0.46-1.74-0.46c-0.59,0-1.04,0.07-1.36,0.21c-0.31,0.14-0.64,0.41-0.98,0.79
				l-1.94-1.89c0.59-0.64,1.21-1.08,1.85-1.32c0.64-0.24,1.49-0.36,2.55-0.36c3.46,0,5.19,1.44,5.19,4.31v8.03H118.71z M118.64,129
				h-2.41c-1.14,0-1.71,0.46-1.71,1.38c0,0.93,0.58,1.4,1.75,1.4c0.48,0,0.86-0.03,1.12-0.1c0.26-0.07,0.54-0.24,0.82-0.5
				c0.28-0.26,0.42-0.77,0.42-1.52V129z"/>
			<path class="st2" d="M128.14,134.17c-1.17,0-2.05-0.34-2.64-1.02c-0.59-0.68-0.89-1.5-0.89-2.47v-6.05h-1.29v-2.31h1.29v-3.6
				h3.04v3.6h2.15v2.31h-2.15v5.86c0,0.73,0.35,1.1,1.05,1.1h1.1v2.57H128.14z"/>
			<path class="st2" d="M132.02,119.89v-2.48h3.04v2.48H132.02z M132.02,134.17v-12.2h3.04v12.2H132.02z"/>
			<path class="st2" d="M145.87,132.79c-0.42,0.45-0.94,0.81-1.57,1.09c-0.62,0.27-1.36,0.41-2.22,0.41c-0.84,0-1.57-0.14-2.2-0.41
				c-0.62-0.27-1.17-0.66-1.65-1.16c-0.48-0.5-0.81-1.11-1.01-1.83c-0.19-0.73-0.29-1.67-0.29-2.84c0-1.2,0.09-2.14,0.28-2.83
				c0.19-0.69,0.52-1.29,1.01-1.8c0.48-0.51,1.03-0.91,1.65-1.18c0.62-0.27,1.35-0.41,2.21-0.41c0.84,0,1.58,0.14,2.21,0.41
				c0.63,0.27,1.18,0.66,1.66,1.16c0.48,0.5,0.81,1.11,1.01,1.84c0.19,0.72,0.29,1.66,0.29,2.82c0,1.22-0.09,2.17-0.28,2.85
				S146.42,132.21,145.87,132.79z M143.51,125.1c-0.36-0.36-0.83-0.54-1.43-0.54c-0.58,0-1.03,0.16-1.34,0.48
				c-0.32,0.32-0.53,0.72-0.62,1.19s-0.14,1.08-0.14,1.81c0,0.98,0.05,1.66,0.16,2.03c0.11,0.37,0.32,0.71,0.62,1.02
				c0.3,0.3,0.74,0.46,1.32,0.46c0.59,0,1.05-0.16,1.37-0.48c0.32-0.32,0.53-0.72,0.62-1.19c0.09-0.48,0.14-1.09,0.14-1.83
				c0-0.8-0.04-1.41-0.12-1.84C144.02,125.78,143.82,125.41,143.51,125.1z"/>
			<path class="st2" d="M156.64,134.17v-7.38c0-0.77-0.2-1.33-0.58-1.69c-0.39-0.36-0.86-0.54-1.43-0.54
				c-0.58,0-1.06,0.18-1.45,0.53c-0.39,0.35-0.58,0.92-0.58,1.7v7.38h-3.04v-12.2h2.97v1.12c0.79-0.84,1.81-1.26,3.04-1.26
				c0.59,0,1.13,0.09,1.62,0.28c0.49,0.19,0.94,0.48,1.33,0.88c0.4,0.4,0.69,0.88,0.88,1.45s0.28,1.21,0.28,1.93v7.8H156.64z"/>
		</g>
	</g>
	<g>
		<g>
			<path class="st2" d="M12.74,135.62c-0.59-1.45-1.15-2.93-1.67-4.4l14.04-4.92c0.43,1.23,0.9,2.47,1.4,3.69L12.74,135.62z
				 M190.84,116.52l-14.66-2.56c0.23-1.29,0.42-2.61,0.58-3.91l14.77,1.82C191.35,113.42,191.11,114.99,190.84,116.52z M7.15,116.02
				c-0.26-1.53-0.48-3.09-0.67-4.65l14.77-1.75c0.15,1.31,0.34,2.63,0.56,3.91L7.15,116.02z M191.77,109.78l-14.8-1.49
				c0.13-1.31,0.23-2.64,0.3-3.94l14.86,0.74C192.05,106.64,191.93,108.22,191.77,109.78z M6.26,109.27
				c-0.15-1.55-0.26-3.13-0.33-4.69l14.86-0.67c0.06,1.31,0.15,2.64,0.28,3.94L6.26,109.27z M5.86,102.48l0-0.08
				c-0.03-1.54-0.03-3.09,0.01-4.61l14.87,0.4c-0.03,1.28-0.04,2.59-0.01,3.88L5.86,102.48z M176.81,91
				c-0.15-1.29-0.34-2.61-0.57-3.91l14.67-2.5c0.26,1.54,0.49,3.11,0.67,4.65L176.81,91z M22.2,85.07L7.6,82.18
				c0.3-1.52,0.65-3.07,1.03-4.59l14.43,3.62C22.74,82.49,22.45,83.79,22.2,85.07z M168.37,63.86c-0.61-1.16-1.26-2.32-1.93-3.44
				l12.8-7.59c0.79,1.34,1.57,2.72,2.29,4.09L168.37,63.86z M29.86,63.58l-13.13-6.99c0.74-1.38,1.52-2.76,2.32-4.1l12.76,7.66
				C31.14,61.26,30.48,62.41,29.86,63.58z M162.32,54.18c-0.77-1.05-1.58-2.1-2.41-3.13l11.56-9.37c0.99,1.22,1.95,2.47,2.86,3.72
				L162.32,54.18z M35.97,53.9L24,45.06c0.93-1.26,1.9-2.51,2.89-3.71l11.51,9.43C37.56,51.79,36.75,52.84,35.97,53.9z M39.53,49.42
				l-11.3-9.68c1.02-1.19,2.08-2.36,3.14-3.49l10.8,10.23C41.28,47.43,40.39,48.42,39.53,49.42z M150.76,41.53
				c-0.98-0.87-2-1.72-3.03-2.53l9.25-11.65c1.22,0.97,2.44,1.99,3.61,3.02L150.76,41.53z M47.58,41.29L37.8,30.08
				c1.16-1.01,2.37-2.02,3.61-3l9.21,11.68C49.58,39.59,48.56,40.44,47.58,41.29z M141.65,34.62c-1.11-0.72-2.24-1.42-3.37-2.07
				l7.47-12.87c1.34,0.78,2.69,1.61,4.01,2.46L141.65,34.62z M56.72,34.43l-8.05-12.51c1.31-0.85,2.67-1.67,4.01-2.44l7.4,12.9
				C58.95,33.03,57.82,33.72,56.72,34.43z M61.63,31.51l-7.12-13.06c1.38-0.75,2.78-1.47,4.19-2.14l6.44,13.41
				C63.96,30.28,62.78,30.89,61.63,31.51z M131.62,29.1c-1.19-0.55-2.42-1.07-3.64-1.56l5.51-13.82c1.45,0.58,2.91,1.2,4.33,1.85
				L131.62,29.1z M120.88,25.11c-1.26-0.37-2.55-0.7-3.81-1l3.41-14.48c1.51,0.36,3.05,0.76,4.55,1.2L120.88,25.11z M83,23.67
				L79.97,9.1c1.54-0.32,3.09-0.6,4.63-0.84l2.28,14.7C85.59,23.16,84.29,23.4,83,23.67z M104.01,22.18
				c-1.31-0.08-2.64-0.13-3.95-0.15l0.18-14.88c1.56,0.02,3.14,0.08,4.69,0.18L104.01,22.18z"/>
			<path class="st2" d="M168.99,135.61l4.4,2.23c0.63-1.25,1.23-2.52,1.8-3.8l-4.51-2C170.15,133.25,169.58,134.46,168.99,135.61z"
				/>
			<path class="st2" d="M171.39,130.41l4.55,1.89c0.54-1.29,1.04-2.6,1.52-3.92l-4.64-1.66
				C172.37,127.96,171.89,129.2,171.39,130.41z"/>
			<path class="st2" d="M23.42,120.85l-4.76,1.28c0.37,1.36,0.76,2.7,1.2,4.02l4.69-1.53C24.14,123.37,23.76,122.1,23.42,120.85z"/>
			<path class="st2" d="M27.2,131.62l-4.52,1.97c0.56,1.29,1.15,2.55,1.78,3.8l4.42-2.2C28.29,134.02,27.72,132.82,27.2,131.62z"/>
			<path class="st2" d="M177.34,98.63c0.03,1.31,0.03,2.64-0.01,3.96l4.94,0.14c0.04-1.39,0.04-2.79,0.01-4.2
				c0-0.06-0.01-0.11-0.01-0.17l-4.94,0.11L177.34,98.63z"/>
			<path class="st2" d="M177.28,96.71l4.92-0.23c-0.06-1.41-0.16-2.8-0.3-4.19l-4.9,0.47C177.12,94.06,177.22,95.39,177.28,96.71z"
				/>
			<path class="st2" d="M21.1,92.47l-4.9-0.49c-0.14,1.39-0.24,2.78-0.31,4.19l4.92,0.24C20.87,95.1,20.97,93.77,21.1,92.47z"/>
			<path class="st2" d="M174.63,79.78l4.76-1.29c-0.37-1.36-0.77-2.7-1.2-4.02l-4.69,1.53C173.91,77.24,174.29,78.51,174.63,79.78z"
				/>
			<path class="st2" d="M172.94,74.32l4.65-1.64c-0.47-1.32-0.96-2.63-1.49-3.92l-4.56,1.87C172.03,71.84,172.5,73.08,172.94,74.32z
				"/>
			<path class="st2" d="M26.66,70.36l-4.55-1.89c-0.54,1.29-1.04,2.6-1.51,3.92l4.64,1.66C25.67,72.82,26.15,71.58,26.66,70.36z"/>
			<path class="st2" d="M29.05,65.16l-4.41-2.22c-0.63,1.25-1.23,2.52-1.79,3.8l4.51,1.99C27.89,67.53,28.46,66.33,29.05,65.16z"/>
			<path class="st2" d="M165.52,58.91l4.18-2.61c-0.74-1.19-1.51-2.36-2.31-3.5l-4.05,2.82C164.09,56.69,164.83,57.8,165.52,58.91z"
				/>
			<path class="st2" d="M158.78,49.69l3.76-3.19c-0.91-1.07-1.84-2.11-2.79-3.13l-3.6,3.38C157.05,47.7,157.93,48.69,158.78,49.69z"
				/>
			<path class="st2" d="M46.27,42.47l-3.32-3.64c-1.03,0.94-2.05,1.91-3.03,2.91l3.5,3.47C44.34,44.28,45.3,43.36,46.27,42.47z"/>
			<path class="st2" d="M146.33,37.91l2.98-3.92c-1.12-0.85-2.25-1.66-3.41-2.45l-2.77,4.07C144.21,36.34,145.28,37.12,146.33,37.91
				z"/>
			<path class="st2" d="M70.35,27.44l-1.81-4.6c-1.3,0.51-2.59,1.06-3.85,1.63l2.04,4.5C67.93,28.43,69.15,27.91,70.35,27.44z"/>
			<path class="st2" d="M115.34,23.72l1.02-4.82c-1.36-0.29-2.74-0.54-4.13-0.77L111.45,23C112.74,23.2,114.05,23.45,115.34,23.72z"
				/>
			<path class="st2" d="M92.57,22.29l-0.4-4.92c-1.4,0.11-2.79,0.26-4.17,0.45l0.65,4.89C89.93,22.54,91.25,22.4,92.57,22.29z"/>
			<path class="st2" d="M173.39,125.04l9.37,3.12c0.47-1.41,0.9-2.83,1.3-4.27l-9.51-2.63C174.19,122.53,173.81,123.8,173.39,125.04
				z"/>
			<path class="st2" d="M175,119.55l9.56,2.41c0.36-1.43,0.69-2.88,0.98-4.34l-9.67-1.92C175.61,116.98,175.32,118.28,175,119.55z"
				/>
			<path class="st2" d="M22.13,115.27l-9.68,1.87c0.28,1.46,0.6,2.91,0.95,4.34l9.58-2.35C22.67,117.86,22.38,116.57,22.13,115.27z"
				/>
			<path class="st2" d="M21.88,86.8l-9.73-1.69c-0.25,1.45-0.47,2.92-0.65,4.4l9.8,1.2C21.45,89.42,21.65,88.1,21.88,86.8z"/>
			<path class="st2" d="M175.93,85.34l9.68-1.87c-0.28-1.46-0.6-2.91-0.96-4.35l-9.57,2.37C175.39,82.77,175.68,84.06,175.93,85.34z
				"/>
			<path class="st2" d="M24.66,75.73l-9.37-3.1c-0.46,1.4-0.89,2.82-1.29,4.26l9.51,2.62C23.86,78.25,24.25,76.98,24.66,75.73z"/>
			<path class="st2" d="M170.84,69l9.04-3.95c-0.59-1.36-1.22-2.7-1.88-4.02l-8.83,4.41C169.76,66.61,170.32,67.81,170.84,69z"/>
			<path class="st2" d="M34.93,55.34l-8.07-5.68c-0.85,1.21-1.67,2.45-2.47,3.71l8.35,5.26C33.44,57.51,34.18,56.4,34.93,55.34z"/>
			<path class="st2" d="M55.24,35.4l-5.52-8.17c-1.23,0.83-2.43,1.69-3.62,2.58l5.93,7.88C53.07,36.91,54.16,36.13,55.24,35.4z"/>
			<path class="st2" d="M75.75,25.54l-2.92-9.41c-1.42,0.44-2.82,0.92-4.21,1.43l3.4,9.26C73.25,26.36,74.5,25.93,75.75,25.54z"/>
			<path class="st2" d="M81.27,24.05l-2.23-9.62c-1.45,0.34-2.89,0.71-4.31,1.11l2.71,9.5C78.71,24.67,80,24.34,81.27,24.05z"/>
			<path class="st2" d="M154.92,45.46l7.04-6.91c-1.04-1.06-2.1-2.09-3.2-3.09l-6.68,7.25C153.05,43.61,154.01,44.54,154.92,45.46z"
				/>
			<path class="st2" d="M136.73,31.67l4.75-8.64c-1.3-0.71-2.62-1.4-3.95-2.05l-4.31,8.87C134.4,30.43,135.58,31.04,136.73,31.67z"
				/>
			<path class="st2" d="M126.33,26.91l3.43-9.24c-1.39-0.52-2.8-1-4.22-1.45l-2.96,9.41C123.83,26.01,125.09,26.45,126.33,26.91z"/>
			<path class="st2" d="M98.3,22.03l-0.1-9.86c-0.37,0-0.73-0.01-1.09,0c-1.12,0.02-2.24,0.09-3.35,0.16l0.58,9.85
				C95.65,22.09,96.97,22.04,98.3,22.03z"/>
			<path class="st2" d="M109.7,22.74l1.33-9.79c-1.46-0.2-2.94-0.36-4.42-0.49l-0.84,9.84C107.09,22.42,108.41,22.56,109.7,22.74z"
				/>
		</g>
	</g>
	<g>
		<path class="st2" d="M26.29,152.23c-0.69-0.12-1.31-0.37-1.85-0.74c-0.54-0.37-1-0.85-1.39-1.42c-0.38-0.56-0.64-1.15-0.77-1.77
			c-0.13-0.62-0.12-1.29,0.01-2.01c0.14-0.72,0.46-1.34,0.97-1.84c0.51-0.5,1.35-1.15,2.52-1.94c1.16-0.79,2.07-1.33,2.74-1.62
			c0.66-0.29,1.36-0.37,2.08-0.23c0.73,0.14,1.34,0.37,1.85,0.7c0.51,0.33,0.96,0.79,1.37,1.39c0.79,1.16,1.09,2.29,0.91,3.4
			c-0.19,1.11-0.71,2.07-1.57,2.89l-1.42-2.08c0.85-0.94,0.93-1.93,0.24-2.95c-0.38-0.56-0.81-0.86-1.29-0.93
			c-0.49-0.06-0.94,0-1.35,0.19c-0.42,0.19-1.13,0.63-2.14,1.32c-1.04,0.71-1.72,1.21-2.04,1.52s-0.54,0.69-0.66,1.17
			c-0.12,0.47,0.01,0.99,0.4,1.56c0.42,0.61,0.86,0.96,1.33,1.02s0.85,0.06,1.15-0.03c0.3-0.09,0.59-0.23,0.85-0.41l0.4-0.27
			l-1.32-1.93l1.74-1.19l2.71,3.97l-1.55,1.06c-0.78,0.53-1.46,0.88-2.07,1.07S26.93,152.33,26.29,152.23z"/>
		<path class="st2" d="M34.02,161.42c-0.66-0.04-1.26-0.18-1.81-0.44c-0.54-0.25-1.06-0.65-1.55-1.2c-0.48-0.54-0.82-1.09-1.03-1.67
			c-0.2-0.58-0.28-1.24-0.24-1.98c0.04-0.75,0.28-1.4,0.72-1.96c0.44-0.56,1.18-1.32,2.24-2.26c1.04-0.94,1.88-1.6,2.5-1.97
			c0.62-0.38,1.3-0.55,2.04-0.51c0.74,0.04,1.38,0.19,1.93,0.45c0.55,0.26,1.06,0.66,1.55,1.21c0.47,0.53,0.81,1.08,1.01,1.65
			s0.28,1.23,0.24,1.97c-0.04,0.74-0.28,1.4-0.73,1.99c-0.45,0.59-1.19,1.34-2.21,2.26c-1.05,0.95-1.89,1.6-2.5,1.97
			C35.57,161.31,34.85,161.47,34.02,161.42z M39.27,154.23c0.08-0.6-0.11-1.15-0.56-1.65c-0.23-0.26-0.48-0.45-0.75-0.57
			c-0.27-0.12-0.57-0.18-0.9-0.18s-0.69,0.12-1.08,0.36c-0.39,0.24-1.04,0.77-1.95,1.59c-0.94,0.84-1.54,1.43-1.81,1.77
			c-0.27,0.34-0.43,0.75-0.49,1.25c-0.06,0.49,0.14,1,0.6,1.5c0.45,0.5,0.92,0.75,1.4,0.74c0.48-0.01,0.94-0.14,1.35-0.39
			c0.42-0.25,1.06-0.77,1.93-1.55c0.91-0.82,1.5-1.41,1.78-1.77S39.22,154.61,39.27,154.23z"/>
		<path class="st2" d="M36.13,165.36l8.41-9.69l1.89,1.64l-6.95,8.01l4.39,3.81l-1.46,1.69L36.13,165.36z"/>
		<path class="st2" d="M51.89,175.84c-0.55,0.11-1.13,0.09-1.74-0.06c-0.61-0.15-1.2-0.42-1.76-0.79l-3.85-2.56l7.11-10.68
			l3.85,2.56c0.57,0.38,1.04,0.81,1.41,1.3c0.37,0.48,0.62,1.07,0.76,1.75c0.14,0.68,0.09,1.34-0.15,1.96
			c-0.24,0.62-0.63,1.36-1.2,2.21l-0.45,0.68l-0.45,0.68c-0.58,0.87-1.12,1.54-1.62,2.02C53.31,175.37,52.67,175.68,51.89,175.84z
			 M55.19,167.73c-0.03-0.34-0.14-0.65-0.31-0.92c-0.18-0.28-0.44-0.53-0.8-0.77l-1.57-1.05l-4.64,6.97l1.57,1.05
			c0.68,0.45,1.27,0.6,1.77,0.45c0.5-0.15,0.91-0.41,1.22-0.77c0.32-0.36,0.77-0.98,1.37-1.88c0.57-0.86,0.96-1.5,1.15-1.91
			C55.14,168.49,55.22,168.1,55.19,167.73z"/>
		<path class="st2" d="M62.86,182.9c-0.63-0.27-1.16-0.63-1.6-1.08c-0.44-0.45-0.8-1.02-1.07-1.71s-0.33-1.38-0.17-2.07
			c0.16-0.69,0.52-1.69,1.08-2.99c0.56-1.29,1.04-2.24,1.44-2.84c0.4-0.6,0.95-1.04,1.63-1.31c0.69-0.27,1.33-0.4,1.94-0.4
			s1.24,0.15,1.89,0.43c1.13,0.49,1.95,1.22,2.45,2.19c0.5,0.97,0.59,2.1,0.27,3.39l-2.33-1c0.1-0.56,0.05-1.06-0.15-1.5
			c-0.2-0.44-0.57-0.78-1.12-1.02c-0.63-0.27-1.16-0.31-1.58-0.1c-0.43,0.2-0.78,0.51-1.06,0.93c-0.28,0.42-0.65,1.16-1.11,2.23
			c-0.48,1.11-0.77,1.9-0.88,2.35s-0.08,0.91,0.07,1.37c0.15,0.46,0.54,0.83,1.16,1.1c0.55,0.24,1.05,0.27,1.51,0.11
			c0.46-0.16,0.85-0.47,1.19-0.93l2.33,1c-0.71,1.1-1.6,1.81-2.66,2.12C65.08,183.48,63.99,183.39,62.86,182.9z"/>
		<path class="st2" d="M69.82,185.55l3.54-12.33l8.11,2.33l-0.62,2.15l-5.71-1.64l-0.83,2.89l4.86,1.4l-0.62,2.15l-4.86-1.4
			l-0.87,3.01l5.71,1.64l-0.62,2.15L69.82,185.55z"/>
		<path class="st2" d="M87.66,189.54l-1.71-5.44l-1.78-0.27l-0.76,5.07l-2.47-0.37l1.9-12.69l4.97,0.74
			c1.26,0.19,2.2,0.71,2.83,1.56c0.63,0.85,0.86,1.83,0.7,2.93c-0.12,0.83-0.45,1.5-0.97,2.01s-1.14,0.83-1.84,0.97l2.01,5.91
			L87.66,189.54z M87.31,178.76l-2.33-0.35l-0.5,3.33l2.33,0.35c0.53,0.08,0.99-0.01,1.37-0.27c0.38-0.26,0.6-0.63,0.68-1.13
			c0.08-0.51-0.03-0.94-0.31-1.29C88.27,179.06,87.86,178.84,87.31,178.76z"/>
		<path class="st2" d="M98.45,179.6l-0.23,10.6l-2.5-0.05l0.23-10.6l-3.35-0.07l0.05-2.23l9.2,0.2l-0.05,2.23L98.45,179.6z"/>
		<path class="st2" d="M103.98,190.07l-0.86-12.8l2.5-0.17l0.86,12.81L103.98,190.07z"/>
		<path class="st2" d="M110.51,178.79l0.49,3.11l5-0.79l0.35,2.2l-5,0.79l0.82,5.16l-2.47,0.39l-2.01-12.67l8.34-1.32l0.35,2.2
			L110.51,178.79z"/>
		<path class="st2" d="M120.5,187.66l-3.17-12.44l2.42-0.62l3.17,12.44L120.5,187.66z"/>
		<path class="st2" d="M126.05,186.22l-4.31-12.09l7.95-2.84l0.75,2.1l-5.59,1.99l1.01,2.83l4.76-1.7l0.75,2.1l-4.76,1.7l1.05,2.95
			l5.59-2l0.75,2.1L126.05,186.22z"/>
		<path class="st2" d="M143.4,177.41c-0.17,0.53-0.47,1.03-0.91,1.49c-0.43,0.46-0.95,0.84-1.55,1.15l-4.12,2.11l-5.86-11.42
			l4.12-2.11c0.61-0.31,1.21-0.51,1.82-0.6c0.6-0.09,1.24-0.02,1.9,0.19c0.66,0.21,1.21,0.58,1.64,1.08s0.88,1.22,1.34,2.13
			l0.37,0.72l0.37,0.72c0.48,0.93,0.8,1.73,0.98,2.4C143.68,175.94,143.64,176.65,143.4,177.41z M137.93,170.57
			c-0.31-0.14-0.63-0.2-0.96-0.18c-0.33,0.02-0.68,0.13-1.07,0.32l-1.68,0.86l3.82,7.45l1.68-0.86c0.73-0.37,1.14-0.81,1.25-1.32
			c0.11-0.51,0.08-0.99-0.07-1.44c-0.16-0.45-0.48-1.16-0.97-2.11c-0.47-0.92-0.84-1.57-1.11-1.94
			C138.56,170.99,138.26,170.72,137.93,170.57z"/>
		<path class="st2" d="M151.04,174.09l-1.28-1.7l0.48-7.32c0.02-0.37,0-0.68-0.06-0.93c-0.06-0.24-0.17-0.48-0.34-0.71
			c-0.29-0.38-0.63-0.61-1.02-0.68c-0.39-0.07-0.79,0.04-1.18,0.34c-0.36,0.27-0.59,0.6-0.67,0.98c-0.08,0.38,0.05,0.8,0.41,1.27
			l-1.87,1.41c-0.69-0.92-0.95-1.87-0.77-2.85c0.18-0.98,0.73-1.81,1.64-2.49c0.92-0.69,1.87-0.99,2.85-0.88
			c0.98,0.1,1.81,0.61,2.5,1.52c0.35,0.47,0.57,0.92,0.64,1.34s0.08,1.03,0.03,1.82l-0.36,5.5l3.96-2.98l1.27,1.68L151.04,174.09z"
			/>
		<path class="st2" d="M162.07,165.15c-0.79,0.75-1.7,1.14-2.72,1.16c-1.02,0.02-1.93-0.39-2.74-1.25l-3.71-3.92
			c-0.81-0.85-1.17-1.79-1.09-2.81c0.08-1.02,0.51-1.9,1.31-2.65c0.79-0.75,1.7-1.14,2.71-1.15c1.01-0.02,1.93,0.4,2.74,1.25
			l3.71,3.92c0.82,0.86,1.19,1.8,1.11,2.8S162.87,164.39,162.07,165.15z M156.88,157.42c-0.36-0.38-0.76-0.59-1.18-0.63
			c-0.42-0.04-0.8,0.11-1.14,0.43s-0.51,0.69-0.5,1.12c0.01,0.42,0.19,0.83,0.57,1.23l3.68,3.88c0.36,0.38,0.76,0.59,1.18,0.62
			c0.42,0.03,0.8-0.12,1.14-0.44s0.51-0.69,0.5-1.11c-0.01-0.42-0.19-0.82-0.57-1.21L156.88,157.42z"/>
		<path class="st2" d="M166.61,160.53l-1.62-1.37l-1.16-7.25c-0.07-0.37-0.15-0.67-0.26-0.89c-0.11-0.22-0.27-0.43-0.49-0.62
			c-0.37-0.31-0.75-0.46-1.15-0.44c-0.4,0.02-0.76,0.21-1.07,0.59c-0.29,0.35-0.44,0.72-0.44,1.1s0.23,0.77,0.68,1.15l-1.51,1.79
			c-0.88-0.74-1.34-1.61-1.38-2.6c-0.04-0.99,0.3-1.92,1.04-2.8c0.74-0.88,1.6-1.38,2.58-1.5c0.98-0.12,1.9,0.19,2.77,0.93
			c0.45,0.38,0.76,0.77,0.92,1.17c0.17,0.4,0.31,0.99,0.44,1.77l0.87,5.44l3.2-3.79l1.61,1.36L166.61,160.53z"/>
		<path class="st2" d="M175.39,149.35c-0.64,0.96-1.44,1.59-2.4,1.9c-0.96,0.31-1.96,0.11-3.01-0.59l1.3-1.95
			c0.45,0.3,0.89,0.39,1.31,0.27s0.77-0.38,1.05-0.79c0.29-0.43,0.39-0.86,0.31-1.3c-0.08-0.43-0.36-0.81-0.84-1.13
			c-0.45-0.3-0.9-0.4-1.34-0.32c-0.44,0.09-0.82,0.37-1.13,0.84l-0.19,0.28l-1.69-1.13l0.19-0.28c0.3-0.45,0.4-0.87,0.31-1.26
			c-0.09-0.39-0.34-0.71-0.74-0.98c-0.43-0.29-0.85-0.38-1.25-0.29c-0.41,0.09-0.73,0.32-0.98,0.69c-0.25,0.38-0.35,0.77-0.28,1.17
			c0.06,0.4,0.29,0.74,0.69,1l-1.3,1.95c-0.92-0.61-1.45-1.41-1.59-2.41c-0.14-0.99,0.1-1.95,0.72-2.88
			c0.63-0.95,1.43-1.54,2.41-1.77c0.97-0.23,1.91-0.05,2.81,0.55c0.55,0.37,0.93,0.78,1.14,1.23c0.21,0.46,0.29,0.94,0.23,1.45
			c0.52-0.28,1.05-0.41,1.6-0.39s1.13,0.23,1.74,0.63c1.01,0.67,1.58,1.51,1.7,2.53C176.29,147.4,176.03,148.39,175.39,149.35z"/>
	</g>
</g>
</svg>
