<?xml version="1.0" encoding="UTF-8"?>
<svg id="Camada_2" data-name="Camada 2" xmlns="http://www.w3.org/2000/svg" viewBox="0 0 169.25 159.09">
  <defs>
    <style>
      .cls-1 {
        stroke-width: 0px;
      }
    </style>
  </defs>
  <g id="Camada_1-2" data-name="Camada 1">
    <g>
      <g>
        <g>
          <path class="cls-1" d="m7.44,144.06v1.76H2v4.26h5.23v1.74H2v6.54H0v-14.29h7.44Z"/>
          <path class="cls-1" d="m16.08,143.79c1.41,0,2.63.32,3.66.95,1.03.63,1.81,1.51,2.35,2.63.53,1.12.8,2.4.8,3.85,0,1.13-.16,2.15-.47,3.07-.31.92-.76,1.7-1.35,2.35-.59.65-1.3,1.14-2.13,1.49-.83.34-1.76.51-2.79.51-1.4,0-2.62-.32-3.65-.96-1.03-.64-1.82-1.52-2.36-2.65-.54-1.13-.81-2.4-.81-3.81,0-1.07.15-2.05.45-2.96.3-.9.74-1.69,1.31-2.35.57-.66,1.29-1.18,2.14-1.55.85-.37,1.8-.56,2.85-.56Zm-.02,1.61c-.9,0-1.7.24-2.4.73-.7.48-1.24,1.17-1.62,2.05-.38.88-.57,1.89-.57,3.01,0,.83.11,1.61.34,2.34.23.73.55,1.36.96,1.88.42.52.91.92,1.47,1.19.56.28,1.19.41,1.87.41s1.29-.14,1.85-.42c.56-.28,1.06-.68,1.48-1.2s.74-1.13.96-1.82.33-1.46.33-2.31c0-.89-.11-1.7-.33-2.41s-.54-1.33-.96-1.86c-.42-.52-.92-.92-1.49-1.19-.57-.27-1.21-.41-1.9-.41Z"/>
          <path class="cls-1" d="m25.71,144.06h3.36c.84,0,1.47.03,1.89.08.42.05.85.16,1.28.31.47.16.88.4,1.23.73.34.32.61.72.8,1.18.19.46.29.95.29,1.48,0,.92-.26,1.67-.79,2.24-.53.58-1.25.94-2.17,1.1.45.22.78.45,1,.7.22.25.47.67.75,1.27l2.36,5.21h-2.29l-1.8-4.29c-.27-.64-.51-1.1-.72-1.38-.21-.28-.46-.46-.75-.55-.3-.09-.72-.14-1.27-.14h-1.15v6.36h-2v-14.29Zm2,1.76v4.42h1.24c2.36,0,3.54-.74,3.54-2.23,0-.89-.31-1.48-.93-1.76-.62-.28-1.42-.42-2.41-.42h-1.44Z"/>
          <path class="cls-1" d="m47.15,144.06v1.76h-4.39v12.53h-2v-12.53h-4.47v-1.76h10.87Z"/>
          <path class="cls-1" d="m55.46,144.06l6.07,14.29h-2.26l-1.47-3.62h-6.81l-1.45,3.62h-2.16l5.97-14.29h2.1Zm1.65,8.94l-1.61-3.99c-.32-.76-.56-1.36-.72-1.79-.16-.44-.3-.9-.42-1.4-.1.38-.22.77-.36,1.15-.14.38-.41,1.08-.82,2.09l-1.55,3.94h5.48Z"/>
          <path class="cls-1" d="m65.44,144.06v12.56h5.92v1.74h-7.92v-14.29h2Z"/>
          <path class="cls-1" d="m81.33,144.06v1.76h-5.8v4.2h5.38v1.76h-5.38v4.84h5.96v1.74h-7.96v-14.29h7.8Z"/>
          <path class="cls-1" d="m93.07,144.06v1.88l-6.02,8.79c-.12.19-.24.35-.34.5-.1.14-.21.29-.32.44-.11.15-.23.32-.35.51-.13.19-.23.35-.31.48.33-.03.85-.04,1.55-.04h5.93v1.74h-9.77v-1.74l5.67-8.4c.14-.21.3-.43.46-.67.16-.24.3-.44.41-.59.11-.15.27-.36.47-.62s.36-.45.47-.57c-.66.04-1.31.06-1.96.06h-5.27v-1.76h9.38Z"/>
          <path class="cls-1" d="m102.21,144.06l6.07,14.29h-2.26l-1.47-3.62h-6.81l-1.45,3.62h-2.16l5.97-14.29h2.1Zm1.65,8.94l-1.61-3.99c-.32-.76-.56-1.36-.72-1.79-.16-.44-.3-.9-.42-1.4-.1.38-.22.77-.36,1.15-.14.38-.41,1.08-.82,2.09l-1.55,3.94h5.48Z"/>
        </g>
        <g>
          <path class="cls-1" d="m115.62,155.09h6.2v3.65h-12.02v-4.25c1.49-.7,2.86-1.45,4.1-2.25,1.05-.68,1.75-1.28,2.1-1.8.24-.37.36-.84.36-1.41s-.24-1.06-.72-1.45c-.48-.39-1.21-.58-2.21-.58-.49,0-1.04.06-1.63.19-.59.12-1.15.3-1.68.53v-3.95c1.92-.42,3.57-.63,4.96-.63s2.58.21,3.62.62c1.03.41,1.81,1.01,2.33,1.81.52.8.78,1.68.78,2.67,0,.66-.11,1.27-.33,1.83-.22.56-.53,1.09-.94,1.57-.41.49-.99,1.01-1.76,1.56-.77.56-1.83,1.19-3.18,1.9Z"/>
          <path class="cls-1" d="m130.21,143.13c1.2,0,2.32.2,3.36.6.83.33,1.56.8,2.17,1.43.61.63,1.08,1.33,1.42,2.11.49,1.12.73,2.41.73,3.86,0,1.06-.15,2.08-.45,3.07s-.75,1.83-1.37,2.55c-.62.71-1.43,1.29-2.44,1.71-1.01.43-2.13.64-3.36.64-1.17,0-2.23-.2-3.2-.59-.97-.4-1.77-.94-2.41-1.63-.64-.69-1.12-1.53-1.44-2.5-.32-.97-.48-2.04-.48-3.21,0-1.23.18-2.38.55-3.46.29-.83.71-1.55,1.25-2.17.54-.62,1.09-1.09,1.64-1.4.55-.31,1.17-.56,1.86-.74.69-.18,1.41-.27,2.17-.27Zm.1,12.49c.4,0,.74-.12,1.02-.35s.5-.64.64-1.21c.14-.58.21-1.59.21-3.03,0-.73-.03-1.39-.09-1.99-.06-.6-.16-1.06-.31-1.4s-.36-.59-.62-.77c-.27-.18-.55-.27-.86-.27-.24,0-.47.06-.69.17-.22.11-.41.28-.57.49s-.28.47-.38.78c-.07.22-.13.57-.17,1.06-.06.66-.1,1.39-.1,2.16s.05,1.53.14,2.25c.04.3.08.54.15.74.11.33.23.58.36.76.13.18.31.33.53.44.22.11.47.17.74.17Z"/>
          <path class="cls-1" d="m153.29,152.1v3.72h-2.66v2.92h-5.26v-2.92h-6.66v-5.03l6.49-7.37h5.43v8.68h2.66Zm-7.54.33v-4.42l-3.83,4.42h3.83Z"/>
          <path class="cls-1" d="m161.57,143.13c1.2,0,2.32.2,3.36.6.83.33,1.56.8,2.17,1.43.61.63,1.08,1.33,1.42,2.11.49,1.12.73,2.41.73,3.86,0,1.06-.15,2.08-.45,3.07-.3.98-.75,1.83-1.37,2.55-.62.71-1.43,1.29-2.44,1.71-1.01.43-2.13.64-3.36.64-1.17,0-2.23-.2-3.2-.59-.97-.4-1.77-.94-2.41-1.63-.64-.69-1.12-1.53-1.44-2.5-.32-.97-.48-2.04-.48-3.21,0-1.23.18-2.38.55-3.46.29-.83.71-1.55,1.25-2.17.54-.62,1.09-1.09,1.64-1.4.55-.31,1.17-.56,1.86-.74.69-.18,1.41-.27,2.17-.27Zm.1,12.49c.4,0,.74-.12,1.02-.35s.5-.64.64-1.21.21-1.59.21-3.03c0-.73-.03-1.39-.09-1.99-.06-.6-.16-1.06-.31-1.4-.15-.34-.36-.59-.62-.77-.27-.18-.55-.27-.86-.27-.24,0-.47.06-.69.17-.22.11-.41.28-.57.49s-.28.47-.38.78c-.07.22-.13.57-.17,1.06-.06.66-.1,1.39-.1,2.16s.05,1.53.14,2.25c.04.3.08.54.15.74.11.33.23.58.36.76.13.18.31.33.53.44.22.11.47.17.74.17Z"/>
        </g>
      </g>
      <path class="cls-1" d="m159.62,85l-37.88-12.02,29.34-6.48-4.46-20.5-25.78,5.78,28.78-22.78-12-14-12.64,10.09,3.64-6.09-18-12-13.86,23.54,1.86-24.54-18-1-2.57,30.8L63.62,0l-16.72,5,10.72,25-15-13-13,13,20.48,20.26-35.48-11.26-5,20,32.97,10.3-20.97,4.7,5,20,16.64-3.68-19.64,15.68,11,14,17.73-14.03-4.73,8.03,17,12,6.87-11.49-1.87,22.49,19,1,1.79-23.62,6.21,15.62,17-6-7.33-18.18,13.33,13.18,13.86-15-9.76-9.34,29.9,9.34,6-19Zm-56.13,17.12l-2.21-10h-35.25l-2.21,10-20.18,4.88,4.7-19.92,10.07-2.5v-35.17l-10.07-2.5-4.7-19.92,20.18,4.88,2.12,9.59h35.43l2.12-9.59,20.18-4.88-4.7,19.92-9.92,2.46v35.25l9.92,2.46,4.7,19.92-20.18-4.88Z"/>
    </g>
  </g>
</svg>